<svg width="24" height="31" viewBox="0 0 24 31" fill="none" xmlns="http://www.w3.org/2000/svg">
<g clip-path="url(#clip0_1052_13523)">
<path d="M10.8169 13.7386C13.9906 13.7386 16.5634 11.0574 16.5634 7.74999C16.5634 4.44256 13.9906 1.76135 10.8169 1.76135C7.64322 1.76135 5.07043 4.44256 5.07043 7.74999C5.07043 11.0574 7.64322 13.7386 10.8169 13.7386Z" fill="#B1D1A0"/>
<path d="M16.2367 7.92612C16.2367 4.90398 13.8859 2.45404 10.986 2.45403C8.08602 2.45403 5.73514 4.90398 5.73514 7.92612C5.73515 10.9483 8.08602 13.3982 10.986 13.3982C13.8859 13.3982 16.2367 10.9483 16.2367 7.92612ZM17.2395 7.92612C17.2395 11.5254 14.4397 14.4431 10.986 14.4432C7.53224 14.4432 4.73243 11.5254 4.73242 7.92612C4.73242 4.32685 7.53223 1.40906 10.986 1.40906C14.4397 1.40906 17.2395 4.32686 17.2395 7.92612Z" fill="#B1D1A0"/>
<path d="M6.93793 16.2045H15.0342C18.4901 16.2045 21.2957 19.0504 21.2957 22.5559V30.2954H0.676025V22.5559C0.676025 19.0504 3.48169 16.2045 6.93758 16.2045H6.93793Z" fill="#B1D1A0"/>
<path d="M20.6236 22.5383C20.6236 19.2337 18.0435 16.5506 14.8659 16.5506H6.76783C3.59024 16.5506 1.01018 19.2337 1.01018 22.5383V29.9494H20.6236V22.5383ZM21.6338 31H0V22.5383C0 18.6535 3.03234 15.5 6.76783 15.5H14.8659C18.6014 15.5 21.6338 18.6535 21.6338 22.5383V31Z" fill="#B1D1A0"/>
<path d="M23.2017 0.776079C23.7338 1.29347 24 1.98612 24 2.85404C24 3.82368 23.7165 4.54195 23.1491 5.00811C22.5817 5.47463 21.8138 5.70771 20.8453 5.70771L20.8059 7.02387H19.7718L19.7195 4.83504H20.0992C20.9632 4.83504 21.6392 4.69636 22.1281 4.41937C22.6166 4.14238 22.8611 3.62061 22.8611 2.85404C22.8611 2.30006 22.7041 1.86135 22.3898 1.53789C22.0755 1.2148 21.6523 1.05307 21.1202 1.05307C20.5881 1.05307 20.1535 1.20784 19.844 1.51703C19.5342 1.82659 19.3793 2.2492 19.3793 2.78452H18.2535C18.2535 2.23054 18.3714 1.74353 18.6069 1.3231C18.8424 0.903048 19.1764 0.577394 19.6082 0.34651C20.0401 0.115625 20.5397 0 21.1071 0C21.9711 0 22.6692 0.258693 23.2013 0.775713L23.2017 0.776079ZM19.7068 9.61409C19.5498 9.44797 19.4713 9.24489 19.4713 9.0045C19.4713 8.7641 19.5498 8.56102 19.7068 8.3949C19.8637 8.22878 20.0556 8.14536 20.2828 8.14536C20.5099 8.14536 20.6863 8.22842 20.8391 8.3949C20.9916 8.56102 21.0683 8.76446 21.0683 9.0045C21.0683 9.24453 20.9919 9.44797 20.8391 9.61409C20.6863 9.78021 20.501 9.86364 20.2828 9.86364C20.0646 9.86364 19.8637 9.78058 19.7068 9.61409Z" fill="#B1D1A0"/>
</g>
<defs>
<clipPath id="clip0_1052_13523">
<rect width="24" height="31" fill="white"/>
</clipPath>
</defs>
</svg>
