<svg width="19" height="26" viewBox="0 0 19 26" fill="none" xmlns="http://www.w3.org/2000/svg">
<path d="M4 10C4.55228 10 5 10.4477 5 11V25C5 25.5523 4.55228 26 4 26H1C0.447715 26 0 25.5523 0 25V11C0 10.4477 0.447715 10 1 10H4ZM11 0C11.5523 0 12 0.447715 12 1V25C12 25.5523 11.5523 26 11 26H8C7.44772 26 7 25.5523 7 25V1C7 0.447716 7.44772 8.0532e-09 8 0H11ZM18 6C18.5523 6 19 6.44772 19 7V25C19 25.5523 18.5523 26 18 26H15C14.4477 26 14 25.5523 14 25V7C14 6.44772 14.4477 6 15 6H18Z" fill="#FE6744"/>
</svg>
