<svg width="23" height="32" viewBox="0 0 23 32" fill="none" xmlns="http://www.w3.org/2000/svg">
<g clip-path="url(#clip0_1128_13715)">
<path d="M8.59558 5.35542V2.68944C8.59558 1.2372 9.77272 0.0600586 11.225 0.0600586C11.9511 0.0600586 12.6079 0.354442 13.0841 0.830257C13.5596 1.30607 13.8539 1.96332 13.8539 2.68944V5.35542" fill="#FFE07C"/>
<path d="M11.2249 4.96681C5.15697 4.93533 2.76057 10.2885 2.55553 13.2135C2.29145 16.9795 2.39928 18.6163 1.92583 20.8277C1.58383 22.4256 1.01277 23.8058 0.455881 24.8818C-0.13328 26.0196 0.699494 27.3766 1.98054 27.3766H20.4692C21.7503 27.3766 22.5831 26.0196 21.9939 24.8818C21.4366 23.8058 20.8659 22.4252 20.5239 20.8277C20.0505 18.6167 20.1583 16.9795 19.8942 13.2135C19.6892 10.2885 17.2932 4.93533 11.2249 4.96681Z" fill="#FFE07C"/>
<path d="M14.1145 27.3767C14.1672 27.5991 14.1951 27.8309 14.1951 28.069C14.1951 29.7208 12.8558 31.06 11.2041 31.06C9.5523 31.06 8.21301 29.7208 8.21301 28.069C8.21301 27.8309 8.24096 27.5991 8.29369 27.3767" fill="#FFE07C"/>
</g>
<defs>
<clipPath id="clip0_1128_13715">
<rect width="23" height="32" fill="white"/>
</clipPath>
</defs>
</svg>
