<svg width="33" height="21" viewBox="0 0 33 21" fill="none" xmlns="http://www.w3.org/2000/svg">
<path d="M23.1567 13.5071C23.1567 17.1834 20.1763 20.1638 16.5 20.1638C12.8238 20.1638 9.84375 17.1834 9.84375 13.5071C9.84375 10.0925 12.415 7.27837 15.7267 6.89587C15.7504 10.5517 18.7217 13.5071 22.3825 13.5071C22.6442 13.5071 22.9025 13.4921 23.1562 13.4617C23.1567 13.4767 23.1567 13.4921 23.1567 13.5071Z" fill="#FE88B4"/>
<path d="M16.4998 0.232056C24.6579 0.232061 31.3593 6.46535 32.1026 14.4288C32.1336 14.7611 31.8894 15.0555 31.5571 15.0865C31.2249 15.1175 30.9305 14.8734 30.8995 14.5411C30.2136 7.19296 24.0283 1.44039 16.4998 1.44039C8.97127 1.44039 2.78593 7.19296 2.10007 14.5411C2.06905 14.8734 1.77457 15.1175 1.44235 15.0865C1.11013 15.0555 0.865937 14.7611 0.896941 14.4288C1.64024 6.46534 8.34159 0.232056 16.4998 0.232056Z" fill="#FE88B4"/>
</svg>
