<svg width="1080" height="1080" viewBox="0 0 1080 1080" fill="none" xmlns="http://www.w3.org/2000/svg">
<path d="M327.21 471.6C418.475 471.6 492.46 397.615 492.46 306.35C492.46 215.085 418.475 141.1 327.21 141.1C235.945 141.1 161.96 215.085 161.96 306.35C161.96 397.615 235.945 471.6 327.21 471.6Z" stroke="#2B2B2B" stroke-width="29" stroke-miterlimit="10"/>
<path d="M876.01 141.1H645.71C622.497 141.1 603.68 159.917 603.68 183.13V413.43C603.68 436.642 622.497 455.46 645.71 455.46H876.01C899.222 455.46 918.04 436.642 918.04 413.43V183.13C918.04 159.917 899.222 141.1 876.01 141.1Z" stroke="#2B2B2B" stroke-width="29" stroke-miterlimit="10"/>
<path d="M752.79 955.16C844.055 955.16 918.04 881.175 918.04 789.91C918.04 698.645 844.055 624.66 752.79 624.66C661.525 624.66 587.54 698.645 587.54 789.91C587.54 881.175 661.525 955.16 752.79 955.16Z" stroke="#2B2B2B" stroke-width="29" stroke-miterlimit="10"/>
<path d="M203.99 939.02H434.29C457.503 939.02 476.32 920.202 476.32 896.99L476.32 666.69C476.32 643.477 457.503 624.659 434.29 624.659H203.99C180.778 624.659 161.96 643.477 161.96 666.69L161.96 896.99C161.96 920.202 180.778 939.02 203.99 939.02Z" stroke="#2B2B2B" stroke-width="29" stroke-miterlimit="10"/>
</svg>
