<svg width="786" height="844" viewBox="0 0 786 844" fill="none" xmlns="http://www.w3.org/2000/svg">
<g clip-path="url(#clip0_2189_21069)">
<path d="M180.21 345.6C271.475 345.6 345.46 271.615 345.46 180.35C345.46 89.0849 271.475 15.1 180.21 15.1C88.9449 15.1 14.96 89.0849 14.96 180.35C14.96 271.615 88.9449 345.6 180.21 345.6Z" stroke="#2B2B2B" stroke-width="29" stroke-miterlimit="10"/>
<path d="M729.01 15.1H498.71C475.498 15.1 456.68 33.9174 456.68 57.13V287.43C456.68 310.642 475.498 329.46 498.71 329.46H729.01C752.223 329.46 771.04 310.642 771.04 287.43V57.13C771.04 33.9174 752.223 15.1 729.01 15.1Z" stroke="#2B2B2B" stroke-width="29" stroke-miterlimit="10"/>
<path d="M605.79 829.16C697.055 829.16 771.04 755.175 771.04 663.91C771.04 572.645 697.055 498.66 605.79 498.66C514.525 498.66 440.54 572.645 440.54 663.91C440.54 755.175 514.525 829.16 605.79 829.16Z" stroke="#2B2B2B" stroke-width="29" stroke-miterlimit="10"/>
<path d="M56.9898 813.02H287.29C310.502 813.02 329.32 794.203 329.32 770.99L329.32 540.69C329.32 517.477 310.502 498.66 287.29 498.66L56.9898 498.66C33.7773 498.66 14.9598 517.477 14.9598 540.69L14.9598 770.99C14.9598 794.203 33.7773 813.02 56.9898 813.02Z" stroke="#2B2B2B" stroke-width="29" stroke-miterlimit="10"/>
</g>
<defs>
<clipPath id="clip0_2189_21069">
<rect width="786" height="844" fill="white"/>
</clipPath>
</defs>
</svg>
