<svg width="19" height="21" viewBox="0 0 19 21" fill="none" xmlns="http://www.w3.org/2000/svg">
<g clip-path="url(#clip0_179_5521)">
<path d="M8.01167 4.82101C8.01167 2.79741 6.39252 1.15695 4.39519 1.15695C2.39787 1.15695 0.778715 2.79741 0.778715 4.82101C0.778715 6.84462 2.39787 8.48507 4.39519 8.48507C6.39252 8.48507 8.01167 6.84462 8.01167 4.82101ZM8.70738 4.82101C8.70738 7.2339 6.77675 9.18993 4.39519 9.18993C2.01364 9.18993 0.0830078 7.2339 0.0830078 4.82101C0.0830078 2.40812 2.01364 0.452087 4.39519 0.452087C6.77675 0.452088 8.70738 2.40812 8.70738 4.82101Z" fill="#2B2B2B"/>
<path d="M18.2214 1.82609C18.2214 1.45654 17.9257 1.15695 17.561 1.15695H12.0361C11.6713 1.15695 11.3756 1.45654 11.3756 1.82609V7.42365C11.3756 7.7932 11.6713 8.09279 12.0361 8.09279H17.561C17.9257 8.09279 18.2214 7.7932 18.2214 7.42365V1.82609ZM18.9171 7.42365C18.9171 8.18249 18.3099 8.79765 17.561 8.79765H12.0361C11.2871 8.79765 10.6799 8.18249 10.6799 7.42365V1.82609C10.6799 1.06725 11.2871 0.452087 12.0361 0.452087H17.561C18.3099 0.452088 18.9171 1.06725 18.9171 1.82609V7.42365Z" fill="#2B2B2B"/>
<path d="M18.2214 16.5742C18.2214 14.5506 16.6022 12.9102 14.6049 12.9102C12.6076 12.9102 10.9884 14.5506 10.9884 16.5742C10.9884 18.5978 12.6076 20.2383 14.6049 20.2383C16.6022 20.2383 18.2214 18.5978 18.2214 16.5742ZM18.9171 16.5742C18.9171 18.9871 16.9865 20.9431 14.6049 20.9431C12.2234 20.9431 10.2927 18.9871 10.2927 16.5742C10.2927 14.1613 12.2234 12.2053 14.6049 12.2053C16.9865 12.2053 18.9171 14.1613 18.9171 16.5742Z" fill="#2B2B2B"/>
<path d="M0.778596 19.1768C0.778596 19.5464 1.07429 19.846 1.43904 19.846H6.96391C7.32866 19.846 7.62436 19.5464 7.62436 19.1768L7.62436 13.5793C7.62436 13.2097 7.32866 12.9101 6.96391 12.9101H1.43904C1.07429 12.9101 0.778596 13.2097 0.778596 13.5793L0.778596 19.1768ZM0.0828886 13.5793C0.0828896 12.8204 0.690065 12.2053 1.43904 12.2053H6.96391C7.71289 12.2053 8.32007 12.8204 8.32007 13.5793V19.1768C8.32007 19.9357 7.71289 20.5508 6.96391 20.5508H1.43904C0.690064 20.5508 0.0828886 19.9357 0.0828886 19.1768V13.5793Z" fill="#2B2B2B"/>
</g>
<defs>
<clipPath id="clip0_179_5521">
<rect width="19" height="21" fill="white"/>
</clipPath>
</defs>
</svg>
