<svg width="17" height="21" viewBox="0 0 17 21" fill="none" xmlns="http://www.w3.org/2000/svg">
<path d="M16.1094 6.3165C16.1094 4.59316 14.7361 3.19611 13.0421 3.19611H3.75205C2.05801 3.19611 0.684722 4.59316 0.684722 6.3165V16.5392C0.684722 18.2626 2.05801 19.6596 3.75205 19.6596H13.0421C14.7361 19.6596 16.1094 18.2626 16.1094 16.5392V6.3165ZM16.7941 16.5392C16.7941 18.6473 15.1143 20.3562 13.0421 20.3562H3.75205C1.67985 20.3562 0 18.6473 0 16.5392V6.3165C0 4.20846 1.67985 2.49954 3.75205 2.49954H13.0421C15.1143 2.49954 16.7941 4.20846 16.7941 6.3165V16.5392Z" fill="#2B2B2B"/>
<path d="M16.1094 8.13022V8.82679H0V8.13022H16.1094Z" fill="#2B2B2B"/>
<path d="M4.85718 4.70384V0.992083C4.85718 0.799731 5.01046 0.643799 5.19954 0.643799C5.38862 0.643799 5.5419 0.799731 5.5419 0.992083V4.70384C5.5419 4.89619 5.38862 5.05212 5.19954 5.05212C5.01046 5.05212 4.85718 4.89619 4.85718 4.70384Z" fill="#2B2B2B"/>
<path d="M11.2661 4.70384V0.992083C11.2661 0.799731 11.4194 0.643799 11.6085 0.643799C11.7976 0.643799 11.9508 0.799731 11.9508 0.992083V4.70384C11.9508 4.89619 11.7976 5.05212 11.6085 5.05212C11.4194 5.05212 11.2661 4.89619 11.2661 4.70384Z" fill="#2B2B2B"/>
</svg>
