<svg width="22" height="20" viewBox="0 0 22 20" fill="none" xmlns="http://www.w3.org/2000/svg">
<g clip-path="url(#clip0_198_6019)">
<g clip-path="url(#clip1_198_6019)">
<path d="M6.18535 17.8385L0.864502 19.5295L3.26637 14.6143C2.50804 13.2469 2.07663 11.6739 2.07663 10C2.07663 4.73693 6.34304 0.47052 11.6061 0.47052C16.8692 0.47052 21.1356 4.73693 21.1356 10C21.1356 15.2631 16.8692 19.5295 11.6061 19.5295C9.59208 19.5295 7.72417 18.9048 6.18535 17.8385Z" fill="white"/>
<path d="M20.7865 9.99998C20.7865 4.9297 16.6764 0.819583 11.6061 0.819578C6.53579 0.819578 2.42565 4.9297 2.42565 9.99998C2.42565 11.6131 2.84126 13.1281 3.57159 14.445C3.62688 14.5447 3.63001 14.6651 3.57996 14.7675L1.53627 18.9497L6.07957 17.5058L6.08928 17.5029C6.18971 17.4741 6.29796 17.4919 6.38412 17.5516C7.86641 18.5787 9.66534 19.1804 11.6061 19.1804C16.6764 19.1804 20.7865 15.0703 20.7865 9.99998ZM21.4846 9.99998C21.4846 15.4558 17.0619 19.8785 11.6061 19.8785C9.58064 19.8785 7.69686 19.2687 6.12934 18.2225L0.970177 19.8621C0.837022 19.9045 0.691461 19.8633 0.600179 19.7575C0.508898 19.6518 0.48949 19.5017 0.550832 19.3762L2.87374 14.6225C2.14172 13.2427 1.7275 11.6693 1.7275 9.99998C1.7275 4.54412 6.15021 0.121429 11.6061 0.121429C17.0619 0.121435 21.4846 4.54412 21.4846 9.99998Z" fill="#2B2B2B"/>
</g>
</g>
<defs>
<clipPath id="clip0_198_6019">
<rect width="22" height="20" fill="white"/>
</clipPath>
<clipPath id="clip1_198_6019">
<rect width="22" height="20" fill="white"/>
</clipPath>
</defs>
</svg>
