<svg width="25" height="22" viewBox="0 0 25 22" fill="none" xmlns="http://www.w3.org/2000/svg">
<path d="M22.8653 11.0002C22.8653 5.42289 18.3441 0.901758 12.7668 0.901752C7.1895 0.901752 2.66834 5.42288 2.66834 11.0002C2.66834 12.7747 3.12552 14.4411 3.92887 15.8897C3.9897 15.9993 3.99314 16.1318 3.93808 16.2445L1.69003 20.8449L6.68766 19.2566L6.69834 19.2534C6.80881 19.2218 6.92789 19.2413 7.02266 19.3069C8.65318 20.4367 10.632 21.0986 12.7668 21.0986C18.3441 21.0986 22.8653 16.5775 22.8653 11.0002ZM23.6332 11.0002C23.6332 17.0016 18.7683 21.8666 12.7668 21.8666C10.5388 21.8666 8.46667 21.1957 6.7424 20.045L1.06732 21.8486C0.920853 21.8951 0.760736 21.8498 0.660325 21.7335C0.559916 21.6171 0.538567 21.4521 0.606043 21.314L3.16125 16.085C2.35603 14.5672 1.90038 12.8364 1.90038 11.0002C1.90038 4.99875 6.76536 0.133789 12.7668 0.133789C18.7683 0.133795 23.6332 4.99875 23.6332 11.0002Z" fill="#2B2B2B"/>
</svg>
