<svg width="230" height="216" viewBox="0 0 230 216" fill="none" xmlns="http://www.w3.org/2000/svg">
<g clip-path="url(#clip0_2189_21080)">
<path d="M221.824 108.002C221.824 52.7359 176.973 7.93556 121.647 7.9355C66.3197 7.9355 21.4698 52.7358 21.4698 108.002C21.4698 125.586 26.0051 142.098 33.9743 156.452C34.5777 157.538 34.6118 158.851 34.0657 159.968L11.765 205.554L61.3415 189.815L61.4474 189.784C62.5433 189.471 63.7246 189.664 64.6647 190.314C80.8394 201.509 100.469 208.068 121.647 208.068C176.973 208.068 221.824 163.268 221.824 108.002ZM229.441 108.002C229.441 167.47 181.181 215.678 121.647 215.678C99.5448 215.678 78.9893 209.03 61.8845 197.628L5.58771 215.5C4.13476 215.96 2.5464 215.512 1.55032 214.359C0.554263 213.206 0.342481 211.571 1.01184 210.202L26.3595 158.388C18.3717 143.348 13.8517 126.197 13.8517 108.002C13.8517 48.533 62.1123 0.325684 121.647 0.325684C181.181 0.325743 229.441 48.533 229.441 108.002Z" fill="#2B2B2B"/>
</g>
<defs>
<clipPath id="clip0_2189_21080">
<rect width="230" height="216" fill="white"/>
</clipPath>
</defs>
</svg>
