<svg width="1251" height="1080" viewBox="0 0 1251 1080" fill="none" xmlns="http://www.w3.org/2000/svg">
<path d="M1144.18 540.009C1144.18 266.214 917.939 44.2677 638.851 44.2674C359.763 44.2674 133.524 266.214 133.524 540.009C133.524 627.121 156.401 708.926 196.601 780.039C199.645 785.42 199.817 791.924 197.062 797.457L84.5691 1023.29L334.65 945.324L335.185 945.166C340.713 943.615 346.672 944.572 351.414 947.793C433.005 1003.26 532.025 1035.75 638.851 1035.75C917.939 1035.75 1144.18 813.804 1144.18 540.009ZM1182.61 540.009C1182.61 834.624 939.166 1073.45 638.851 1073.45C527.361 1073.45 423.672 1040.52 337.39 984.027L53.4087 1072.57C46.0795 1074.85 38.0672 1072.63 33.0426 1066.92C28.0182 1061.2 26.9499 1053.1 30.3264 1046.32L158.189 789.627C117.896 715.117 95.095 630.15 95.095 540.009C95.095 245.393 338.539 6.56738 638.851 6.56738C939.166 6.56768 1182.61 245.393 1182.61 540.009Z" fill="#2B2B2B"/>
</svg>
