<svg width="255" height="338" viewBox="0 0 255 338" fill="none" xmlns="http://www.w3.org/2000/svg">
<g clip-path="url(#clip0_2189_21086)">
<path d="M189.445 74.7696C189.445 40.333 161.607 12.4167 127.269 12.4165C92.9301 12.4165 65.0928 40.333 65.0928 74.7696C65.0928 109.206 92.9303 137.122 127.269 137.122C161.607 137.122 189.445 109.206 189.445 74.7696ZM201.319 74.7696C201.319 115.782 168.166 149.029 127.269 149.029C86.3727 149.029 53.2194 115.782 53.2192 74.7696C53.2192 33.7568 86.3727 0.509277 127.269 0.509277C168.166 0.509358 201.319 33.7568 201.319 74.7696Z" fill="#2B2B2B"/>
<path d="M242.539 241.56C242.539 204.105 212.214 173.693 174.864 173.693H79.6798C42.3307 173.693 12.0049 204.105 12.0049 241.56V325.56H242.539V241.56ZM254.413 337.467H0.131348V241.56C0.131348 197.53 35.7732 161.787 79.6798 161.787H174.864C218.771 161.787 254.413 197.53 254.413 241.56V337.467Z" fill="#2B2B2B"/>
</g>
<defs>
<clipPath id="clip0_2189_21086">
<rect width="255" height="338" fill="white"/>
</clipPath>
</defs>
</svg>
