<svg width="17" height="22" viewBox="0 0 17 22" fill="none" xmlns="http://www.w3.org/2000/svg">
<g clip-path="url(#clip0_702_17693)">
<path d="M8.48586 9.60248C10.8284 9.60248 12.7273 7.69652 12.7273 5.34541C12.7273 2.9943 10.8284 1.08835 8.48586 1.08835C6.14336 1.08835 4.24438 2.9943 4.24438 5.34541C4.24438 7.69652 6.14336 9.60248 8.48586 9.60248Z" fill="white"/>
<path d="M12.3574 5.34541C12.3574 3.19922 10.624 1.45939 8.48568 1.45938C6.34735 1.45938 4.61389 3.19922 4.61389 5.34541C4.61389 7.49159 6.34736 9.23141 8.48568 9.23141C10.624 9.2314 12.3574 7.49159 12.3574 5.34541ZM13.0968 5.34541C13.0968 7.90143 11.0323 9.9735 8.48568 9.9735C5.93901 9.9735 3.87452 7.90144 3.87451 5.34541C3.87451 2.78937 5.93901 0.717285 8.48568 0.717285C11.0323 0.71729 13.0968 2.78937 13.0968 5.34541Z" fill="#2B2B2B"/>
<path d="M5.52237 11.1394H11.4494C13.9793 11.1394 16.0332 13.2009 16.0332 15.7401V21.3462H0.938232V15.7401C0.938232 13.2009 2.99217 11.1394 5.52211 11.1394H5.52237Z" fill="white"/>
<path d="M15.6636 15.7401C15.6636 13.4058 13.7752 11.5104 11.4494 11.5104H5.52217C3.1964 11.5104 1.30798 13.4058 1.30798 15.7401V20.9752H15.6636V15.7401ZM16.403 21.7173H0.568604V15.7401C0.568604 12.9959 2.78806 10.7683 5.52217 10.7683H11.4494C14.1835 10.7683 16.403 12.9959 16.403 15.7401V21.7173Z" fill="#2B2B2B"/>
</g>
<defs>
<clipPath id="clip0_702_17693">
<rect width="17" height="22" fill="white"/>
</clipPath>
</defs>
</svg>
