<svg width="849" height="1080" viewBox="0 0 849 1080" fill="none" xmlns="http://www.w3.org/2000/svg">
<path d="M617.143 262.411C617.143 157.052 530.57 71.6425 423.782 71.642C316.991 71.642 230.42 157.052 230.42 262.411C230.42 367.769 316.992 453.178 423.782 453.178C530.57 453.178 617.143 367.769 617.143 262.411ZM654.07 262.411C654.07 387.888 550.966 489.608 423.782 489.608C296.598 489.608 193.495 387.889 193.495 262.411C193.495 136.932 296.598 35.2119 423.782 35.2119C550.966 35.2122 654.07 136.932 654.07 262.411Z" fill="#2B2B2B"/>
<path d="M782.259 772.706C782.259 658.113 687.95 565.066 571.797 565.066H275.784C159.632 565.066 65.3223 658.113 65.3223 772.706V1029.7H782.259V772.706ZM819.185 1066.13H28.397V772.706C28.397 637.996 139.239 528.641 275.784 528.641H571.797C708.341 528.641 819.185 637.996 819.185 772.706V1066.13Z" fill="#2B2B2B"/>
</svg>
