<svg width="1033" height="1080" viewBox="0 0 1033 1080" fill="none" xmlns="http://www.w3.org/2000/svg">
<path d="M986.5 404.641C996.555 404.738 1004.62 412.836 1004.52 422.727L1000.84 791.39C1000.75 932.512 884.45 1046.88 741.005 1046.88H293.476C149.976 1046.88 33.6503 932.418 33.6503 791.213V350.844C33.6503 209.641 149.975 95.1621 293.476 95.1621H569.758C579.813 95.1621 587.964 103.181 587.964 113.074C587.964 122.966 579.813 130.986 569.758 130.986H293.476C170.084 130.986 70.0565 229.423 70.0565 350.844V791.213C70.0565 912.63 170.082 1011.06 293.476 1011.06H741.005C864.405 1011.06 964.443 912.63 964.443 791.213V791.037L968.123 422.376C968.221 412.484 976.451 404.543 986.5 404.641Z" fill="#2B2B2B"/>
<path d="M683.472 80.6453C733.789 23.3178 821.81 16.9628 880.077 66.4801L956.228 131.185C1014.48 180.698 1020.95 267.311 970.626 324.645L551.342 802.43C538.714 816.819 521.094 826.043 501.915 828.301L481.549 830.702L336.522 847.805C291.232 853.151 251.08 819.033 249.85 774.164L245.367 610.303L245.349 609.415C245.055 590.731 251.753 572.582 264.17 558.424L683.472 80.6453ZM856.283 93.593C813.241 57.0119 748.207 61.6996 711.024 104.059L291.729 581.835C285.246 589.224 281.707 598.664 281.745 608.389L281.76 609.331L286.242 773.197L286.288 774.306C287.561 797.546 308.557 815.027 332.188 812.239L498.555 792.607C508.349 791.218 517.312 786.402 523.785 779.024L943.07 301.233C980.243 258.879 975.482 194.884 932.435 158.297L856.283 93.593Z" fill="#2B2B2B"/>
<path d="M642.103 131.816C651.676 128.828 661.897 134.032 664.947 143.441C664.937 143.42 664.947 143.442 664.947 143.441C664.957 143.483 665.001 143.598 665.046 143.722C665.129 143.97 665.267 144.379 665.469 144.94C665.872 146.063 666.511 147.794 667.412 150.057C669.207 154.584 672.04 161.23 676.064 169.4C684.131 185.76 696.941 208.107 715.781 231.762C753.392 278.978 814.875 331.239 911.106 351.98C920.925 354.097 927.142 363.646 924.993 373.309C922.838 382.972 913.133 389.09 903.314 386.974C796.999 364.059 728.683 306.025 687.127 253.862C666.388 227.827 652.271 203.215 643.308 185.036C638.827 175.936 635.615 168.418 633.5 163.098C632.447 160.438 631.66 158.325 631.129 156.835C630.863 156.09 630.656 155.5 630.514 155.076C630.44 154.864 630.386 154.693 630.342 154.565C630.322 154.501 630.302 154.447 630.288 154.404C630.283 154.383 630.278 154.363 630.273 154.348C630.273 154.352 630.268 154.34 630.273 154.348C630.273 154.338 630.258 154.307 647.608 148.89L630.273 154.348C627.233 144.918 632.521 134.808 642.103 131.816Z" fill="#2B2B2B"/>
</svg>
