<svg width="423" height="442" viewBox="0 0 423 442" fill="none" xmlns="http://www.w3.org/2000/svg">
<g clip-path="url(#clip0_2189_21082)">
<path d="M414.789 162.094C419.159 162.136 422.665 165.66 422.623 169.965L421.023 330.401C420.983 391.815 370.432 441.588 308.083 441.588H113.561C51.1883 441.588 0.626465 391.775 0.626465 330.324V138.682C0.626465 77.2324 51.1877 27.4131 113.561 27.4131H233.649C238.02 27.4131 241.562 30.9028 241.562 35.208C241.562 39.513 238.02 43.003 233.649 43.003H113.561C59.9282 43.003 16.4507 85.8416 16.4507 138.682V330.324C16.4507 383.163 59.9276 425.997 113.561 425.997H308.083C361.719 425.997 405.202 383.163 405.202 330.324V330.247L406.801 169.812C406.844 165.507 410.421 162.051 414.789 162.094Z" fill="#2B2B2B"/>
<path d="M283.076 21.0955C304.946 -3.85254 343.205 -6.61815 368.531 14.931L401.631 43.0896C426.952 64.637 429.762 102.33 407.889 127.28L225.644 335.206C220.156 341.467 212.497 345.482 204.161 346.464L195.308 347.509L132.272 354.952C112.586 357.279 95.1338 342.431 94.5989 322.905L92.6506 251.595L92.6427 251.208C92.5147 243.077 95.4261 235.179 100.823 229.018L283.076 21.0955ZM358.189 26.7302C339.481 10.8106 311.213 12.8507 295.051 31.2849L112.802 239.206C109.984 242.421 108.446 246.53 108.462 250.762L108.469 251.172L110.417 322.484L110.437 322.966C110.99 333.08 120.116 340.688 130.388 339.474L202.7 330.931C206.957 330.326 210.853 328.23 213.667 325.02L395.911 117.092C412.069 98.6601 409.999 70.8104 391.289 54.8885L358.189 26.7302Z" fill="#2B2B2B"/>
<path d="M265.094 43.3645C269.255 42.0638 273.698 44.3286 275.024 48.4234C275.019 48.4144 275.024 48.4236 275.024 48.4234C275.028 48.4415 275.047 48.4917 275.066 48.5456C275.103 48.6535 275.163 48.8316 275.25 49.0758C275.426 49.5646 275.704 50.3177 276.095 51.3023C276.875 53.2725 278.107 56.1649 279.856 59.7205C283.362 66.8399 288.93 76.5653 297.119 86.8593C313.467 107.407 340.191 130.15 382.018 139.177C386.286 140.098 388.988 144.253 388.054 148.459C387.118 152.664 382.899 155.326 378.631 154.405C332.421 144.433 302.727 119.178 284.664 96.477C275.65 85.147 269.514 74.4359 265.618 66.5248C263.67 62.5648 262.274 59.2928 261.355 56.9778C260.897 55.8203 260.555 54.9006 260.324 54.2522C260.209 53.9279 260.119 53.6713 260.057 53.4868C260.025 53.3945 260.001 53.3199 259.982 53.2642C259.974 53.2364 259.965 53.2129 259.959 53.1943C259.957 53.1851 259.954 53.1766 259.952 53.1697C259.952 53.1716 259.95 53.1663 259.952 53.1697C259.952 53.1657 259.946 53.1522 267.487 50.7947L259.952 53.1697C258.631 49.0662 260.929 44.6666 265.094 43.3645Z" fill="#2B2B2B"/>
</g>
<defs>
<clipPath id="clip0_2189_21082">
<rect width="423" height="442" fill="white"/>
</clipPath>
</defs>
</svg>
