<svg width="786" height="828" viewBox="0 0 786 828" fill="none" xmlns="http://www.w3.org/2000/svg">
<g clip-path="url(#clip0_2189_21102)">
<path d="M166.63 572.02H40.0102C26.181 572.02 14.9702 583.231 14.9702 597.06V787.86C14.9702 801.689 26.181 812.9 40.0102 812.9H166.63C180.459 812.9 191.67 801.689 191.67 787.86V597.06C191.67 583.231 180.459 572.02 166.63 572.02Z" stroke="#2B2B2B" stroke-width="29" stroke-miterlimit="10"/>
<path d="M456.31 420.04H329.69C315.861 420.04 304.65 431.251 304.65 445.08V787.85C304.65 801.679 315.861 812.89 329.69 812.89H456.31C470.139 812.89 481.35 801.679 481.35 787.85V445.08C481.35 431.251 470.139 420.04 456.31 420.04Z" stroke="#2B2B2B" stroke-width="29" stroke-miterlimit="10"/>
<path d="M746 240.57H619.38C605.551 240.57 594.34 251.781 594.34 265.61V787.86C594.34 801.689 605.551 812.9 619.38 812.9H746C759.829 812.9 771.04 801.689 771.04 787.86V265.61C771.04 251.781 759.829 240.57 746 240.57Z" stroke="#2B2B2B" stroke-width="29" stroke-miterlimit="10"/>
<path d="M14.9702 488.38L750.25 33.4702" stroke="#2B2B2B" stroke-width="29" stroke-miterlimit="10" stroke-linecap="round"/>
<path d="M660.79 14.8601L758.86 28.3601" stroke="#2B2B2B" stroke-width="29" stroke-miterlimit="10" stroke-linecap="round"/>
<path d="M758.86 28.3601L728.65 117.42" stroke="#2B2B2B" stroke-width="29" stroke-miterlimit="10" stroke-linecap="round"/>
</g>
<defs>
<clipPath id="clip0_2189_21102">
<rect width="786" height="828" fill="white"/>
</clipPath>
</defs>
</svg>
