<svg width="21" height="22" viewBox="0 0 21 22" fill="none" xmlns="http://www.w3.org/2000/svg">
<path d="M4.90029 16.0762C4.90029 15.9284 4.78047 15.8086 4.63266 15.8086H1.41756C1.26976 15.8086 1.14993 15.9284 1.14993 16.0762V20.921C1.14993 21.0688 1.26976 21.1886 1.41756 21.1886H4.63266C4.78047 21.1886 4.90029 21.0688 4.90029 20.921V16.0762ZM5.63665 20.921C5.63665 21.4754 5.18715 21.9249 4.63266 21.9249H1.41756C0.863075 21.9249 0.413574 21.4754 0.413574 20.921V16.0762C0.413574 15.5217 0.863076 15.0722 1.41756 15.0722H4.63266C5.18715 15.0722 5.63665 15.5217 5.63665 16.0762V20.921Z" fill="#2B2B2B"/>
<path d="M12.2558 12.2172C12.2558 12.0694 12.1359 11.9496 11.9881 11.9496H8.77303C8.62522 11.9496 8.5054 12.0694 8.5054 12.2172V20.9207C8.5054 21.0685 8.62522 21.1883 8.77303 21.1883H11.9881C12.1359 21.1883 12.2558 21.0685 12.2558 20.9207V12.2172ZM12.9921 20.9207C12.9921 21.4752 12.5426 21.9247 11.9881 21.9247H8.77303C8.21854 21.9247 7.76904 21.4752 7.76904 20.9207V12.2172C7.76904 11.6627 8.21854 11.2132 8.77303 11.2132H11.9881C12.5426 11.2132 12.9921 11.6627 12.9921 12.2172V20.9207Z" fill="#2B2B2B"/>
<path d="M19.6115 7.66018C19.6115 7.51237 19.4916 7.39255 19.3438 7.39255H16.1287C15.9809 7.39255 15.8611 7.51237 15.8611 7.66018V20.921C15.8611 21.0688 15.9809 21.1886 16.1287 21.1886H19.3438C19.4916 21.1886 19.6115 21.0688 19.6115 20.921V7.66018ZM20.3478 20.921C20.3478 21.4755 19.8983 21.925 19.3438 21.925H16.1287C15.5743 21.925 15.1248 21.4755 15.1248 20.921V7.66018C15.1248 7.10569 15.5743 6.65619 16.1287 6.65619H19.3438C19.8983 6.65619 20.3478 7.10569 20.3478 7.66018V20.921Z" fill="#2B2B2B"/>
<path d="M19.2581 1.45262C19.431 1.34564 19.6579 1.39909 19.7649 1.57201C19.8719 1.74493 19.8184 1.97185 19.6455 2.07883L0.975519 13.6298C0.802599 13.7367 0.575685 13.6833 0.468702 13.5104C0.361718 13.3374 0.415177 13.1105 0.588097 13.0036L19.2581 1.45262Z" fill="#2B2B2B"/>
<path d="M16.8157 1.24296C16.8435 1.04152 17.0292 0.900712 17.2307 0.928442L19.7209 1.27123C19.9223 1.29896 20.0631 1.48474 20.0354 1.68618C20.0076 1.88761 19.8219 2.02842 19.6204 2.00069L17.1303 1.65791C16.9288 1.63017 16.788 1.4444 16.8157 1.24296Z" fill="#2B2B2B"/>
<path d="M19.3216 1.51767C19.3869 1.32511 19.596 1.22197 19.7886 1.28728C19.9811 1.35261 20.0843 1.56167 20.0189 1.75423L19.2519 4.0156C19.1865 4.20816 18.9775 4.31133 18.7849 4.24601C18.5924 4.18069 18.4892 3.97163 18.5545 3.77907L19.3216 1.51767Z" fill="#2B2B2B"/>
</svg>
