<svg width="331" height="365" viewBox="0 0 331 365" fill="none" xmlns="http://www.w3.org/2000/svg">
<g clip-path="url(#clip0_2189_21089)">
<mask id="mask0_2189_21089" style="mask-type:luminance" maskUnits="userSpaceOnUse" x="0" y="0" width="331" height="365">
<path d="M331 0H0V365H331V0Z" fill="white"/>
</mask>
<g mask="url(#mask0_2189_21089)">
<path d="M84.6968 308.879V254.982C84.6968 251.422 87.6226 248.535 91.2319 248.535C94.8412 248.535 97.7673 251.422 97.7673 254.982V308.879C97.7673 332.737 117.368 352.075 141.549 352.075H259.378C283.559 352.075 303.159 332.737 303.159 308.879V56.1182C303.159 32.26 283.559 12.9214 259.378 12.9213H141.549C117.368 12.9214 97.7673 32.26 97.7673 56.1182V110.014C97.7673 113.576 94.8412 116.462 91.2319 116.462C87.6226 116.462 84.6968 113.576 84.6968 110.014V56.1182C84.6968 25.1377 110.149 0.0254714 141.549 0.0253906H259.378C290.778 0.0254714 316.23 25.1377 316.23 56.1182V308.879C316.23 339.86 290.778 364.972 259.378 364.972H141.549C110.149 364.972 84.6968 339.86 84.6968 308.879Z" fill="#2B2B2B"/>
<path d="M200.46 176.05C204.07 176.05 206.997 178.937 206.997 182.498C206.997 186.06 204.07 188.946 200.46 188.946H21.3047C17.6954 188.946 14.7695 186.06 14.7695 182.498C14.7695 178.937 17.6954 176.05 21.3047 176.05H200.46Z" fill="#2B2B2B"/>
<path d="M53.6127 133.946C55.9161 131.204 60.036 130.824 62.8149 133.097C65.5935 135.37 65.9787 139.435 63.6753 142.176L26.3387 186.614C24.0352 189.355 19.9153 189.736 17.1366 187.462C14.3579 185.19 13.9726 181.125 16.2761 178.384L53.6127 133.946Z" fill="#2B2B2B"/>
<path d="M17.1341 177.534C19.9128 175.261 24.0328 175.641 26.3363 178.382L63.6729 222.82C65.9763 225.563 65.5911 229.627 62.8123 231.9C60.0336 234.172 55.9137 233.793 53.6103 231.05L16.2737 186.614C13.9702 183.871 14.3555 179.806 17.1341 177.534Z" fill="#2B2B2B"/>
</g>
</g>
<defs>
<clipPath id="clip0_2189_21089">
<rect width="331" height="365" fill="white"/>
</clipPath>
</defs>
</svg>
