<svg width="990" height="1080" viewBox="0 0 990 1080" fill="none" xmlns="http://www.w3.org/2000/svg">
<g clip-path="url(#clip0_1432_3522)">
<mask id="mask0_1432_3522" style="mask-type:luminance" maskUnits="userSpaceOnUse" x="0" y="0" width="990" height="1080">
<path d="M990 0H0V1080H990V0Z" fill="white"/>
</mask>
<g mask="url(#mask0_1432_3522)">
<path d="M253.323 913.942V754.467C253.323 743.935 262.074 735.392 272.869 735.392C283.665 735.392 292.416 743.935 292.416 754.467V913.942C292.416 984.538 351.039 1041.76 423.364 1041.76H775.785C848.107 1041.76 906.73 984.538 906.73 913.942V166.048C906.73 95.4544 848.107 38.2333 775.785 38.2331H423.364C351.04 38.2333 292.416 95.4544 292.416 166.048V325.522C292.416 336.059 283.665 344.601 272.869 344.601C262.074 344.601 253.323 336.059 253.323 325.522V166.048C253.323 74.38 329.449 0.0754345 423.364 0.0751953H775.785C869.699 0.0754345 945.825 74.38 945.825 166.048V913.942C945.825 1005.61 869.699 1079.92 775.785 1079.92H423.364C329.449 1079.92 253.323 1005.61 253.323 913.942Z" fill="#2B2B2B"/>
<path d="M599.565 520.915C610.361 520.915 619.115 529.457 619.115 539.995C619.115 550.533 610.361 559.075 599.565 559.075H63.7216C52.9264 559.075 44.1753 550.533 44.1753 539.995C44.1753 529.457 52.9264 520.915 63.7216 520.915H599.565Z" fill="#2B2B2B"/>
<path d="M160.354 396.334C167.243 388.222 179.565 387.097 187.877 393.822C196.187 400.547 197.339 412.574 190.45 420.686L78.7786 552.173C71.8892 560.283 59.5668 561.41 51.2557 554.683C42.9449 547.961 41.7925 535.932 48.6821 527.822L160.354 396.334Z" fill="#2B2B2B"/>
<path d="M51.2477 525.306C59.5584 518.58 71.8813 519.706 78.7706 527.816L190.442 659.304C197.331 667.419 196.179 679.443 187.868 686.17C179.557 692.892 167.235 691.77 160.346 683.655L48.6741 552.173C41.7845 544.057 42.9368 532.028 51.2477 525.306Z" fill="#2B2B2B"/>
</g>
</g>
<defs>
<clipPath id="clip0_1432_3522">
<rect width="990" height="1080" fill="white"/>
</clipPath>
</defs>
</svg>
