<svg width="19" height="21" viewBox="0 0 19 21" fill="none" xmlns="http://www.w3.org/2000/svg">
<g clip-path="url(#clip0_1446_11543)">
<path d="M4.86176 17.7711V14.6702C4.86176 14.4654 5.02971 14.2993 5.23689 14.2993C5.44407 14.2993 5.61203 14.4654 5.61203 14.6702V17.7711C5.61203 19.1438 6.73712 20.2564 8.12517 20.2564H14.8888C16.2768 20.2564 17.4019 19.1438 17.4019 17.7711V3.22872C17.4019 1.85606 16.2768 0.743428 14.8888 0.743424H8.12517C6.73713 0.743428 5.61203 1.85606 5.61203 3.22872V6.3296C5.61203 6.53449 5.44407 6.70058 5.23689 6.70058C5.02971 6.70058 4.86176 6.53449 4.86176 6.3296V3.22872C4.86176 1.44628 6.32276 0.00146949 8.12517 0.00146484H14.8888C16.6912 0.00146949 18.1522 1.44628 18.1522 3.22872V17.7711C18.1522 19.5536 16.6912 20.9984 14.8888 20.9984H8.12517C6.32276 20.9984 4.86176 19.5536 4.86176 17.7711Z" fill="#2B2B2B"/>
<path d="M11.5068 10.1289C11.714 10.1289 11.882 10.295 11.882 10.4999C11.882 10.7048 11.714 10.8709 11.5068 10.8709H1.22294C1.01576 10.8709 0.847809 10.7048 0.847809 10.4999C0.847809 10.295 1.01576 10.1289 1.22294 10.1289H11.5068Z" fill="#2B2B2B"/>
<path d="M3.07749 7.70649C3.20971 7.54876 3.4462 7.52689 3.60571 7.65765C3.76521 7.78841 3.78732 8.02228 3.6551 8.18001L1.51191 10.7367C1.37969 10.8944 1.1432 10.9163 0.983694 10.7855C0.824194 10.6548 0.802077 10.4209 0.934301 10.2632L3.07749 7.70649Z" fill="#2B2B2B"/>
<path d="M0.983542 10.2143C1.14304 10.0835 1.37954 10.1054 1.51176 10.2631L3.65495 12.8198C3.78717 12.9776 3.76506 13.2114 3.60555 13.3422C3.44605 13.4729 3.20956 13.4511 3.07734 13.2933L0.934149 10.7367C0.801925 10.5789 0.82404 10.345 0.983542 10.2143Z" fill="#2B2B2B"/>
</g>
<defs>
<clipPath id="clip0_1446_11543">
<rect width="19" height="21" fill="white"/>
</clipPath>
</defs>
</svg>
