<svg width="19" height="21" viewBox="0 0 19 21" fill="none" xmlns="http://www.w3.org/2000/svg">
<g clip-path="url(#clip0_179_5509)">
<path d="M5.23682 14.6703V17.7712C5.23682 19.3488 6.52987 20.6275 8.12511 20.6275H14.8887C16.4839 20.6275 17.777 19.3488 17.777 17.7712V3.22881C17.777 1.65126 16.4839 0.372528 14.8887 0.372528H8.12511C6.52987 0.372528 5.23682 1.65126 5.23682 3.22881V6.32969" fill="white"/>
<path d="M4.86182 17.7712V14.6703C4.86182 14.4654 5.02977 14.2993 5.23695 14.2993C5.44413 14.2993 5.61209 14.4654 5.61209 14.6703V17.7712C5.61209 19.1439 6.73719 20.2565 8.12523 20.2565H14.8888C16.2769 20.2565 17.402 19.1439 17.402 17.7712V3.22878C17.402 1.85612 16.2769 0.74349 14.8888 0.743485H8.12523C6.73719 0.74349 5.61209 1.85612 5.61209 3.22878V6.32966C5.61209 6.53455 5.44413 6.70064 5.23695 6.70064C5.02977 6.70064 4.86182 6.53455 4.86182 6.32966V3.22878C4.86182 1.44634 6.32282 0.00153052 8.12523 0.00152588H14.8888C16.6912 0.00153052 18.1522 1.44634 18.1522 3.22878V17.7712C18.1522 19.5536 16.6912 20.9984 14.8888 20.9984H8.12523C6.32282 20.9984 4.86182 19.5536 4.86182 17.7712Z" fill="#2B2B2B"/>
<path d="M11.5069 10.129C11.7141 10.129 11.8821 10.2951 11.8821 10.5C11.8821 10.7049 11.7141 10.871 11.5069 10.871H1.22304C1.01585 10.871 0.8479 10.7049 0.8479 10.5C0.8479 10.2951 1.01585 10.129 1.22304 10.129H11.5069Z" fill="#2B2B2B"/>
<path d="M3.07767 7.70655C3.2099 7.54882 3.44639 7.52695 3.60589 7.65771C3.76539 7.78847 3.78751 8.02234 3.65528 8.18007L1.51209 10.7368C1.37987 10.8945 1.14338 10.9164 0.983877 10.7856C0.824377 10.6548 0.80226 10.421 0.934484 10.2632L3.07767 7.70655Z" fill="#2B2B2B"/>
<path d="M0.983634 10.2144C1.14314 10.0837 1.37963 10.1055 1.51185 10.2633L3.65504 12.8199C3.78726 12.9777 3.76515 13.2115 3.60565 13.3423C3.44614 13.4731 3.20965 13.4512 3.07743 13.2935L0.93424 10.7368C0.802017 10.579 0.824131 10.3452 0.983634 10.2144Z" fill="#2B2B2B"/>
</g>
<defs>
<clipPath id="clip0_179_5509">
<rect width="19" height="21" fill="white"/>
</clipPath>
</defs>
</svg>
