<svg width="1033" height="1080" viewBox="0 0 1033 1080" fill="none" xmlns="http://www.w3.org/2000/svg">
<g clip-path="url(#clip0_1432_3531)">
<path fill-rule="evenodd" clip-rule="evenodd" d="M502.821 400.878C492.079 408.863 480.515 415.72 468.286 421.284C444.847 431.949 418.966 437.864 391.76 437.864C285.95 437.864 200.173 348.388 200.173 238.014C200.173 127.641 285.949 38.1644 391.76 38.1644C418.966 38.1645 444.847 44.0798 468.286 54.7447C480.515 60.3087 492.079 67.1657 502.821 75.15C513.562 67.1657 525.126 60.3087 537.356 54.7447C497.847 20.5546 447.105 0.000122615 391.76 0C265.743 0 163.586 106.563 163.586 238.014C163.586 369.466 265.743 476.028 391.76 476.028C447.105 476.028 497.848 455.474 537.356 421.284C525.126 415.72 513.562 408.863 502.821 400.878Z" fill="#2B2B2B"/>
<path d="M746.931 772.611C746.931 653.076 654.287 555.927 539.882 555.094C539.391 555.089 538.895 555.089 538.4 555.089L467.24 555.094L338.421 555.089H245.117C130.031 555.089 36.5865 652.562 36.5865 772.611V1041.84H222.123H258.709H746.931V772.611ZM783.52 1080H0V772.611C0 631.486 109.825 516.924 245.117 516.924H538.4C673.692 516.924 783.52 631.486 783.52 772.611V1080Z" fill="#2B2B2B"/>
<path fill-rule="evenodd" clip-rule="evenodd" d="M613.881 38.1644C719.691 38.1647 805.466 127.641 805.466 238.014C805.466 348.388 719.691 437.863 613.881 437.864C586.677 437.864 560.795 431.949 537.356 421.284C525.125 415.72 513.561 408.863 502.819 400.878C492.078 408.863 480.514 415.72 468.285 421.284C507.793 455.474 558.538 476.028 613.881 476.028C739.896 476.028 842.055 369.466 842.055 238.014C842.055 106.563 739.896 0.000269754 613.881 0C558.538 0 507.793 20.5545 468.285 54.7447C480.514 60.3087 492.078 67.1657 502.819 75.15C513.561 67.1657 525.125 60.3087 537.356 54.7447C560.795 44.0797 586.677 38.1644 613.881 38.1644Z" fill="#2B2B2B"/>
<path fill-rule="evenodd" clip-rule="evenodd" d="M760.525 555.089C875.612 555.089 969.057 652.562 969.057 772.611V1041.84H258.709L222.123 1041.83V1080H1005.64V772.611C1005.64 631.486 895.817 516.924 760.525 516.924H467.24C419.998 516.924 375.861 530.892 338.421 555.084L467.24 555.089L538.399 555.084L539.882 555.089H760.525Z" fill="#2B2B2B"/>
<path d="M502.819 75.149C513.56 67.1647 525.125 60.3077 537.356 54.7432C587.803 98.4019 619.934 164.294 619.934 238.014C619.934 311.733 587.803 377.625 537.356 421.283C525.125 415.719 513.56 408.861 502.819 400.878C551.56 364.646 583.345 305.202 583.345 238.014C583.345 170.825 551.56 111.38 502.819 75.149Z" fill="#2B2B2B"/>
</g>
<defs>
<clipPath id="clip0_1432_3531">
<rect width="1033" height="1080" fill="white"/>
</clipPath>
</defs>
</svg>
