<svg width="22" height="22" viewBox="0 0 22 22" fill="none" xmlns="http://www.w3.org/2000/svg">
<g clip-path="url(#clip0_702_17050)">
<path d="M8.87273 9.52913C11.2238 9.52913 13.1297 7.6232 13.1297 5.27212C13.1297 2.92104 11.2238 1.01511 8.87273 1.01511C6.52165 1.01511 4.61572 2.92104 4.61572 5.27212C4.61572 7.6232 6.52165 9.52913 8.87273 9.52913Z" fill="white"/>
<path d="M12.7589 5.27211C12.7589 3.12595 11.0191 1.38613 8.87294 1.38613C6.72678 1.38613 4.98696 3.12595 4.98696 5.27211C4.98696 7.41826 6.72678 9.15806 8.87294 9.15806C11.0191 9.15806 12.7589 7.41826 12.7589 5.27211ZM13.501 5.27211C13.501 7.8281 11.4289 9.90014 8.87294 9.90015C6.31694 9.90015 4.24488 7.82811 4.24487 5.27211C4.24487 2.7161 6.31693 0.644043 8.87294 0.644043C11.4289 0.644048 13.501 2.71611 13.501 5.27211Z" fill="#2B2B2B"/>
<path d="M5.89853 11.0663H11.8472C14.3864 11.0663 16.4479 13.1277 16.4479 15.6669V21.273H1.29785V15.6669C1.29785 13.1277 3.35931 11.0663 5.89853 11.0663Z" fill="white"/>
<path d="M16.0768 15.6669C16.0768 13.3326 14.1815 11.4373 11.8472 11.4373H5.89848C3.56418 11.4373 1.66884 13.3326 1.66884 15.6669V20.902H16.0768V15.6669ZM16.8189 21.6441H0.926758V15.6669C0.926758 12.9228 3.15434 10.6952 5.89848 10.6952H11.8472C14.5913 10.6952 16.8189 12.9228 16.8189 15.6669V21.6441Z" fill="#2B2B2B"/>
<path d="M13.3783 9.52913C15.7294 9.52913 17.6354 7.6232 17.6354 5.27212C17.6354 2.92104 15.7294 1.01511 13.3783 1.01511C11.0273 1.01511 9.12134 2.92104 9.12134 5.27212C9.12134 7.6232 11.0273 9.52913 13.3783 9.52913Z" fill="white"/>
<path d="M17.264 5.27211C17.264 3.12595 15.5242 1.38613 13.3781 1.38613C11.2319 1.38613 9.49209 3.12595 9.49209 5.27211C9.49209 7.41826 11.2319 9.15806 13.3781 9.15806C15.5242 9.15806 17.264 7.41826 17.264 5.27211ZM18.0061 5.27211C18.0061 7.8281 15.9341 9.90014 13.3781 9.90015C10.8221 9.90015 8.75 7.82811 8.75 5.27211C8.75 2.7161 10.8221 0.644043 13.3781 0.644043C15.9341 0.644048 18.0061 2.71611 18.0061 5.27211Z" fill="#2B2B2B"/>
<path d="M10.4039 11.0663H16.3526C18.8918 11.0663 20.9533 13.1277 20.9533 15.6669V21.273H5.80322V15.6669C5.80322 13.1277 7.86468 11.0663 10.4039 11.0663Z" fill="white"/>
<path d="M20.5822 15.6669C20.5822 13.3326 18.6868 11.4373 16.3525 11.4373H10.4038C8.06956 11.4373 6.17421 13.3326 6.17421 15.6669V20.902H20.5822V15.6669ZM21.3243 21.6441H5.43213V15.6669C5.43213 12.9228 7.65971 10.6952 10.4038 10.6952H16.3525C19.0967 10.6952 21.3243 12.9228 21.3243 15.6669V21.6441Z" fill="#2B2B2B"/>
</g>
<defs>
<clipPath id="clip0_702_17050">
<rect width="22" height="22" fill="white"/>
</clipPath>
</defs>
</svg>
