<svg width="362" height="390" viewBox="0 0 362 390" fill="none" xmlns="http://www.w3.org/2000/svg">
<g clip-path="url(#clip0_2189_21109)">
<path fill-rule="evenodd" clip-rule="evenodd" d="M180.587 144.39C176.73 147.266 172.576 149.736 168.184 151.74C159.766 155.581 150.471 157.712 140.7 157.712C102.699 157.712 71.8918 125.484 71.8918 85.7293C71.8918 45.9742 102.698 13.7462 140.7 13.7462C150.471 13.7463 159.766 15.8769 168.184 19.7182C172.576 21.7223 176.73 24.1921 180.587 27.0679C184.445 24.1921 188.598 21.7223 192.991 19.7182C178.801 7.40347 160.577 4.41643e-05 140.7 0C95.4414 0 58.752 38.3824 58.752 85.7293C58.752 133.076 95.4414 171.458 140.7 171.458C160.577 171.458 178.801 164.055 192.991 151.74C188.598 149.736 184.445 147.266 180.587 144.39Z" fill="#2B2B2B"/>
<path d="M268.259 278.283C268.259 235.228 234.986 200.237 193.898 199.937C193.721 199.935 193.543 199.935 193.365 199.935L167.808 199.937L121.543 199.935H88.0333C46.7004 199.935 13.14 235.043 13.14 278.283V375.255H79.775H92.9149H268.259V278.283ZM281.4 389.002H0V278.283C0 227.452 39.4434 186.188 88.0333 186.188H193.365C241.955 186.188 281.4 227.452 281.4 278.283V389.002Z" fill="#2B2B2B"/>
<path fill-rule="evenodd" clip-rule="evenodd" d="M220.474 13.7462C258.476 13.7464 289.282 45.9742 289.282 85.7293C289.282 125.484 258.476 157.712 220.474 157.712C210.704 157.712 201.408 155.581 192.99 151.74C188.598 149.736 184.444 147.266 180.586 144.39C176.729 147.266 172.575 149.736 168.184 151.74C182.373 164.055 200.598 171.458 220.474 171.458C265.732 171.458 302.422 133.076 302.422 85.7293C302.422 38.3824 265.732 9.71613e-05 220.474 0C200.598 0 182.373 7.40343 168.184 19.7182C172.575 21.7223 176.729 24.1921 180.586 27.0679C184.444 24.1921 188.598 21.7223 192.99 19.7182C201.408 15.8768 210.704 13.7462 220.474 13.7462Z" fill="#2B2B2B"/>
<path fill-rule="evenodd" clip-rule="evenodd" d="M273.141 199.935C314.474 199.935 348.035 235.043 348.035 278.283V375.255H92.9148L79.7749 375.254V389.002H361.174V278.283C361.174 227.452 321.731 186.188 273.141 186.188H167.808C150.841 186.188 134.99 191.22 121.543 199.933L167.808 199.935L193.365 199.933L193.897 199.935H273.141Z" fill="#2B2B2B"/>
<path d="M180.587 27.0677C184.445 24.1918 188.598 21.722 192.991 19.7178C211.109 35.443 222.648 59.1763 222.648 85.729C222.648 112.282 211.109 136.015 192.991 151.74C188.598 149.736 184.445 147.266 180.587 144.39C198.092 131.34 209.508 109.929 209.508 85.729C209.508 61.5288 198.092 40.1177 180.587 27.0677Z" fill="#2B2B2B"/>
</g>
<defs>
<clipPath id="clip0_2189_21109">
<rect width="362" height="390" fill="white"/>
</clipPath>
</defs>
</svg>
