<svg width="16" height="21" viewBox="0 0 16 21" fill="none" xmlns="http://www.w3.org/2000/svg">
<g clip-path="url(#clip0_702_17351)">
<path d="M0.77002 18.2071V3.11226C0.770024 1.75783 1.86818 0.659673 3.22261 0.659668H10.8941V1.3664H3.22261C2.25849 1.3664 1.47676 2.14814 1.47675 3.11226V18.2071C1.47675 19.1712 2.25849 19.9529 3.22261 19.9529H13.0969C14.061 19.9529 14.8427 19.1712 14.8427 18.2071V5.5539H15.5495V18.2071C15.5495 19.5615 14.4513 20.6597 13.0969 20.6597H3.22261C1.86817 20.6597 0.77002 19.5615 0.77002 18.2071Z" fill="#2B2B2B"/>
<path d="M10.7633 0.684783C10.8977 0.631237 11.0512 0.664993 11.1507 0.770007L15.4527 5.31088C15.5498 5.41337 15.5766 5.56384 15.5208 5.69354C15.465 5.82323 15.3374 5.90727 15.1962 5.90728H10.8941C10.699 5.90728 10.5408 5.74907 10.5408 5.55391V1.01304L10.541 0.999523C10.5463 0.860326 10.6332 0.73666 10.7633 0.684783ZM11.2475 5.20055H14.3746L11.2475 1.89981V5.20055Z" fill="#2B2B2B"/>
<path d="M12.1417 8.25534C12.3368 8.25534 12.495 8.41355 12.495 8.60871C12.495 8.80386 12.3368 8.96207 12.1417 8.96207H4.83335C4.63819 8.96207 4.47998 8.80386 4.47998 8.60871C4.47998 8.41355 4.63819 8.25534 4.83335 8.25534H12.1417Z" fill="#2B2B2B"/>
<path d="M12.1417 9.98804C12.3368 9.98804 12.495 10.1462 12.495 10.3414C12.495 10.5366 12.3368 10.6948 12.1417 10.6948H4.83335C4.63819 10.6948 4.47998 10.5366 4.47998 10.3414C4.47998 10.1462 4.63819 9.98804 4.83335 9.98804H12.1417Z" fill="#2B2B2B"/>
<path d="M12.1417 11.7207C12.3368 11.7207 12.495 11.8789 12.495 12.0741C12.495 12.2693 12.3368 12.4275 12.1417 12.4275H4.83335C4.63819 12.4275 4.47998 12.2693 4.47998 12.0741C4.47998 11.8789 4.63819 11.7207 4.83335 11.7207H12.1417Z" fill="#2B2B2B"/>
<path d="M12.1414 13.2541C12.3366 13.2541 12.4948 13.4123 12.4948 13.6075C12.4948 13.8026 12.3366 13.9608 12.1414 13.9609H8.48715C8.292 13.9609 8.13379 13.8026 8.13379 13.6075C8.13379 13.4123 8.292 13.2541 8.48715 13.2541H12.1414Z" fill="#2B2B2B"/>
</g>
<defs>
<clipPath id="clip0_702_17351">
<rect width="16" height="21" fill="white"/>
</clipPath>
</defs>
</svg>
