<svg width="16" height="17" viewBox="0 0 16 17" fill="none" xmlns="http://www.w3.org/2000/svg">
<g clip-path="url(#clip0_702_17826)">
<path d="M15.2798 6.36947C15.4355 6.371 15.5605 6.49847 15.559 6.65417L15.502 12.4572C15.5005 14.6786 13.6991 16.4788 11.4774 16.4788H4.54565C2.323 16.4788 0.52124 14.6771 0.52124 12.4544V5.52267C0.52124 3.30003 2.32298 1.49805 4.54565 1.49805H8.82499C8.9807 1.49805 9.10693 1.62428 9.10693 1.77999C9.10693 1.9357 8.9807 2.06194 8.82499 2.06194H4.54565C2.63444 2.06194 1.08513 3.61142 1.08513 5.52267V12.4544C1.08513 14.3656 2.63442 15.9149 4.54565 15.9149H11.4774C13.3887 15.9149 14.9381 14.3656 14.9381 12.4544V12.4516L14.9951 6.64864C14.9967 6.49294 15.1241 6.36794 15.2798 6.36947Z" fill="#2B2B2B"/>
<path d="M10.5862 1.26921C11.3656 0.366837 12.729 0.266804 13.6314 1.04625L14.8109 2.06474L14.811 2.06476C15.7133 2.84413 15.8133 4.20747 15.0339 5.10994L15.0339 5.10996L8.5397 12.6306L8.53972 12.6306C8.3442 12.8572 8.07117 13.0023 7.77413 13.0379L7.45865 13.0756V13.0755L5.21237 13.3449C4.51087 13.429 3.88896 12.8919 3.8699 12.1857L3.80048 9.60645L3.80019 9.59244C3.79563 9.29835 3.89938 9.01265 4.09171 8.78981L4.09177 8.78975L10.5862 1.26923L10.5862 1.26921ZM13.2629 1.47302C12.5962 0.897209 11.5889 0.970995 11.013 1.63776L4.51856 9.1583L4.51854 9.15828C4.41813 9.27464 4.36334 9.4232 4.36393 9.57628L4.36416 9.59111V9.59119L4.43358 12.1705L4.43428 12.188C4.454 12.5538 4.7792 12.8289 5.14522 12.785L7.72205 12.476C7.8738 12.4542 8.01259 12.3783 8.11283 12.2622L8.11287 12.2622L14.6071 4.74143L14.6071 4.74141C15.183 4.07472 15.1091 3.06741 14.4424 2.49151L13.2629 1.47304L13.2629 1.47302Z" fill="#2B2B2B"/>
<path d="M9.94553 2.07496C10.0938 2.02791 10.2521 2.10982 10.2994 2.25793C10.2994 2.25794 10.2994 2.2581 10.2996 2.25843C10.2998 2.25909 10.3002 2.2604 10.3008 2.26236C10.3021 2.26626 10.3043 2.2727 10.3075 2.28153C10.3137 2.29921 10.3236 2.32645 10.3375 2.36207C10.3654 2.43333 10.4092 2.53795 10.4716 2.66655C10.5965 2.92406 10.7949 3.27583 11.0867 3.64817C11.6693 4.39139 12.6216 5.21402 14.1121 5.54049C14.2642 5.57381 14.3605 5.72412 14.3271 5.87623C14.2938 6.02833 14.1435 6.12463 13.9914 6.09132C12.3447 5.73062 11.2865 4.81713 10.6429 3.99604C10.3217 3.58624 10.103 3.19881 9.96423 2.91266C9.89475 2.76943 9.84503 2.65108 9.8123 2.56735C9.79594 2.52548 9.7838 2.49221 9.77554 2.46876C9.77141 2.45704 9.76826 2.44776 9.76603 2.44108C9.76491 2.43774 9.76403 2.43505 9.76337 2.43303C9.76304 2.43202 9.76277 2.43117 9.76255 2.4305C9.76244 2.43016 9.76235 2.42986 9.76227 2.42961C9.76223 2.42948 9.76218 2.42933 9.76215 2.42927C9.76211 2.42912 9.76207 2.42898 10.0308 2.3437L9.76206 2.42898C9.71496 2.28056 9.79711 2.12205 9.94553 2.07496Z" fill="#2B2B2B"/>
</g>
<defs>
<clipPath id="clip0_702_17826">
<rect width="16" height="17" fill="white"/>
</clipPath>
</defs>
</svg>
