<svg width="17" height="22" viewBox="0 0 17 22" fill="none" xmlns="http://www.w3.org/2000/svg">
<path d="M9.75368 2.68142C9.75367 2.3118 9.60193 1.97775 9.35571 1.73507V1.7351C9.10883 1.49228 8.76963 1.3429 8.39413 1.3429C7.64311 1.3429 7.03437 1.94213 7.03436 2.68142V4.41479H6.28052V2.68142C6.28052 1.5323 7.22677 0.600836 8.39413 0.60083C8.96872 0.60083 9.48983 0.827012 9.87053 1.19264L9.88855 1.21016L9.88878 1.21038C10.2705 1.58641 10.5075 2.10694 10.5075 2.68142V4.41479H9.75368V2.68142Z" fill="#2B2B2B"/>
<path d="M8.39425 3.8933C10.5245 3.88299 12.0254 4.80875 13.0019 5.99024C13.9684 7.15953 14.4237 8.5794 14.4964 9.6002L14.5045 9.71617C14.6694 12.0907 14.6063 13.0852 14.8908 14.4336L14.9049 14.4991L14.9151 14.5458C15.1266 15.4945 15.4686 16.3213 15.8085 16.978L15.8419 17.042V17.042C16.3621 18.0311 15.6262 19.2057 14.5001 19.2057H2.28837C1.16236 19.2057 0.426383 18.0311 0.946592 17.0421C1.30269 16.3648 1.66628 15.4987 1.88364 14.4991V14.4991C2.18907 13.0948 2.11424 12.0977 2.29215 9.6002L2.29583 9.55207C2.37919 8.53509 2.83526 7.14126 3.78666 5.99024C4.76325 4.80876 6.2641 3.883 8.39425 3.8933ZM8.3962 4.63535L8.39425 4.63537L8.39229 4.63535C6.51562 4.62576 5.22174 5.42983 4.37139 6.45858C3.52412 7.48362 3.11961 8.73149 3.04734 9.61052L3.04414 9.6521C2.87587 12.0142 2.93874 13.1475 2.63551 14.5857L2.62079 14.6544C2.38636 15.7326 1.9956 16.6613 1.61606 17.3832L1.61603 17.3832C1.35802 17.8737 1.72214 18.4636 2.28837 18.4636H14.5001C15.0663 18.4636 15.4305 17.8738 15.1725 17.3833L15.1369 17.315C14.7683 16.603 14.3948 15.6986 14.1677 14.6545L14.153 14.5857C13.8546 13.1705 13.9107 12.0503 13.7522 9.76367L13.7444 9.6521C13.6816 8.77115 13.2779 7.49988 12.4172 6.45858C11.5669 5.42984 10.273 4.62576 8.3962 4.63535Z" fill="#2B2B2B"/>
<path d="M6.02808 19.2851C6.02808 19.1011 6.05002 18.9217 6.09154 18.7494L6.82503 18.9206C6.79689 19.0374 6.78192 19.1594 6.78192 19.2851C6.78192 20.1541 7.49777 20.8588 8.3806 20.8588C9.26342 20.8588 9.97927 20.1541 9.97927 19.2851C9.97927 19.1594 9.96431 19.0374 9.93617 18.9206L10.6697 18.7494C10.7112 18.9217 10.7331 19.1011 10.7331 19.2851C10.7331 20.5639 9.67976 21.6008 8.3806 21.6008C7.08143 21.6008 6.02808 20.5639 6.02808 19.2851Z" fill="#2B2B2B"/>
</svg>
