<svg width="587" height="822" viewBox="0 0 587 822" fill="none" xmlns="http://www.w3.org/2000/svg">
<g clip-path="url(#clip0_2189_21098)">
<path d="M226.69 149.77V82.0302C226.69 45.1302 256.6 15.2202 293.5 15.2202C311.95 15.2202 328.64 22.7002 340.74 34.7902C352.82 46.8802 360.3 63.5802 360.3 82.0302V149.77" stroke="#2B2B2B" stroke-width="29" stroke-miterlimit="10"/>
<path d="M293.5 143.89C139.32 143.09 78.4301 279.11 73.2201 353.43C66.5101 449.12 69.2501 490.71 57.2201 546.9C48.5301 587.5 34.02 622.57 19.87 649.91C4.90005 678.82 26.06 713.3 58.61 713.3H528.39C560.94 713.3 582.1 678.82 567.13 649.91C552.97 622.57 538.47 587.49 529.78 546.9C517.75 490.72 520.49 449.12 513.78 353.43C508.57 279.11 447.69 143.09 293.5 143.89Z" stroke="#2B2B2B" stroke-width="29" stroke-miterlimit="10" stroke-linecap="round"/>
<path d="M366.92 713.31C368.26 718.96 368.97 724.85 368.97 730.9C368.97 772.87 334.94 806.9 292.97 806.9C251 806.9 216.97 772.87 216.97 730.9C216.97 724.85 217.68 718.96 219.02 713.31" stroke="#2B2B2B" stroke-width="29" stroke-miterlimit="10"/>
</g>
<defs>
<clipPath id="clip0_2189_21098">
<rect width="587" height="822" fill="white"/>
</clipPath>
</defs>
</svg>
