<svg width="1080" height="1080" viewBox="0 0 1080 1080" fill="none" xmlns="http://www.w3.org/2000/svg">
<path d="M473.69 281.77V214.03C473.69 177.13 503.6 147.22 540.5 147.22C558.95 147.22 575.64 154.7 587.74 166.79C599.82 178.88 607.3 195.58 607.3 214.03V281.77" stroke="#2B2B2B" stroke-width="29" stroke-miterlimit="10"/>
<path d="M540.5 275.89C386.32 275.09 325.43 411.11 320.22 485.43C313.51 581.12 316.25 622.71 304.22 678.9C295.53 719.5 281.02 754.57 266.87 781.91C251.9 810.82 273.06 845.3 305.61 845.3H775.39C807.94 845.3 829.1 810.82 814.13 781.91C799.97 754.57 785.47 719.49 776.78 678.9C764.75 622.72 767.49 581.12 760.78 485.43C755.57 411.11 694.69 275.09 540.5 275.89Z" stroke="#2B2B2B" stroke-width="29" stroke-miterlimit="10" stroke-linecap="round"/>
<path d="M613.92 845.31C615.26 850.96 615.97 856.85 615.97 862.9C615.97 904.87 581.94 938.9 539.97 938.9C498 938.9 463.97 904.87 463.97 862.9C463.97 856.85 464.68 850.96 466.02 845.31" stroke="#2B2B2B" stroke-width="29" stroke-miterlimit="10"/>
</svg>
