<?xml version="1.0" encoding="UTF-8"?>
<svg id="Calque_1" data-name="Calque 1" xmlns="http://www.w3.org/2000/svg" viewBox="0 0 1080 1080">
  <defs>
    <style>
      .cls-1, .cls-2 {
        fill: none;
        stroke: #2b2b2b;
        stroke-miterlimit: 10;
        stroke-width: 29px;
      }

      .cls-2 {
        stroke-linecap: round;
      }
    </style>
  </defs>
  <path class="cls-1" d="M473.69,281.77v-67.74c0-36.9,29.91-66.81,66.81-66.81,18.45,0,35.14,7.48,47.24,19.57,12.08,12.09,19.56,28.79,19.56,47.24v67.74"/>
  <path class="cls-2" d="M540.5,275.89c-154.18-.8-215.07,135.22-220.28,209.54-6.71,95.69-3.97,137.28-16,193.47-8.69,40.6-23.2,75.67-37.35,103.01-14.97,28.91,6.19,63.39,38.74,63.39h469.78c32.55,0,53.71-34.48,38.74-63.39-14.16-27.34-28.66-62.42-37.35-103.01-12.03-56.18-9.29-97.78-16-193.47-5.21-74.32-66.09-210.34-220.28-209.54"/>
  <path class="cls-1" d="M613.92,845.31c1.34,5.65,2.05,11.54,2.05,17.59,0,41.97-34.03,76-76,76s-76-34.03-76-76c0-6.05,.71-11.94,2.05-17.59"/>
</svg>