<svg width="1188" height="1080" viewBox="0 0 1188 1080" fill="none" xmlns="http://www.w3.org/2000/svg">
<path d="M136.3 650.561C141.221 647.64 147.182 647.146 152.504 649.219L651.158 843.552C656.949 845.81 661.267 850.824 662.703 856.954C664.133 863.085 662.496 869.539 658.328 874.203C619.501 917.594 611.247 962.342 612.388 996.274C612.967 1013.4 615.957 1027.84 618.783 1037.93C620.193 1042.97 621.546 1046.87 622.512 1049.44C622.992 1050.72 623.38 1051.66 623.617 1052.24C623.741 1052.53 623.824 1052.72 623.871 1052.83C623.891 1052.88 623.901 1052.9 623.907 1052.91L623.871 1052.83C627.119 1059.91 625.792 1068.33 620.508 1074.01C615.219 1079.7 607.047 1081.53 599.894 1078.63L108.078 879.089C104.414 877.603 101.304 874.98 99.1893 871.596C77.6544 837.149 68.2408 805.711 67.2166 777.538C66.1918 749.34 73.6183 725.652 83.8785 706.814C94.0633 688.114 107.014 674.203 117.278 665.023C122.44 660.404 127.015 656.897 130.373 654.506C132.054 653.302 133.439 652.377 134.451 651.723C134.956 651.394 135.37 651.132 135.682 650.942C135.836 650.844 135.966 650.762 136.069 650.7C136.121 650.669 136.167 650.643 136.205 650.618C136.224 650.607 136.284 650.571 136.3 650.561C136.296 650.561 136.308 650.556 136.3 650.561C136.31 650.556 136.299 650.561 145.122 665.897L136.3 650.561ZM148.316 688.464C146.481 689.894 144.374 691.632 142.099 693.663C134.059 700.858 124.276 711.458 116.744 725.292C109.287 738.982 104.014 755.856 104.751 776.129C105.446 795.25 111.526 818.491 127.762 845.979L578.163 1028.72C576.516 1019.55 575.24 1009.06 574.853 997.58C573.628 961.277 581.335 915.223 613.556 869.77L148.316 688.464Z" fill="#2B2B2B"/>
<path d="M983.406 686.062C989.211 683.413 995.947 683.938 1001.29 687.456C1006.64 690.973 1009.87 697.001 1009.87 703.476C1009.87 707.996 1008.29 712.383 1005.4 715.829C1005.4 715.829 1005.39 715.849 1005.36 715.885C1005.3 715.957 1005.19 716.101 1005.02 716.317C1004.67 716.755 1004.12 717.475 1003.4 718.462C1001.96 720.442 999.857 723.487 997.45 727.472C992.62 735.485 986.665 747.118 982.238 761.461C973.494 789.814 970.611 828.874 994.909 872.856C997.46 877.469 998.008 882.951 996.427 887.991C994.847 893.031 991.278 897.181 986.567 899.444L614.883 1078.15C609.909 1080.54 604.15 1080.6 599.134 1078.3C594.114 1076 590.343 1071.59 588.809 1066.21L606.851 1060.91L591.066 1065.55C588.809 1066.21 588.809 1066.21 588.809 1066.21C588.809 1066.22 588.804 1066.21 588.809 1066.21C588.804 1066.2 588.793 1066.16 588.788 1066.14C588.783 1066.11 588.768 1066.07 588.757 1066.02C588.731 1065.92 588.695 1065.8 588.649 1065.64C588.561 1065.32 588.442 1064.87 588.298 1064.31C588.003 1063.18 587.595 1061.58 587.12 1059.55C586.164 1055.49 584.909 1049.71 583.664 1042.59C581.18 1028.39 578.675 1008.63 578.675 986.518C578.675 942.953 588.447 886.284 631.969 847.085L632.512 846.617C633.798 845.542 635.218 844.647 636.742 843.953L983.406 686.062ZM654.851 877.525C624.872 906.001 616.236 948.085 616.236 986.518C616.236 1004.56 618.158 1020.98 620.213 1033.37L953.194 873.267C932.673 825.526 936.459 782.264 946.397 750.049C947.053 747.92 947.74 745.837 948.442 743.806L654.851 877.525Z" fill="#2B2B2B"/>
<path fill-rule="evenodd" clip-rule="evenodd" d="M642.744 606.914L589.852 589.196L640.694 566.038L693.585 583.755L642.744 606.914ZM811.667 663.49L939.212 706.207L643.855 840.728L556.748 807.279C559.997 814.366 558.67 822.785 553.386 828.468C548.097 834.156 539.925 835.987 532.772 833.086L127.048 668.474C127.583 675.787 132.222 682.205 139.052 684.869L637.693 879.197C642.357 881.018 647.543 880.874 652.098 878.796L998.772 720.905C1005.85 717.686 1010.24 710.377 1009.85 702.509C1009.45 694.645 1004.33 687.836 996.97 685.368L860.928 639.802L811.667 663.49Z" fill="#2B2B2B"/>
<path fill-rule="evenodd" clip-rule="evenodd" d="M72.3914 403.495L277.316 329.827L330.219 351.291L132.951 422.206L438.889 541.435L492.923 562.489L576.748 595.157L589.852 589.191L640.693 566.033L757.045 513.04C757.453 514.681 757.866 516.235 758.274 517.695C759.685 522.725 761.038 526.633 762.004 529.2C762.484 530.48 762.866 531.427 763.109 532.003L763.362 532.589C766.523 539.496 765.346 547.663 760.392 553.335L584.992 633.23C580.431 635.302 575.25 635.446 570.586 633.631L71.9312 439.3C64.5862 436.438 59.7743 429.227 59.8771 421.235C59.9799 413.242 64.9752 406.161 72.3914 403.495Z" fill="#2B2B2B"/>
<path d="M69.1778 404.997C74.0987 402.074 80.0598 401.58 85.3816 403.654L438.89 541.42L492.923 562.48L584.036 597.986C589.826 600.244 594.145 605.258 595.581 611.388C597.011 617.518 595.379 623.973 591.206 628.637C552.379 672.028 544.125 716.77 545.266 750.708C545.845 767.834 548.835 782.275 551.661 792.365C553.071 797.4 554.424 801.304 555.39 803.87C555.87 805.156 556.258 806.097 556.495 806.673C556.619 806.961 556.702 807.156 556.748 807.259C556.769 807.31 556.748 807.254 556.748 807.259C559.997 814.346 558.67 822.765 553.386 828.448C548.097 834.136 539.925 835.966 532.771 833.066L127.048 668.453L40.9553 633.523C37.2921 632.037 34.1822 629.414 32.0673 626.03C10.5325 591.583 1.11858 560.145 0.0945073 531.972C-0.930406 503.774 6.49645 480.087 16.7563 461.248C26.9411 442.546 39.8915 428.638 50.1558 419.456C55.3184 414.837 59.8933 411.333 63.2507 408.938C64.9325 407.738 66.3173 406.81 67.3286 406.155C67.8348 405.827 68.248 405.566 68.5595 405.374C68.7144 405.277 69.0745 405.06 69.1778 404.997C69.2294 404.966 69.1395 405.02 69.1778 404.997C69.1876 404.991 69.1767 404.997 77.9999 420.332L69.1778 404.997ZM81.1936 442.896C79.3589 444.33 77.252 446.064 74.9773 448.099C66.9376 455.292 57.1542 465.893 49.622 479.724C42.1654 493.416 36.8918 510.288 37.6288 530.563C38.3237 549.684 44.4038 572.925 60.6402 600.413L511.042 783.154C509.394 773.98 508.117 763.493 507.73 752.014C506.505 715.711 514.215 669.657 546.433 624.204L81.1936 442.896Z" fill="#2B2B2B"/>
<path fill-rule="evenodd" clip-rule="evenodd" d="M934.171 441.89C928.83 438.373 922.095 437.848 916.284 440.495L811.347 488.29L759.706 513.119L759.504 511.901L569.62 598.387C568.102 599.081 566.676 599.976 565.39 601.046L564.848 601.519C521.326 640.718 511.557 697.382 511.557 740.952C511.557 763.066 514.059 782.82 516.543 797.019C517.793 804.142 519.043 809.928 519.998 813.986C520.287 815.21 520.551 816.284 520.778 817.184C520.928 817.776 521.057 818.295 521.176 818.743L521.532 820.07L521.692 820.646C523.221 826.02 526.997 830.438 532.012 832.736C537.033 835.035 542.787 834.979 547.766 832.587L919.45 653.878C924.156 651.615 927.725 647.465 929.306 642.425C930.891 637.385 930.339 631.903 927.792 627.29C903.49 583.308 906.372 544.248 915.122 515.895C919.543 501.552 925.499 489.917 930.333 481.908C932.74 477.919 934.837 474.875 936.279 472.895C937.002 471.907 937.554 471.187 937.895 470.753L938.288 470.265C941.165 466.817 942.745 462.43 942.745 457.907C942.745 451.437 939.517 445.407 934.171 441.89ZM539.729 815.343L521.692 820.646C521.754 820.63 521.94 820.568 522.193 820.496C522.524 820.399 523.061 820.239 523.944 819.977L539.729 815.343ZM549.12 740.952C549.12 702.519 557.751 660.435 587.735 631.959L642.744 606.903L693.586 583.745L881.321 498.238C880.618 500.27 879.936 502.352 879.275 504.483C869.343 536.698 865.556 579.96 886.078 627.701L860.928 639.792L811.668 663.48L553.092 787.803C551.036 775.414 549.12 758.998 549.12 740.952Z" fill="#2B2B2B"/>
<path d="M634.976 0.844123C638.694 -0.317987 642.677 -0.280888 646.38 0.959786L1136.46 165.114C1143.82 167.58 1148.94 174.39 1149.34 182.255C1149.74 190.121 1145.34 197.428 1138.26 200.65L791.606 358.54C787.045 360.616 781.859 360.763 777.195 358.945L278.543 164.613C271.198 161.751 266.386 154.54 266.489 146.548C266.592 138.555 271.587 131.476 279.003 128.809L634.237 1.09215L634.976 0.844123ZM339.56 147.518L783.357 320.472L1078.71 185.951L640.719 39.244L339.56 147.518Z" fill="#2B2B2B"/>
<path d="M275.79 130.326C280.71 127.404 286.672 126.909 291.993 128.983L790.645 323.314C796.435 325.571 800.758 330.587 802.189 336.718C803.625 342.849 801.988 349.303 797.814 353.966C787.845 365.111 779.886 376.347 773.589 387.465C766.828 399.405 761.978 411.211 758.595 422.626C752.861 441.962 751.343 460.179 751.88 476.036C752.376 490.68 754.633 503.362 757.045 513.04C757.453 514.682 757.866 516.235 758.275 517.695C759.679 522.725 761.038 526.634 761.999 529.2C762.484 530.481 762.866 531.427 763.109 532.003C763.228 532.291 763.316 532.486 763.357 532.589C766.523 539.496 765.346 547.663 760.392 553.335C760.263 553.485 760.134 553.634 760 553.778C754.705 559.466 746.534 561.297 739.38 558.391L247.567 358.851C243.904 357.364 240.794 354.744 238.679 351.361C217.144 316.911 207.731 285.474 206.706 257.302C205.682 229.103 213.108 205.417 223.368 186.577C233.553 167.875 246.503 153.967 256.768 144.785C261.93 140.167 266.505 136.662 269.862 134.266C271.544 133.067 272.929 132.14 273.94 131.484C274.447 131.156 274.86 130.895 275.171 130.703C275.326 130.606 275.686 130.389 275.79 130.326C275.79 130.326 275.788 130.326 284.612 145.661L275.79 130.326ZM287.806 168.225C285.971 169.659 283.864 171.393 281.589 173.428C273.549 180.621 263.766 191.222 256.234 205.053C248.777 218.745 243.504 235.617 244.24 255.893C244.936 275.011 251.016 298.255 267.252 325.744L277.315 329.827L330.219 351.291L717.655 508.484C716.008 499.308 714.732 488.824 714.344 477.343C713.673 457.476 715.677 434.687 722.913 410.675C726.4 399.107 731.095 387.255 737.293 375.309C741.741 366.742 746.958 358.128 753.047 349.534L287.806 168.225Z" fill="#2B2B2B"/>
<path d="M1122.89 165.823C1128.7 163.177 1135.44 163.703 1140.78 167.219C1146.13 170.736 1149.36 176.766 1149.36 183.236C1149.36 187.759 1147.77 192.147 1144.9 195.594C1144.9 195.594 1144.67 195.865 1144.5 196.082C1144.16 196.517 1143.61 197.236 1142.89 198.224C1141.45 200.204 1139.35 203.248 1136.94 207.237C1132.11 215.246 1126.16 226.882 1121.73 241.225C1112.99 269.579 1110.1 308.639 1134.4 352.618C1136.95 357.232 1137.5 362.714 1135.92 367.755C1134.34 372.796 1130.76 376.944 1126.06 379.208L754.375 557.917C749.401 560.309 743.641 560.365 738.626 558.067C733.605 555.768 729.835 551.35 728.301 545.976L746.343 540.668L730.558 545.307C728.301 545.971 728.301 545.976 728.301 545.976C728.301 545.976 728.187 545.559 728.141 545.4C728.053 545.081 727.934 544.633 727.789 544.073C727.495 542.947 727.087 541.342 726.612 539.316C725.656 535.258 724.401 529.472 723.156 522.349C720.672 508.15 718.167 488.397 718.167 466.278C718.167 422.713 727.939 366.045 771.456 326.847L772.004 326.377C773.29 325.303 774.71 324.409 776.234 323.716L1122.89 165.823ZM794.348 357.286C764.364 385.763 755.728 427.846 755.728 466.278C755.728 483.74 757.525 499.677 759.504 511.915C759.571 512.325 759.638 512.731 759.705 513.133L811.342 488.304L1092.69 353.031C1072.16 305.291 1075.95 262.026 1085.89 229.812C1086.54 227.681 1087.23 225.599 1087.93 223.567L794.348 357.286Z" fill="#2B2B2B"/>
</svg>
