<svg width="23" height="22" viewBox="0 0 23 22" fill="none" xmlns="http://www.w3.org/2000/svg">
<g clip-path="url(#clip0_702_15977)">
<path d="M9.82007 11.131L19.3081 14.3227L12.5964 17.3928L2.94263 13.6141L9.82007 11.131Z" fill="white"/>
<path d="M9.71293 10.7764C9.78486 10.7538 9.86203 10.7545 9.93373 10.7786L19.4218 13.9703C19.5643 14.0182 19.6633 14.1506 19.6711 14.3035C19.6788 14.4565 19.5936 14.5986 19.4567 14.6612L12.745 17.7313C12.6567 17.7717 12.5563 17.7745 12.466 17.7392L2.81226 13.9605C2.67005 13.9049 2.57689 13.7646 2.57889 13.6092C2.58089 13.4538 2.67759 13.3161 2.82117 13.2643L9.69863 10.7812L9.71293 10.7764ZM3.99362 13.6281L12.5854 16.9911L18.3036 14.3754L9.82405 11.5231L3.99362 13.6281Z" fill="#2B2B2B"/>
<path d="M2.94265 13.6141C2.94265 13.6141 0.793688 14.8961 2.34761 17.3928L11.8693 21.2727C11.8693 21.2727 10.9435 19.2484 12.5967 17.3928L2.94265 13.6141Z" fill="white"/>
<path d="M2.75898 13.2938C2.85425 13.237 2.96966 13.2274 3.07269 13.2677L12.7267 17.0463C12.8388 17.0902 12.9225 17.1878 12.9503 17.307C12.978 17.4262 12.9463 17.5517 12.8656 17.6423C12.1139 18.4861 11.954 19.3561 11.9762 20.0159C11.9874 20.3489 12.0453 20.6297 12.1 20.826C12.1273 20.9238 12.1535 20.9998 12.1722 21.0497C12.1815 21.0746 12.1889 21.0929 12.1936 21.1042C12.196 21.1098 12.1976 21.1136 12.1985 21.1156C12.1989 21.1165 12.1991 21.117 12.1992 21.1171C12.1991 21.1171 12.1991 21.117 12.199 21.1168C12.199 21.1167 12.1989 21.1166 12.1988 21.1164L12.1987 21.1162C12.2616 21.254 12.2357 21.417 12.1334 21.5275C12.031 21.6382 11.8727 21.6738 11.7343 21.6173L2.21258 17.7373C2.14166 17.7084 2.08145 17.6575 2.04051 17.5917C1.62359 16.9218 1.44133 16.3106 1.42151 15.7628C1.40166 15.2145 1.54545 14.7539 1.74408 14.3876C1.94126 14.0239 2.19199 13.7535 2.39071 13.5749C2.49066 13.4851 2.57923 13.417 2.64423 13.3704C2.67678 13.3471 2.7036 13.3291 2.72318 13.3163C2.73297 13.3099 2.74098 13.3049 2.747 13.3011C2.75001 13.2992 2.75252 13.2977 2.75452 13.2965C2.75552 13.2959 2.7564 13.2953 2.75714 13.2949C2.75751 13.2947 2.75784 13.2944 2.75815 13.2943C2.7583 13.2942 2.75851 13.2941 2.75859 13.294C2.75878 13.2939 2.75896 13.2938 2.92978 13.592L2.75898 13.2938ZM2.99161 14.0307C2.95609 14.0586 2.9153 14.0923 2.87126 14.1319C2.7156 14.2717 2.5262 14.4779 2.38037 14.7468C2.23601 15.0131 2.13391 15.3411 2.14818 15.7354C2.16164 16.1071 2.27935 16.5591 2.59369 17.0936L11.3136 20.6469C11.2817 20.4684 11.257 20.2646 11.2495 20.0413C11.2258 19.3355 11.375 18.4399 11.9988 17.5562L2.99161 14.0307Z" fill="#2B2B2B"/>
<path d="M19.308 14.3227C19.308 14.3227 18.0071 15.8746 19.065 17.7976L11.8691 21.2725C11.8691 21.2725 11.1417 18.7085 12.5966 17.3925L19.308 14.3224V14.3227Z" fill="white"/>
<path d="M19.1593 13.9838C19.2718 13.9324 19.4022 13.9426 19.5057 14.011C19.6092 14.0793 19.6717 14.1966 19.6717 14.3224V14.3226C19.6717 14.4106 19.641 14.4956 19.5853 14.5627C19.5853 14.5627 19.585 14.563 19.5845 14.5637C19.5833 14.5651 19.581 14.568 19.5777 14.5722C19.5711 14.5806 19.5604 14.5946 19.5465 14.6138C19.5186 14.6523 19.4779 14.7115 19.4313 14.7891C19.3378 14.9448 19.2225 15.1711 19.1368 15.45C18.9675 16.0013 18.9117 16.7608 19.3821 17.6159C19.4315 17.7056 19.4421 17.8122 19.4115 17.9103C19.3809 18.0083 19.3117 18.0889 19.2206 18.133L12.0247 21.6079C11.9284 21.6544 11.8169 21.6554 11.7198 21.6107C11.6226 21.5661 11.5496 21.4801 11.5199 21.3757L11.8692 21.2725L11.5636 21.3627C11.5199 21.3755 11.5199 21.3755 11.5199 21.3754C11.5198 21.3753 11.5198 21.3752 11.5198 21.3751C11.5197 21.3748 11.5196 21.3746 11.5195 21.3743C11.5194 21.3736 11.5191 21.3728 11.5189 21.3719C11.5184 21.37 11.5177 21.3675 11.5168 21.3644C11.5151 21.3582 11.5128 21.3496 11.51 21.3386C11.5043 21.3168 11.4964 21.2856 11.4872 21.2461C11.4687 21.1672 11.4444 21.0547 11.4203 20.9163C11.3722 20.6402 11.3237 20.2561 11.3237 19.826C11.3237 18.9789 11.5129 17.877 12.3554 17.1148L12.366 17.1057C12.3909 17.0848 12.4184 17.0674 12.4479 17.0539L19.1593 13.9838ZM12.2186 21.1698C12.2186 21.1697 12.2186 21.1697 12.2185 21.1697L12.2185 21.1695C12.2185 21.1697 12.2186 21.1697 12.2186 21.1698ZM12.7985 17.7067C12.2181 18.2605 12.0509 19.0787 12.0509 19.826C12.0509 20.1769 12.0881 20.4961 12.1279 20.7371L18.5745 17.624C18.1772 16.6957 18.2505 15.8544 18.4429 15.228C18.4556 15.1866 18.4689 15.1461 18.4825 15.1066L12.7985 17.7067Z" fill="#2B2B2B"/>
<path d="M8.52051 6.3562L18.0086 9.54786L11.2971 12.618L1.64307 8.83931L8.52051 6.3562Z" fill="white"/>
<path d="M8.41361 6.00156C8.48554 5.97897 8.56271 5.97966 8.63442 6.00379L18.1225 9.19545C18.265 9.2434 18.364 9.37578 18.3717 9.52873C18.3795 9.68168 18.2943 9.82375 18.1574 9.88639L11.4459 12.9565C11.3577 12.9969 11.2573 12.9997 11.167 12.9644L1.51294 9.18571C1.37074 9.13005 1.27758 8.98985 1.27957 8.83444C1.28157 8.67903 1.37827 8.54134 1.52185 8.48949L8.39931 6.00639L8.41361 6.00156ZM2.6943 8.85333L11.2863 12.2163L17.0043 9.60065L8.52474 6.74825L2.6943 8.85333Z" fill="#2B2B2B"/>
<path d="M1.64309 8.83926C1.64309 8.83926 -0.505872 10.1212 1.04805 12.6179L10.5697 16.4979C10.5697 16.4979 9.64392 14.4736 11.2971 12.6179L1.64309 8.83926Z" fill="white"/>
<path d="M1.45966 8.51898C1.55493 8.46215 1.67034 8.45254 1.77338 8.49287L11.4274 12.2715C11.5395 12.3154 11.6232 12.4129 11.6509 12.5322C11.6787 12.6514 11.647 12.7769 11.5662 12.8675C10.8146 13.7113 10.6547 14.5813 10.6769 15.2411C10.6881 15.5741 10.746 15.8549 10.8007 16.0511C10.8279 16.149 10.8542 16.225 10.8728 16.2749C10.8822 16.2998 10.8896 16.3181 10.8943 16.3293C10.8966 16.335 10.8983 16.3388 10.8991 16.3407C10.8996 16.3417 10.8998 16.3422 10.8998 16.3423C10.8998 16.3423 10.8998 16.3422 10.8997 16.342C10.8996 16.3419 10.8996 16.3418 10.8995 16.3416L10.8994 16.3413C10.9623 16.4792 10.9364 16.6422 10.8341 16.7527C10.7316 16.8633 10.5734 16.8989 10.4349 16.8425L0.913268 12.9625C0.842347 12.9336 0.782137 12.8827 0.741192 12.8169C0.324275 12.147 0.142017 11.5357 0.122191 10.9879C0.102348 10.4396 0.246134 9.97908 0.444768 9.61274C0.641948 9.24909 0.892673 8.97868 1.09139 8.80013C1.19134 8.71033 1.27992 8.64217 1.34491 8.5956C1.37747 8.57227 1.40428 8.55424 1.42386 8.5415C1.43366 8.53512 1.44166 8.53005 1.44769 8.5263C1.4507 8.52443 1.4532 8.52288 1.45521 8.52166C1.4562 8.52105 1.45709 8.52053 1.45783 8.52008C1.45819 8.51986 1.45853 8.51964 1.45883 8.51946C1.45898 8.51937 1.45919 8.51925 1.45927 8.51921C1.45946 8.51909 1.45964 8.51898 1.63046 8.81715L1.45966 8.51898ZM1.6923 9.2559C1.65677 9.28378 1.61598 9.31751 1.57194 9.35708C1.41629 9.49693 1.22688 9.70307 1.08106 9.97201C0.936695 10.2382 0.834597 10.5663 0.848865 10.9606C0.862319 11.3323 0.98003 11.7843 1.29437 12.3188L10.0143 15.8721C9.98237 15.6936 9.95765 15.4898 9.95015 15.2665C9.92644 14.5607 10.0757 13.6651 10.6995 12.7814L1.6923 9.2559Z" fill="#2B2B2B"/>
<path d="M18.0087 9.54786C18.0087 9.54786 16.7078 11.0998 17.7657 13.0228L10.5698 16.4977C10.5698 16.4977 9.84236 13.9337 11.2972 12.6177L18.0087 9.54761V9.54786Z" fill="white"/>
<path d="M17.8598 9.209C17.9723 9.15755 18.1027 9.16776 18.2061 9.23614C18.3096 9.30453 18.3721 9.42177 18.3721 9.54758V9.54783C18.3721 9.63577 18.3415 9.72084 18.2857 9.78787C18.2857 9.78787 18.2855 9.78823 18.2849 9.78892C18.2838 9.79033 18.2815 9.79315 18.2782 9.79737C18.2716 9.80581 18.2609 9.8198 18.2469 9.83902C18.219 9.87751 18.1784 9.9367 18.1318 10.0143C18.0382 10.17 17.9229 10.3962 17.8373 10.6751C17.6679 11.2265 17.6121 11.986 18.0826 12.8411C18.1319 12.9308 18.1426 13.0374 18.1119 13.1354C18.0813 13.2335 18.0122 13.3141 17.9211 13.3581L10.7252 16.8331C10.6288 16.8796 10.5174 16.8806 10.4202 16.8359C10.3231 16.7912 10.25 16.7053 10.2204 16.6009L10.5696 16.4977L10.264 16.5879C10.2203 16.6007 10.2203 16.6007 10.2203 16.6006C10.2203 16.6005 10.2203 16.6004 10.2202 16.6003C10.2202 16.6 10.2201 16.5997 10.22 16.5994C10.2198 16.5988 10.2196 16.598 10.2193 16.5971C10.2188 16.5952 10.2181 16.5927 10.2173 16.5896C10.2156 16.5834 10.2132 16.5748 10.2104 16.5638C10.2047 16.5419 10.1969 16.5108 10.1876 16.4713C10.1691 16.3924 10.1449 16.2799 10.1207 16.1414C10.0726 15.8654 10.0242 15.4813 10.0242 15.0512C10.0242 14.2041 10.2133 13.1022 11.0559 12.34L11.0664 12.3309C11.0913 12.31 11.1189 12.2926 11.1483 12.2791L17.8598 9.209ZM10.919 16.395C10.919 16.3949 10.919 16.3949 10.919 16.3948L10.9189 16.3947C10.919 16.3948 10.919 16.3949 10.919 16.395ZM11.499 12.9319C10.9185 13.4856 10.7514 14.3039 10.7514 15.0512C10.7514 15.4021 10.7885 15.7213 10.8283 15.9622L17.275 12.8491C16.8777 11.9209 16.951 11.0796 17.1433 10.4532C17.1561 10.4118 17.1693 10.3713 17.1829 10.3318L11.499 12.9319Z" fill="#2B2B2B"/>
<path d="M12.3843 1.0148L21.8723 4.20671L15.1609 7.27682L5.50684 3.49817L12.3843 1.0148Z" fill="white"/>
<path d="M12.2771 0.660212C12.3491 0.637616 12.4262 0.638337 12.4979 0.662461L21.986 3.85435C22.1285 3.9023 22.2276 4.03471 22.2353 4.18765C22.243 4.3406 22.1578 4.48267 22.0209 4.54532L15.3095 7.61541C15.2212 7.65578 15.1208 7.65863 15.0305 7.62328L5.37647 3.84461C5.23426 3.78895 5.14111 3.64875 5.1431 3.49334C5.14509 3.33793 5.2418 3.20027 5.38538 3.14842L12.2628 0.665035L12.2771 0.660212ZM6.55778 3.51221L15.1498 6.8752L20.8679 4.25952L12.3883 1.40688L6.55778 3.51221Z" fill="#2B2B2B"/>
<path d="M5.50686 3.4982C5.50686 3.4982 3.3579 4.78018 4.91182 7.27685L14.4335 11.1568C14.4335 11.1568 13.5077 9.13253 15.1609 7.27685L5.50686 3.4982Z" fill="white"/>
<path d="M5.32319 3.17789C5.41846 3.12106 5.53387 3.11145 5.6369 3.15177L15.2909 6.93043C15.4031 6.97431 15.4867 7.07185 15.5145 7.19106C15.5422 7.31027 15.5105 7.43577 15.4298 7.52643C14.6781 8.37016 14.5183 9.2402 14.5404 9.90002C14.5516 10.233 14.6095 10.5138 14.6642 10.7101C14.6915 10.8079 14.7177 10.8839 14.7364 10.9338C14.7457 10.9587 14.7531 10.977 14.7578 10.9883C14.7602 10.9939 14.7618 10.9977 14.7627 10.9996C14.7631 11.0006 14.7633 11.0011 14.7634 11.0012C14.7633 11.0012 14.7633 11.0011 14.7632 11.0009C14.7632 11.0008 14.7631 11.0007 14.763 11.0005L14.7629 11.0002C14.8258 11.1381 14.7999 11.3011 14.6976 11.4116C14.5952 11.5223 14.437 11.5578 14.2985 11.5014L4.77679 7.62142C4.70587 7.59251 4.64566 7.54156 4.60472 7.47578C4.1878 6.80593 4.00554 6.19465 3.98572 5.64685C3.96587 5.09855 4.10966 4.63798 4.30829 4.27165C4.50547 3.908 4.7562 3.63758 4.95492 3.45904C5.05487 3.36923 5.14344 3.30108 5.20844 3.2545C5.24099 3.23118 5.26781 3.21315 5.28739 3.2004C5.29718 3.19403 5.30519 3.18896 5.31121 3.18521C5.31422 3.18334 5.31673 3.18178 5.31873 3.18056C5.31973 3.17995 5.32061 3.17943 5.32135 3.17899C5.32172 3.17877 5.32205 3.17854 5.32236 3.17836C5.32251 3.17827 5.32272 3.17816 5.3228 3.17811C5.32299 3.178 5.32317 3.17789 5.49399 3.47605L5.32319 3.17789ZM5.55582 3.91481C5.5203 3.94268 5.47951 3.97642 5.43546 4.01599C5.27981 4.15584 5.0904 4.36198 4.94458 4.63091C4.80022 4.89715 4.69812 5.22521 4.71239 5.61947C4.72584 5.99121 4.84356 6.44317 5.1579 6.97768L13.8778 10.531C13.8459 10.3525 13.8212 10.1487 13.8137 9.92543C13.79 9.21958 13.9392 8.324 14.563 7.44027L5.55582 3.91481Z" fill="#2B2B2B"/>
<path d="M21.8722 4.20674C21.8722 4.20674 20.5713 5.75868 21.6292 7.68166L14.4333 11.1566C14.4333 11.1566 13.7059 8.59261 15.1608 7.27659L21.8722 4.20648V4.20674Z" fill="white"/>
<path d="M21.7236 3.86791C21.836 3.81645 21.9664 3.82667 22.0699 3.89505C22.1734 3.96343 22.2359 4.08067 22.2359 4.20648V4.20673C22.2359 4.29468 22.2053 4.37974 22.1495 4.44677C22.1495 4.44677 22.1492 4.44714 22.1487 4.44782C22.1475 4.44923 22.1453 4.45205 22.142 4.45627C22.1353 4.46472 22.1246 4.47871 22.1107 4.49793C22.0828 4.53642 22.0421 4.59561 21.9955 4.67317C21.902 4.82891 21.7867 5.05515 21.701 5.33405C21.5317 5.88536 21.4759 6.64487 21.9463 7.50003C21.9957 7.58974 22.0063 7.69633 21.9757 7.79435C21.9451 7.89237 21.876 7.97304 21.7848 8.01705L14.5889 11.492C14.4926 11.5385 14.3811 11.5395 14.284 11.4948C14.1868 11.4501 14.1138 11.3642 14.0841 11.2598L14.4334 11.1566L14.1278 11.2468C14.0841 11.2596 14.0841 11.2596 14.0841 11.2595C14.084 11.2594 14.084 11.2593 14.084 11.2592C14.0839 11.2589 14.0838 11.2587 14.0837 11.2583C14.0836 11.2577 14.0833 11.2569 14.0831 11.256C14.0826 11.2541 14.0819 11.2516 14.081 11.2485C14.0793 11.2423 14.077 11.2337 14.0742 11.2227C14.0685 11.2008 14.0606 11.1697 14.0514 11.1302C14.0329 11.0513 14.0086 10.9388 13.9845 10.8003C13.9364 10.5243 13.8879 10.1402 13.8879 9.71008C13.8879 8.86298 14.0771 7.7611 14.9197 6.99893L14.9302 6.98978C14.9551 6.96891 14.9826 6.95151 15.0121 6.93803L21.7236 3.86791ZM14.7828 11.0539C14.7828 11.0538 14.7828 11.0538 14.7827 11.0537L14.7827 11.0536C14.7827 11.0537 14.7828 11.0538 14.7828 11.0539ZM15.3628 7.59079C14.7823 8.14452 14.6151 8.96279 14.6151 9.71008C14.6151 10.061 14.6523 10.3802 14.6921 10.6212L21.1387 7.50805C20.7414 6.57977 20.8147 5.73851 21.0071 5.11213C21.0198 5.0707 21.0331 5.03021 21.0467 4.99071L15.3628 7.59079Z" fill="#2B2B2B"/>
</g>
<defs>
<clipPath id="clip0_702_15977">
<rect width="23" height="22" fill="white"/>
</clipPath>
</defs>
</svg>
