<svg width="681" height="621" viewBox="0 0 681 621" fill="none" xmlns="http://www.w3.org/2000/svg">
<path d="M78.1315 374.073C80.9523 372.393 84.3694 372.109 87.42 373.301L373.265 485.042C376.584 486.341 379.059 489.224 379.883 492.749C380.703 496.274 379.764 499.985 377.375 502.667C355.118 527.616 350.386 553.347 351.041 572.858C351.372 582.705 353.087 591.009 354.706 596.811C355.515 599.706 356.29 601.95 356.844 603.426C357.119 604.165 357.341 604.706 357.478 605.037C357.549 605.203 357.596 605.315 357.623 605.375C357.635 605.404 357.641 605.419 357.643 605.422L357.623 605.375C359.485 609.449 358.724 614.29 355.695 617.558C352.663 620.829 347.979 621.881 343.878 620.213L61.9536 505.476C59.8534 504.622 58.0707 503.114 56.8585 501.168C44.5141 481.361 39.1179 463.284 38.5307 447.085C37.9433 430.871 42.2004 417.25 48.0819 406.418C53.9201 395.666 61.3436 387.667 67.2275 382.388C70.1869 379.733 72.8093 377.716 74.7339 376.341C75.6979 375.649 76.4917 375.117 77.0715 374.741C77.3613 374.552 77.5985 374.401 77.7771 374.292C77.8659 374.235 77.9402 374.188 77.9994 374.153C78.029 374.135 78.0551 374.12 78.077 374.105C78.0879 374.099 78.1226 374.079 78.1315 374.073C78.1291 374.073 78.1359 374.07 78.1315 374.073C78.1371 374.07 78.1309 374.073 83.1886 382.891L78.1315 374.073ZM85.0193 395.867C83.9676 396.689 82.7599 397.688 81.4559 398.857C76.847 402.994 71.2392 409.088 66.9216 417.043C62.647 424.915 59.6243 434.617 60.0465 446.274C60.445 457.269 63.9302 470.632 73.2374 486.438L331.422 591.514C330.478 586.239 329.746 580.209 329.524 573.609C328.822 552.734 333.24 526.253 351.71 500.118L85.0193 395.867Z" fill="#2B2B2B"/>
<path d="M563.72 394.486C567.048 392.963 570.909 393.265 573.974 395.287C577.038 397.31 578.889 400.776 578.889 404.499C578.889 407.098 577.983 409.621 576.33 411.602C576.33 411.602 576.322 411.614 576.307 411.634C576.271 411.676 576.206 411.759 576.108 411.883C575.91 412.134 575.593 412.548 575.182 413.116C574.356 414.254 573.151 416.005 571.771 418.297C569.002 422.904 565.588 429.593 563.051 437.841C558.038 454.143 556.386 476.603 570.314 501.892C571.777 504.545 572.091 507.697 571.185 510.595C570.278 513.493 568.233 515.88 565.532 517.181L352.471 619.938C349.62 621.314 346.318 621.346 343.443 620.024C340.565 618.702 338.404 616.162 337.525 613.072L347.867 610.023L338.818 612.691C337.525 613.069 337.525 613.072 337.525 613.072C337.525 613.075 337.522 613.069 337.525 613.072C337.522 613.066 337.516 613.039 337.513 613.031C337.51 613.013 337.501 612.989 337.495 612.963C337.48 612.906 337.459 612.832 337.433 612.741C337.382 612.557 337.314 612.3 337.231 611.978C337.063 611.33 336.829 610.411 336.556 609.243C336.009 606.909 335.289 603.583 334.576 599.487C333.151 591.322 331.715 579.964 331.715 567.248C331.715 542.198 337.317 509.613 362.266 487.074L362.576 486.805C363.314 486.187 364.128 485.672 365.001 485.273L563.72 394.486ZM375.382 504.577C358.197 520.951 353.247 545.149 353.247 567.248C353.247 577.625 354.348 587.064 355.527 594.188L546.402 502.129C534.639 474.678 536.809 449.802 542.506 431.279C542.882 430.054 543.275 428.857 543.678 427.689L375.382 504.577Z" fill="#2B2B2B"/>
<path fill-rule="evenodd" clip-rule="evenodd" d="M368.442 348.976L338.122 338.788L367.266 325.472L397.585 335.66L368.442 348.976ZM465.274 381.507L538.387 406.069L369.078 483.419L319.146 464.186C321.009 468.261 320.248 473.102 317.219 476.369C314.187 479.64 309.503 480.693 305.402 479.025L72.8281 384.373C73.1346 388.578 75.794 392.268 79.7092 393.8L365.546 505.539C368.22 506.585 371.192 506.503 373.804 505.308L572.528 414.521C576.585 412.669 579.105 408.467 578.877 403.943C578.649 399.421 575.714 395.506 571.495 394.087L493.512 367.886L465.274 381.507Z" fill="#2B2B2B"/>
<path fill-rule="evenodd" clip-rule="evenodd" d="M41.4973 232.01L158.967 189.651L189.292 201.993L76.212 242.769L251.586 311.325L282.56 323.432L330.611 342.216L338.123 338.785L367.266 325.469L433.963 294.998C434.197 295.942 434.434 296.835 434.668 297.675C435.476 300.567 436.252 302.815 436.805 304.29C437.081 305.026 437.3 305.571 437.439 305.902L437.584 306.239C439.396 310.21 438.721 314.906 435.882 318.168L335.336 364.107C332.722 365.299 329.752 365.382 327.078 364.338L41.2335 252.598C37.0231 250.952 34.2648 246.806 34.3237 242.21C34.3826 237.615 37.2461 233.543 41.4973 232.01Z" fill="#2B2B2B"/>
<path d="M39.6549 232.873C42.4757 231.193 45.8929 230.909 48.9435 232.101L251.586 311.316L282.56 323.426L334.788 343.842C338.108 345.14 340.583 348.023 341.406 351.548C342.226 355.073 341.291 358.784 338.898 361.467C316.641 386.416 311.91 412.143 312.564 431.657C312.896 441.505 314.61 449.808 316.23 455.61C317.038 458.505 317.814 460.75 318.367 462.225C318.643 462.965 318.865 463.506 319.001 463.837C319.072 464.002 319.12 464.115 319.146 464.174C319.158 464.204 319.146 464.171 319.146 464.174C321.009 468.249 320.248 473.09 317.219 476.357C314.187 479.628 309.503 480.681 305.402 479.013L72.8282 384.361L23.4769 364.276C21.377 363.421 19.5943 361.913 18.382 359.967C6.0376 340.16 0.641206 322.083 0.0541747 305.884C-0.533339 289.67 3.72397 276.05 9.60527 265.217C15.4435 254.464 22.8671 246.467 28.7509 241.187C31.7103 238.532 34.3328 236.516 36.2573 235.139C37.2214 234.449 38.0152 233.916 38.5949 233.539C38.8851 233.351 39.122 233.201 39.3005 233.09C39.3893 233.035 39.5957 232.909 39.6549 232.873C39.6845 232.855 39.633 232.887 39.6549 232.873C39.6606 232.87 39.6543 232.873 44.7121 241.691L39.6549 232.873ZM46.5428 254.665C45.4911 255.49 44.2834 256.487 42.9794 257.657C38.3708 261.793 32.7626 267.889 28.445 275.841C24.1706 283.714 21.1476 293.416 21.5701 305.074C21.9684 316.068 25.4537 329.432 34.7609 345.238L292.946 450.314C292.001 445.038 291.269 439.009 291.047 432.408C290.345 411.534 294.765 385.053 313.233 358.917L46.5428 254.665Z" fill="#2B2B2B"/>
<path fill-rule="evenodd" clip-rule="evenodd" d="M535.497 254.087C532.435 252.065 528.574 251.763 525.244 253.285L465.09 280.767L435.488 295.044L435.372 294.343L326.525 344.073C325.654 344.472 324.837 344.986 324.1 345.601L323.789 345.873C298.841 368.413 293.241 400.995 293.241 426.048C293.241 438.763 294.675 450.122 296.099 458.286C296.815 462.382 297.532 465.709 298.08 468.042C298.245 468.746 298.397 469.364 298.527 469.881C298.613 470.221 298.687 470.52 298.755 470.777L298.959 471.54L299.051 471.871C299.927 474.962 302.092 477.502 304.967 478.824C307.845 480.145 311.143 480.113 313.997 478.738L527.059 375.98C529.756 374.679 531.802 372.293 532.708 369.395C533.617 366.497 533.3 363.344 531.84 360.692C517.909 335.402 519.562 312.943 524.577 296.64C527.112 288.393 530.526 281.703 533.297 277.097C534.677 274.804 535.879 273.053 536.705 271.915C537.12 271.347 537.436 270.933 537.632 270.683L537.857 270.402C539.506 268.42 540.412 265.897 540.412 263.297C540.412 259.576 538.562 256.109 535.497 254.087ZM309.39 468.823L299.051 471.871C299.086 471.863 299.193 471.827 299.338 471.786C299.528 471.729 299.835 471.638 300.342 471.487L309.39 468.823ZM314.773 426.048C314.773 403.949 319.721 379.75 336.909 363.377L368.442 348.97L397.586 335.654L505.201 286.487C504.799 287.655 504.408 288.853 504.029 290.078C498.335 308.602 496.165 333.477 507.928 360.928L493.512 367.881L465.274 381.501L317.05 452.987C315.872 445.863 314.773 436.424 314.773 426.048Z" fill="#2B2B2B"/>
<path d="M363.989 0.485371C366.12 -0.182842 368.403 -0.161511 370.526 0.551877L651.456 94.9406C655.676 96.3585 658.61 100.274 658.838 104.797C659.066 109.32 656.543 113.521 652.49 115.374L453.774 206.16C451.16 207.354 448.187 207.439 445.513 206.393L159.67 94.6525C155.46 93.0066 152.701 88.8607 152.76 84.265C152.819 79.6693 155.683 75.5985 159.934 74.0652L363.565 0.627988L363.989 0.485371ZM194.647 84.823L449.046 184.271L618.351 106.922L367.281 22.5653L194.647 84.823Z" fill="#2B2B2B"/>
<path d="M158.091 74.9373C160.912 73.2568 164.329 72.9726 167.38 74.1652L453.223 185.905C456.542 187.203 459.021 190.087 459.841 193.613C460.664 197.138 459.725 200.849 457.333 203.53C451.618 209.939 447.056 216.399 443.446 222.792C439.571 229.658 436.79 236.446 434.851 243.01C431.564 254.128 430.694 264.603 431.002 273.72C431.286 282.141 432.58 289.433 433.963 294.998C434.197 295.942 434.434 296.835 434.667 297.675C435.473 300.567 436.251 302.814 436.802 304.29C437.081 305.026 437.3 305.57 437.439 305.901C437.507 306.067 437.557 306.179 437.581 306.239C439.396 310.21 438.721 314.906 435.881 318.168C435.807 318.253 435.733 318.339 435.656 318.422C432.621 321.693 427.937 322.745 423.837 321.075L141.914 206.339C139.814 205.484 138.031 203.978 136.818 202.032C124.474 182.224 119.078 164.147 118.491 147.948C117.903 131.734 122.16 118.114 128.042 107.281C133.88 96.5277 141.304 88.531 147.187 83.2513C150.147 80.5955 152.769 78.5802 154.694 77.2028C155.658 76.5132 156.452 75.98 157.031 75.603C157.322 75.4146 157.558 75.2647 157.737 75.1538C157.826 75.0985 158.032 74.9734 158.091 74.9373C158.091 74.9373 158.091 74.9373 163.149 83.7546L158.091 74.9373ZM164.98 96.7291C163.928 97.5536 162.72 98.551 161.416 99.7212C156.807 103.857 151.199 109.953 146.882 117.905C142.607 125.778 139.584 135.48 140.006 147.138C140.405 158.131 143.89 171.496 153.197 187.303L158.966 189.65L189.292 201.992L411.383 292.378C410.439 287.102 409.707 281.074 409.485 274.472C409.1 263.049 410.249 249.945 414.397 236.138C416.396 229.486 419.087 222.671 422.64 215.802C425.19 210.877 428.18 205.923 431.671 200.982L164.98 96.7291Z" fill="#2B2B2B"/>
<path d="M643.678 95.3484C647.009 93.827 650.87 94.1289 653.935 96.151C656.999 98.1734 658.85 101.64 658.85 105.361C658.85 107.961 657.941 110.484 656.291 112.466C656.291 112.466 656.164 112.623 656.066 112.747C655.871 112.997 655.554 113.411 655.143 113.979C654.317 115.117 653.111 116.868 651.732 119.161C648.963 123.767 645.549 130.457 643.012 138.705C637.999 155.008 636.347 177.467 650.275 202.755C651.738 205.408 652.051 208.56 651.145 211.459C650.239 214.357 648.191 216.743 645.493 218.044L432.432 320.803C429.581 322.178 426.279 322.21 423.404 320.888C420.526 319.566 418.365 317.026 417.485 313.936L427.828 310.884L418.779 313.552C417.485 313.933 417.485 313.936 417.485 313.936C417.485 313.936 417.42 313.696 417.394 313.605C417.343 313.421 417.275 313.164 417.192 312.842C417.024 312.194 416.79 311.272 416.517 310.107C415.97 307.773 415.25 304.447 414.536 300.351C413.112 292.186 411.676 280.828 411.676 268.11C411.676 243.06 417.278 210.476 442.224 187.937L442.537 187.667C443.275 187.049 444.089 186.535 444.962 186.137L643.678 95.3484ZM455.346 205.439C438.158 221.814 433.208 246.012 433.208 268.11C433.208 278.15 434.238 287.314 435.372 294.351C435.411 294.587 435.449 294.82 435.488 295.052L465.087 280.775L626.363 202.993C614.599 175.542 616.77 150.665 622.466 132.142C622.843 130.917 623.236 129.719 623.639 128.551L455.346 205.439Z" fill="#2B2B2B"/>
</svg>
