<svg width="990" height="1080" viewBox="0 0 990 1080" fill="none" xmlns="http://www.w3.org/2000/svg">
<g clip-path="url(#clip0_1432_3559)">
<mask id="mask0_1432_3559" style="mask-type:luminance" maskUnits="userSpaceOnUse" x="0" y="0" width="990" height="1080">
<path d="M990 0H0V1080H990V0Z" fill="white"/>
</mask>
<g mask="url(#mask0_1432_3559)">
<path d="M897.749 117.712C908.733 99.0771 898.081 77.0923 873.966 68.6076L864.782 65.3752C840.661 56.8905 812.213 65.1192 801.23 83.7546L449.827 680.148C438.847 698.783 449.496 720.765 473.612 729.252L482.8 732.483C506.915 740.97 535.365 732.74 546.345 714.105L897.749 117.712ZM589.038 729.126C567.324 765.981 511.056 782.253 463.36 765.477L454.174 762.242C406.478 745.461 385.416 701.982 407.132 665.127L758.538 68.7331C780.254 31.8775 836.521 15.6031 884.221 32.3838L893.405 35.6161C941.1 52.3968 962.163 95.8776 940.447 132.733L589.038 729.126Z" fill="#2B2B2B"/>
<path d="M325.017 680.558C483.214 643.073 602.706 729.657 619.985 809.793C636.483 886.257 603.452 975.875 479.968 1015.14C424.041 1032.91 365.408 1048.94 297.157 1052.28C228.595 1055.65 151.968 1046.16 59.4542 1014.99C50.3736 1011.92 44.7604 1004.79 45.4293 997.151C46.0981 989.514 52.8977 983.03 62.4207 980.937C62.5278 980.915 62.7619 980.861 63.0653 980.784C63.6739 980.636 64.6616 980.388 65.9736 980.033C68.6035 979.317 72.5117 978.174 77.2782 976.55C86.8684 973.274 99.6225 968.13 112.37 960.705C137.71 945.936 161.982 922.905 163.574 887.274C165.42 845.973 165.71 802.895 185.676 766.485C206.822 727.925 248.444 698.702 325.017 680.558ZM573.711 815.751C560.507 754.488 466.505 684.95 338.77 715.217C272.376 730.949 243.467 754.011 228.871 780.629C213.095 809.397 212.432 844.385 210.459 888.525C208.234 938.331 173.413 970.533 140.614 989.645C136.226 992.205 131.854 994.541 127.575 996.669C191.856 1013.73 245.947 1018.48 294.184 1016.11C354.599 1013.14 407.48 998.973 462.117 981.612C559.731 950.576 587.722 880.686 573.711 815.751Z" fill="#2B2B2B"/>
<path d="M622.413 627.952L603.667 661.185L463.417 613.944L482.163 580.716L622.413 627.952Z" fill="#2B2B2B"/>
</g>
</g>
<defs>
<clipPath id="clip0_1432_3559">
<rect width="990" height="1080" fill="white"/>
</clipPath>
</defs>
</svg>
