<svg width="17" height="24" viewBox="0 0 17 24" fill="none" xmlns="http://www.w3.org/2000/svg">
<g clip-path="url(#clip0_198_6083)">
<path d="M15.416 2.61577C15.6046 2.20165 15.4217 1.7131 15.0076 1.52454L14.8499 1.45272C14.4357 1.26417 13.9472 1.44703 13.7586 1.86115L7.72439 15.1143C7.53585 15.5284 7.71871 16.017 8.13283 16.2055L8.29059 16.2774C8.7047 16.4659 9.19323 16.283 9.38178 15.8689L15.416 2.61577ZM10.1149 16.2027C9.74202 17.0217 8.7758 17.3834 7.95678 17.0105L7.79903 16.9387C6.98001 16.5658 6.61835 15.5995 6.99125 14.7805L13.0255 1.52734C13.3984 0.708324 14.3646 0.346672 15.1837 0.719576L15.3414 0.791404C16.1604 1.16431 16.5221 2.13055 16.1492 2.94957L10.1149 16.2027Z" fill="#2B2B2B"/>
<path d="M1.18188 22.1861C1.18188 22.1861 3.14577 21.6297 3.21133 19.7311C3.27688 17.8325 3.24411 16.2614 5.69911 15.5086C8.15411 14.7558 9.98716 16.4906 10.2488 18.0617C10.5108 19.6328 9.98688 21.405 8.08855 22.1861C6.18994 22.9669 4.25883 23.5281 1.18188 22.1861Z" fill="white"/>
<path d="M5.58098 15.1235C8.2975 14.2906 10.3494 16.2146 10.6461 17.9954C10.9293 19.6946 10.3622 21.6861 8.24176 22.5586L8.2417 22.5586C7.28132 22.9536 6.27455 23.3097 5.10257 23.3841C3.92525 23.4589 2.60943 23.2481 1.02081 22.5553C0.864879 22.4873 0.768491 22.3286 0.779977 22.1589C0.791461 21.9893 0.908223 21.8451 1.07175 21.7987C1.07171 21.7987 1.07154 21.7987 1.07145 21.7988C1.07129 21.7988 1.07115 21.7988 1.07105 21.7989C1.07087 21.7989 1.07077 21.7989 1.07075 21.7989C1.07079 21.7989 1.07128 21.7988 1.07219 21.7985C1.07403 21.798 1.07761 21.7969 1.08282 21.7953C1.09327 21.792 1.11023 21.7864 1.13276 21.7785C1.17791 21.7626 1.24502 21.7373 1.32688 21.7011C1.49156 21.6283 1.71056 21.5141 1.92947 21.349C2.3646 21.0209 2.78139 20.509 2.80873 19.7172C2.84042 18.7995 2.84541 17.8421 3.18826 17.033C3.55137 16.1761 4.26608 15.5267 5.58098 15.1235ZM9.85148 18.1278C9.62474 16.7664 8.01057 15.2211 5.81714 15.8937C4.67704 16.2433 4.18063 16.7558 3.92999 17.3473C3.65909 17.9866 3.64769 18.7641 3.61383 19.745C3.57561 20.8518 2.97767 21.5675 2.41447 21.9922C2.33911 22.049 2.26403 22.1009 2.19057 22.1482C3.29438 22.5274 4.2232 22.6328 5.05152 22.5802C6.08895 22.5143 6.99702 22.1995 7.93522 21.8136C9.61142 21.1239 10.0921 19.5709 9.85148 18.1279V18.1278Z" fill="#2B2B2B"/>
<path d="M10.688 13.9547L10.3661 14.6931L7.95776 13.6434L8.27965 12.9049L10.688 13.9547Z" fill="#2B2B2B"/>
</g>
<defs>
<clipPath id="clip0_198_6083">
<rect width="17" height="24" fill="white"/>
</clipPath>
</defs>
</svg>
