<svg width="284" height="400" viewBox="0 0 284 400" fill="none" xmlns="http://www.w3.org/2000/svg">
<g clip-path="url(#clip0_2189_21136)">
<mask id="mask0_2189_21136" style="mask-type:luminance" maskUnits="userSpaceOnUse" x="0" y="0" width="284" height="400">
<path d="M284 0H0V400H284V0Z" fill="white"/>
</mask>
<g mask="url(#mask0_2189_21136)">
<path d="M257.536 43.597C260.687 36.695 257.631 28.5525 250.713 25.41L248.079 24.2129C241.159 21.0704 232.999 24.118 229.848 31.02L129.041 251.907C125.891 258.808 128.946 266.95 135.865 270.093L138.5 271.29C145.418 274.433 153.579 271.385 156.729 264.483L257.536 43.597ZM168.977 270.047C162.748 283.697 146.606 289.723 132.923 283.51L130.288 282.312C116.606 276.097 110.564 259.993 116.793 246.343L217.601 25.4565C223.83 11.8063 239.972 5.77875 253.655 11.9938L256.29 13.191C269.972 19.406 276.015 35.51 269.785 49.1604L168.977 270.047Z" fill="#2B2B2B"/>
<path d="M93.237 252.058C138.619 238.175 172.897 270.243 177.854 299.923C182.587 328.243 173.111 361.435 137.688 375.976C121.644 382.56 104.824 388.495 85.2447 389.735C65.5766 390.98 43.5946 387.468 17.0553 375.921C14.4504 374.786 12.8402 372.143 13.0321 369.315C13.2239 366.486 15.1745 364.085 17.9063 363.31C17.9371 363.301 18.0042 363.281 18.0913 363.253C18.2658 363.198 18.5492 363.106 18.9256 362.975C19.68 362.71 20.8011 362.286 22.1685 361.685C24.9196 360.471 28.5784 358.566 32.2353 355.816C39.5045 350.346 46.4674 341.816 46.9241 328.62C47.4535 313.323 47.5369 297.368 53.2645 283.883C59.3306 269.601 71.2706 258.778 93.237 252.058ZM164.58 302.13C160.792 279.44 133.826 253.685 97.1823 264.895C78.136 270.721 69.8429 279.263 65.6557 289.121C61.1301 299.776 60.9398 312.735 60.374 329.083C59.7355 347.53 49.7466 359.456 40.3376 366.535C39.0789 367.483 37.8246 368.348 36.5972 369.136C55.0373 375.455 70.5542 377.213 84.3919 376.336C101.723 375.238 116.893 369.99 132.567 363.56C160.569 352.065 168.599 326.18 164.58 302.13Z" fill="#2B2B2B"/>
<path d="M178.55 232.575L173.173 244.883L132.939 227.387L138.317 215.08L178.55 232.575Z" fill="#2B2B2B"/>
</g>
</g>
<defs>
<clipPath id="clip0_2189_21136">
<rect width="284" height="400" fill="white"/>
</clipPath>
</defs>
</svg>
