<svg width="22" height="22" viewBox="0 0 22 22" fill="none" xmlns="http://www.w3.org/2000/svg">
<g clip-path="url(#clip0_1020_16421)">
<path d="M20.9435 7.5234L20.8636 15.658C20.8636 18.5555 18.5146 20.9042 15.6172 20.9042H5.89999C3.00256 20.9042 0.653809 18.5555 0.653809 15.658V5.94113C0.653809 3.04369 3.00256 0.694672 5.89999 0.694672H11.8987" fill="white"/>
<path d="M20.9473 7.12818C21.1656 7.13032 21.3408 7.309 21.3386 7.52726L21.2588 15.6619C21.2567 18.7759 18.7315 21.2994 15.6171 21.2994H5.89995C2.78424 21.2994 0.258545 18.7737 0.258545 15.658V5.94113C0.258545 2.82545 2.78421 0.299443 5.89995 0.299438H11.8987C12.117 0.299438 12.2939 0.476388 12.2939 0.694667C12.2939 0.912946 12.117 1.0899 11.8987 1.0899H5.89995C3.22082 1.0899 1.049 3.26195 1.049 5.94113V15.658C1.049 18.3372 3.2208 20.509 5.89995 20.509H15.6171C18.2963 20.509 20.4684 18.3371 20.4684 15.658V15.6561L20.4684 15.6541L20.5482 7.51952C20.5504 7.30125 20.7291 7.12603 20.9473 7.12818Z" fill="#2B2B2B"/>
<path d="M19.3589 1.89897C19.496 1.72913 19.7449 1.70259 19.9147 1.83969C20.0845 1.9768 20.1111 2.22562 19.974 2.39546L10.3628 14.3017C10.2299 14.4664 9.99071 14.4971 9.82044 14.3713L4.1196 10.1589C3.94406 10.0292 3.9069 9.78177 4.03661 9.60622C4.16632 9.43067 4.41381 9.39351 4.58936 9.52322L9.98561 13.5105L19.3589 1.89897Z" fill="#2B2B2B"/>
</g>
<defs>
<clipPath id="clip0_1020_16421">
<rect width="22" height="22" fill="white"/>
</clipPath>
</defs>
</svg>
