<svg width="586" height="614" viewBox="0 0 586 614" fill="none" xmlns="http://www.w3.org/2000/svg">
<path d="M557.961 198.937C563.774 198.997 568.439 203.984 568.384 210.076L566.257 437.106C566.202 524.013 498.94 594.444 415.985 594.444H157.153C74.1619 594.444 6.88672 523.954 6.88672 436.998V165.808C6.88672 78.8523 74.1613 8.35363 157.153 8.35352H316.939C322.752 8.35352 327.465 13.292 327.465 19.384C327.465 25.476 322.752 30.4144 316.939 30.4144H157.153C85.7909 30.4146 27.9415 91.0346 27.9415 165.808V436.998C27.9415 511.769 85.7903 572.385 157.153 572.385H415.985C487.348 572.385 545.203 511.769 545.203 436.998V436.942V436.889L547.33 209.86C547.388 203.768 552.146 198.878 557.961 198.937Z" fill="#2B2B2B"/>
<path d="M515.655 52.9977C519.305 48.2576 525.935 47.5169 530.458 51.3433C534.981 55.1699 535.688 62.114 532.038 66.8543L276.031 399.145C272.489 403.744 266.119 404.598 261.583 401.087L109.734 283.526C105.058 279.906 104.068 272.999 107.523 268.1C110.978 263.201 117.57 262.164 122.246 265.784L265.983 377.066L515.655 52.9977Z" fill="#2B2B2B"/>
</svg>
