<svg width="1033" height="1080" viewBox="0 0 1033 1080" fill="none" xmlns="http://www.w3.org/2000/svg">
<path d="M983.573 349.922C993.82 350.028 1002.04 358.799 1001.95 369.514L998.198 768.852C998.099 921.716 879.531 1045.6 733.297 1045.6H277.029C130.733 1045.6 12.14 921.613 12.14 768.66V291.649C12.14 138.698 130.732 14.6936 277.029 14.6934H558.701C568.947 14.6934 577.255 23.38 577.255 34.0955C577.255 44.811 568.947 53.4975 558.701 53.4975H277.029C151.232 53.498 49.2554 160.126 49.2554 291.649V768.66C49.2554 900.18 151.231 1006.8 277.029 1006.8H733.297C859.097 1006.8 961.084 900.18 961.084 768.66V768.562V768.469L964.832 369.134C964.935 358.419 973.322 349.817 983.573 349.922Z" fill="#2B2B2B"/>
<path d="M908.996 93.2205C915.43 84.8829 927.117 83.58 935.091 90.3104C943.065 97.0413 944.31 109.256 937.875 117.594L486.587 702.078C480.343 710.169 469.114 711.671 461.119 705.495L193.439 498.709C185.196 492.342 183.451 480.194 189.542 471.576C195.632 462.958 207.253 461.134 215.496 467.502L468.874 663.242L908.996 93.2205Z" fill="#2B2B2B"/>
</svg>
