<svg width="17" height="22" viewBox="0 0 17 22" fill="none" xmlns="http://www.w3.org/2000/svg">
<path d="M12.3574 5.34541C12.3574 3.19922 10.6239 1.45939 8.48562 1.45938C6.34729 1.45938 4.61383 3.19922 4.61383 5.34541C4.61383 7.49159 6.3473 9.23141 8.48562 9.23141C10.6239 9.2314 12.3574 7.49159 12.3574 5.34541ZM13.0968 5.34541C13.0968 7.90143 11.0323 9.9735 8.48562 9.9735C5.93895 9.9735 3.87446 7.90144 3.87445 5.34541C3.87445 2.78937 5.93895 0.717285 8.48562 0.717285C11.0323 0.71729 13.0968 2.78937 13.0968 5.34541Z" fill="#2B2B2B"/>
<path d="M15.6636 15.7403C15.6636 13.406 13.7752 11.5106 11.4494 11.5106H5.52217C3.1964 11.5106 1.30798 13.406 1.30798 15.7403V20.9754H15.6636V15.7403ZM16.403 21.7175H0.568604V15.7403C0.568604 12.9962 2.78806 10.7686 5.52217 10.7686H11.4494C14.1835 10.7686 16.403 12.9962 16.403 15.7403V21.7175Z" fill="#2B2B2B"/>
</svg>
