<svg width="21" height="22" viewBox="0 0 21 22" fill="none" xmlns="http://www.w3.org/2000/svg">
<path d="M20.0547 8.24267C20.2591 8.24465 20.4231 8.40961 20.4211 8.6111L20.3463 16.1209C20.3444 18.9956 17.9801 21.3254 15.064 21.3254H5.96612C3.04889 21.3254 0.684082 18.9937 0.684082 16.1173V7.14681C0.684082 4.27045 3.04886 1.93848 5.96612 1.93848H11.5827C11.7871 1.93848 11.9528 2.10183 11.9528 2.30335C11.9528 2.50486 11.7871 2.66822 11.5827 2.66822H5.96612C3.45766 2.66822 1.42419 4.67343 1.42419 7.14681V16.1173C1.42419 18.5906 3.45763 20.5956 5.96612 20.5956H15.064C17.5726 20.5956 19.6063 18.5906 19.6063 16.1173V16.1137L19.6811 8.60395C19.6831 8.40245 19.8504 8.24069 20.0547 8.24267Z" fill="#2B2B2B"/>
<path d="M13.8944 1.64277C14.9173 0.474988 16.7067 0.345534 17.8912 1.35422L19.4393 2.67228L19.4394 2.6723C20.6237 3.6809 20.755 5.44522 19.732 6.61313L19.732 6.61315L11.2083 16.3458L11.2084 16.3458C10.9517 16.6389 10.5934 16.8268 10.2035 16.8728L9.78947 16.9217V16.9215L6.84121 17.2701C5.9205 17.379 5.10425 16.684 5.07923 15.77L4.98811 12.4321L4.98774 12.414C4.98175 12.0334 5.11792 11.6637 5.37035 11.3753L5.37043 11.3752L13.8944 1.64279L13.8944 1.64277ZM17.4075 1.90652C16.5325 1.16135 15.2104 1.25684 14.4545 2.11972L5.93059 11.8522L5.93056 11.8522C5.79878 12.0027 5.72687 12.195 5.72764 12.3931L5.72794 12.4123V12.4124L5.81906 15.7503L5.81998 15.7729C5.84586 16.2463 6.27269 16.6024 6.75309 16.5456L10.1352 16.1457C10.3343 16.1174 10.5165 16.0193 10.6481 15.869L10.6481 15.8689L19.1718 6.13623L19.1719 6.1362C19.9276 5.27342 19.8307 3.96985 18.9556 3.22457L17.4075 1.90654L17.4075 1.90652Z" fill="#2B2B2B"/>
<path d="M13.0534 2.68515C13.248 2.62427 13.4558 2.73028 13.5178 2.92195C13.5178 2.92196 13.5179 2.92217 13.5181 2.92259C13.5183 2.92344 13.5189 2.92515 13.5198 2.92767C13.5215 2.93272 13.5243 2.94106 13.5284 2.95249C13.5366 2.97537 13.5496 3.01062 13.5679 3.05671C13.6044 3.14893 13.662 3.28432 13.7438 3.45075C13.9078 3.784 14.1682 4.23923 14.5512 4.72108C15.3158 5.68289 16.5657 6.74747 18.522 7.16997C18.7216 7.21308 18.848 7.40761 18.8043 7.60445C18.7605 7.80129 18.5632 7.92591 18.3636 7.8828C16.2023 7.41602 14.8135 6.23385 13.9687 5.17127C13.5471 4.64093 13.2601 4.13956 13.0779 3.76925C12.9868 3.58389 12.9215 3.43073 12.8785 3.32237C12.8571 3.26819 12.8411 3.22514 12.8303 3.19479C12.8249 3.17961 12.8207 3.1676 12.8178 3.15896C12.8163 3.15464 12.8152 3.15115 12.8143 3.14854C12.8139 3.14724 12.8135 3.14614 12.8132 3.14527C12.8131 3.14484 12.813 3.14444 12.8129 3.14412C12.8128 3.14396 12.8127 3.14376 12.8127 3.14367C12.8127 3.14348 12.8126 3.1433 13.1653 3.03295L12.8126 3.14331C12.7508 2.95123 12.8586 2.7461 13.0534 2.68515Z" fill="#2B2B2B"/>
</svg>
