<svg width="20" height="21" viewBox="0 0 20 21" fill="none" xmlns="http://www.w3.org/2000/svg">
<path fill-rule="evenodd" clip-rule="evenodd" d="M9.73515 7.79486C9.52719 7.95011 9.30329 8.08344 9.06652 8.19163C8.61272 8.399 8.11163 8.51402 7.5849 8.51402C5.5363 8.51402 3.87556 6.77422 3.87556 4.62806C3.87556 2.4819 5.53629 0.742085 7.5849 0.742085C8.11163 0.742087 8.61272 0.857108 9.06653 1.06448C9.30329 1.17267 9.52719 1.306 9.73515 1.46125C9.94311 1.306 10.167 1.17267 10.4038 1.06448C9.63886 0.399673 8.65644 2.38419e-06 7.5849 0C5.14508 0 3.16721 2.07206 3.16721 4.62806C3.16721 7.18406 5.14508 9.2561 7.5849 9.2561C8.65644 9.2561 9.63887 8.85643 10.4038 8.19163C10.167 8.08344 9.94311 7.95011 9.73515 7.79486Z" fill="#2B2B2B"/>
<path d="M14.4614 15.023C14.4614 12.6987 12.6677 10.8097 10.4527 10.7935C10.4432 10.7934 10.4336 10.7934 10.424 10.7934L9.04627 10.7935L6.5522 10.7934L4.74573 10.7934C2.51754 10.7934 0.708354 12.6887 0.708354 15.023V20.258L4.30054 20.258H5.00889L14.4614 20.258V15.023ZM15.1698 21.0001H0V15.023C0 12.2789 2.12633 10.0513 4.74573 10.0513H10.424C13.0434 10.0513 15.1698 12.2789 15.1698 15.023V21.0001Z" fill="#2B2B2B"/>
<path fill-rule="evenodd" clip-rule="evenodd" d="M11.8854 0.742085C13.934 0.742091 15.5947 2.4819 15.5947 4.62806C15.5947 6.77422 13.934 8.51401 11.8854 8.51402C11.3587 8.51402 10.8576 8.399 10.4038 8.19163C10.167 8.08344 9.94309 7.95011 9.73513 7.79486C9.52717 7.95011 9.30327 8.08344 9.06651 8.19163C9.83142 8.85643 10.8139 9.2561 11.8854 9.2561C14.3252 9.2561 16.3031 7.18406 16.3031 4.62806C16.3031 2.07206 14.3252 5.24521e-06 11.8854 0C10.8139 0 9.83142 0.399671 9.06651 1.06448C9.30327 1.17267 9.52717 1.306 9.73513 1.46125C9.94309 1.306 10.167 1.17267 10.4038 1.06448C10.8576 0.857105 11.3587 0.742085 11.8854 0.742085Z" fill="#2B2B2B"/>
<path fill-rule="evenodd" clip-rule="evenodd" d="M14.7246 10.7934C16.9528 10.7934 18.762 12.6887 18.762 15.023V20.258H5.00889L4.30054 20.2579V21.0001H19.4703V15.023C19.4703 12.2789 17.344 10.0513 14.7246 10.0513H9.04627C8.13161 10.0513 7.27708 10.3229 6.5522 10.7933L9.04627 10.7934L10.424 10.7933L10.4527 10.7934H14.7246Z" fill="#2B2B2B"/>
<path d="M9.73513 1.46123C9.94309 1.30598 10.167 1.17265 10.4038 1.06445C11.3805 1.91337 12.0026 3.1946 12.0026 4.62804C12.0026 6.06147 11.3805 7.3427 10.4038 8.19161C10.167 8.08342 9.94309 7.95008 9.73513 7.79484C10.6788 7.09034 11.2942 5.93448 11.2942 4.62804C11.2942 3.3216 10.6788 2.16573 9.73513 1.46123Z" fill="#2B2B2B"/>
</svg>
