<svg width="23" height="21" viewBox="0 0 23 21" fill="none" xmlns="http://www.w3.org/2000/svg">
<path d="M2.6388 12.6498C2.73407 12.593 2.84948 12.5834 2.95251 12.6237L12.6066 16.4024C12.7187 16.4463 12.8023 16.5438 12.8301 16.663C12.8578 16.7822 12.8261 16.9077 12.7454 16.9984C11.9937 17.8421 11.8339 18.7122 11.856 19.372C11.8672 19.705 11.9251 19.9858 11.9798 20.182C12.0071 20.2799 12.0333 20.3558 12.052 20.4057C12.0613 20.4307 12.0688 20.449 12.0734 20.4602C12.0758 20.4658 12.0774 20.4696 12.0783 20.4716C12.0787 20.4726 12.0789 20.4731 12.079 20.4732C12.079 20.4731 12.0789 20.473 12.0789 20.4729C12.0788 20.4728 12.0787 20.4726 12.0787 20.4725L12.0785 20.4722C12.1414 20.61 12.1155 20.7731 12.0132 20.8836C11.9108 20.9942 11.7526 21.0298 11.6141 20.9734L2.09241 17.0934C2.02148 17.0645 1.96127 17.0135 1.92033 16.9477C1.50341 16.2779 1.32116 15.6666 1.30133 15.1188C1.28149 14.5705 1.42527 14.1099 1.62391 13.7436C1.82109 13.38 2.07181 13.1095 2.27053 12.931C2.37048 12.8412 2.45905 12.773 2.52405 12.7265C2.55661 12.7031 2.58342 12.6851 2.603 12.6724C2.61279 12.666 2.6208 12.6609 2.62683 12.6572C2.62983 12.6553 2.63234 12.6537 2.63434 12.6525C2.63534 12.6519 2.63622 12.6514 2.63696 12.6509C2.63733 12.6507 2.63767 12.6505 2.63797 12.6503C2.63812 12.6502 2.63833 12.6501 2.63841 12.6501C2.6386 12.65 2.63878 12.6498 2.8096 12.948L2.6388 12.6498ZM2.87143 13.3868C2.83591 13.4146 2.79512 13.4484 2.75108 13.4879C2.59542 13.6278 2.40602 13.8339 2.2602 14.1029C2.11583 14.3691 2.01374 14.6972 2.028 15.0914C2.04146 15.4632 2.15917 15.9151 2.47351 16.4496L11.1934 20.0029C11.1615 19.8245 11.1368 19.6206 11.1293 19.3974C11.1056 18.6915 11.2548 17.796 11.8786 16.9122L2.87143 13.3868Z" fill="#2B2B2B"/>
<path d="M19.039 13.3401C19.1514 13.2886 19.2818 13.2988 19.3853 13.3672C19.4888 13.4356 19.5513 13.5528 19.5513 13.6787V13.6789C19.5513 13.7668 19.5207 13.8519 19.4649 13.9189C19.4649 13.9189 19.4646 13.9193 19.4641 13.92C19.4629 13.9214 19.4607 13.9242 19.4574 13.9284C19.4507 13.9369 19.44 13.9509 19.4261 13.9701C19.3982 14.0086 19.3575 14.0678 19.3109 14.1453C19.2174 14.3011 19.1021 14.5273 19.0164 14.8062C18.8471 15.3575 18.7913 16.117 19.2617 16.9722C19.3111 17.0619 19.3217 17.1685 19.2911 17.2665C19.2605 17.3645 19.1914 17.4452 19.1002 17.4892L11.9043 20.9641C11.808 21.0106 11.6965 21.0117 11.5994 20.967C11.5022 20.9223 11.4292 20.8364 11.3995 20.7319L11.7488 20.6288L11.4432 20.719C11.3995 20.7318 11.3995 20.7317 11.3995 20.7317C11.3994 20.7316 11.3994 20.7314 11.3994 20.7313C11.3993 20.7311 11.3992 20.7308 11.3991 20.7305C11.399 20.7299 11.3987 20.7291 11.3985 20.7282C11.398 20.7263 11.3973 20.7238 11.3964 20.7207C11.3947 20.7145 11.3924 20.7058 11.3896 20.6949C11.3839 20.673 11.376 20.6419 11.3668 20.6024C11.3483 20.5235 11.324 20.411 11.2999 20.2725C11.2518 19.9964 11.2033 19.6123 11.2033 19.1823C11.2033 18.3352 11.3925 17.2333 12.2351 16.4711L12.2456 16.462C12.2705 16.4411 12.298 16.4237 12.3275 16.4102L19.039 13.3401ZM12.0982 20.526C12.0982 20.526 12.0982 20.526 12.0981 20.5259L12.0981 20.5258C12.0981 20.5259 12.0982 20.526 12.0982 20.526ZM12.6781 17.063C12.0977 17.6167 11.9305 18.435 11.9305 19.1823C11.9305 19.5332 11.9677 19.8524 12.0075 20.0933L18.4541 16.9802C18.0568 16.0519 18.1301 15.2107 18.3225 14.5843C18.3352 14.5429 18.3485 14.5024 18.3621 14.4629L12.6781 17.063Z" fill="#2B2B2B"/>
<path fill-rule="evenodd" clip-rule="evenodd" d="M12.4437 11.8011L11.4197 11.4566L12.404 11.0063L13.428 11.3508L12.4437 11.8011ZM15.7141 12.9012L18.1834 13.7318L12.4652 16.3475L10.7788 15.6971C10.8417 15.8349 10.816 15.9986 10.7137 16.1091C10.6113 16.2197 10.4531 16.2553 10.3146 16.1989L2.45969 12.9981C2.47004 13.1403 2.55986 13.2651 2.69209 13.3169L12.3459 17.0955C12.4362 17.1309 12.5366 17.1281 12.6248 17.0877L19.3365 14.0176C19.4735 13.955 19.5586 13.8129 19.5509 13.6599C19.5432 13.507 19.4441 13.3746 19.3016 13.3266L16.6678 12.4406L15.7141 12.9012Z" fill="#2B2B2B"/>
<path fill-rule="evenodd" clip-rule="evenodd" d="M1.40152 7.84574L5.36891 6.41331L6.39313 6.83067L2.57397 8.20957L8.49702 10.5279L9.54313 10.9373L11.166 11.5725L11.4197 11.4565L12.404 11.0062L14.6566 9.97578C14.6645 10.0077 14.6725 10.0379 14.6804 10.0663C14.7077 10.1641 14.7339 10.2401 14.7526 10.29C14.7619 10.3149 14.7693 10.3333 14.774 10.3445L14.7789 10.3559C14.8401 10.4902 14.8173 10.649 14.7214 10.7593L11.3256 12.3128C11.2373 12.3531 11.137 12.3559 11.0467 12.3206L1.39261 8.54195C1.25041 8.48629 1.15725 8.34609 1.15924 8.19068C1.16123 8.03527 1.25794 7.89758 1.40152 7.84574Z" fill="#2B2B2B"/>
<path d="M1.3393 7.87494C1.43457 7.81811 1.54998 7.8085 1.65301 7.84883L8.49702 10.5276L9.54313 10.9371L11.3071 11.6275C11.4192 11.6714 11.5028 11.7689 11.5306 11.8881C11.5583 12.0073 11.5267 12.1328 11.4459 12.2235C10.6942 13.0672 10.5344 13.9372 10.5565 14.5971C10.5677 14.9301 10.6256 15.2109 10.6803 15.4071C10.7076 15.505 10.7338 15.5809 10.7525 15.6308C10.7618 15.6558 10.7693 15.6741 10.7739 15.6853C10.7763 15.6909 10.7779 15.6947 10.7788 15.6967C10.7792 15.6977 10.7788 15.6966 10.7788 15.6967C10.8417 15.8345 10.816 15.9982 10.7137 16.1087C10.6113 16.2193 10.4531 16.2549 10.3146 16.1985L2.45969 12.9977L0.792906 12.3185C0.721985 12.2896 0.661776 12.2386 0.620831 12.1728C0.203913 11.503 0.021656 10.8917 0.00182969 10.3439C-0.0180129 9.7956 0.125773 9.33503 0.324407 8.9687C0.521586 8.60505 0.772311 8.33463 0.97103 8.15609C1.07098 8.06628 1.15955 7.99813 1.22455 7.95156C1.25711 7.92823 1.28392 7.9102 1.3035 7.89745C1.3133 7.89108 1.3213 7.88601 1.32733 7.88226C1.33033 7.88039 1.3373 7.87616 1.3393 7.87494C1.3403 7.87433 1.33856 7.87539 1.3393 7.87494C1.33949 7.87483 1.33928 7.87494 1.5101 8.17311L1.3393 7.87494ZM1.57193 8.61186C1.53641 8.63974 1.49562 8.67347 1.45158 8.71304C1.29593 8.85289 1.10652 9.05903 0.960696 9.32796C0.816333 9.5942 0.714236 9.92227 0.728504 10.3165C0.741958 10.6883 0.859669 11.1402 1.17401 11.6747L9.89392 15.228C9.86201 15.0496 9.83729 14.8457 9.82979 14.6225C9.80608 13.9166 9.95534 13.0211 10.5791 12.1373L1.57193 8.61186Z" fill="#2B2B2B"/>
<path fill-rule="evenodd" clip-rule="evenodd" d="M18.0858 8.59231C17.9824 8.52393 17.852 8.51372 17.7395 8.56518L15.7079 9.49453L14.7081 9.97732L14.7042 9.95364L11.028 11.6353C10.9986 11.6488 10.971 11.6662 10.9461 11.687L10.9356 11.6962C10.093 12.4584 9.90387 13.5602 9.90387 14.4074C9.90387 14.8374 9.95232 15.2215 10.0004 15.4976C10.0246 15.6361 10.0488 15.7486 10.0673 15.8275C10.0729 15.8513 10.078 15.8722 10.0824 15.8897C10.0853 15.9012 10.0878 15.9113 10.0901 15.92L10.097 15.9458L10.1001 15.957C10.1297 16.0615 10.2028 16.1474 10.2999 16.1921C10.3971 16.2368 10.5085 16.2357 10.6049 16.1892L17.8008 12.7143C17.8919 12.6703 17.961 12.5896 17.9916 12.4916C18.0223 12.3936 18.0116 12.287 17.9623 12.1973C17.4918 11.3421 17.5476 10.5826 17.717 10.0313C17.8026 9.75241 17.9179 9.52617 18.0115 9.37044C18.0581 9.29287 18.0987 9.23368 18.1266 9.19519C18.1406 9.17597 18.1513 9.16198 18.1579 9.15354L18.1655 9.14404C18.2212 9.07701 18.2518 8.99169 18.2518 8.90375C18.2518 8.77794 18.1893 8.6607 18.0858 8.59231ZM10.4493 15.8539L10.1001 15.957C10.1013 15.9567 10.1049 15.9555 10.1098 15.9541C10.1162 15.9522 10.1266 15.9491 10.1437 15.944L10.4493 15.8539ZM10.6311 14.4074C10.6311 13.6601 10.7982 12.8418 11.3787 12.2881L12.4437 11.8009L13.428 11.3506L17.0626 9.68797C17.049 9.72747 17.0358 9.76796 17.023 9.80939C16.8307 10.4358 16.7574 11.277 17.1547 12.2053L16.6678 12.4404L15.7141 12.901L10.708 15.3184C10.6682 15.0775 10.6311 14.7583 10.6311 14.4074Z" fill="#2B2B2B"/>
<path d="M12.2933 0.0164135C12.3653 -0.00618307 12.4424 -0.00546171 12.5141 0.0186625L22.0022 3.21055C22.1447 3.2585 22.2438 3.39091 22.2515 3.54385C22.2592 3.6968 22.174 3.83887 22.0371 3.90152L15.3257 6.97161C15.2374 7.01198 15.137 7.01483 15.0467 6.97949L5.39267 3.20081C5.25047 3.14515 5.15731 3.00495 5.1593 2.84954C5.16129 2.69413 5.258 2.55647 5.40158 2.50462L12.279 0.0212363L12.2933 0.0164135ZM6.57398 2.86841L15.166 6.2314L20.8841 3.61572L12.4045 0.763078L6.57398 2.86841Z" fill="#2B2B2B"/>
<path d="M5.33936 2.53412C5.43463 2.47729 5.55004 2.46768 5.65307 2.50801L15.3071 6.28666C15.4192 6.33054 15.5029 6.42808 15.5306 6.54729C15.5584 6.6665 15.5267 6.792 15.4459 6.88267C15.2529 7.09939 15.0988 7.31785 14.9769 7.53404C14.846 7.76621 14.7521 7.99576 14.6866 8.21772C14.5756 8.59371 14.5462 8.94793 14.5566 9.25625C14.5662 9.541 14.6099 9.78759 14.6566 9.97578C14.6645 10.0077 14.6725 10.0379 14.6804 10.0663C14.7076 10.1641 14.7339 10.2401 14.7525 10.29C14.7619 10.3149 14.7693 10.3333 14.774 10.3445C14.7763 10.3501 14.778 10.3539 14.7788 10.3559C14.8401 10.4902 14.8173 10.649 14.7214 10.7593C14.7189 10.7622 14.7164 10.7651 14.7138 10.7679C14.6113 10.8785 14.4531 10.9141 14.3146 10.8576L4.79297 6.97765C4.72205 6.94875 4.66184 6.8978 4.62089 6.83201C4.20397 6.16216 4.02172 5.55088 4.00189 5.00309C3.98205 4.45478 4.12583 3.99421 4.32447 3.62788C4.52165 3.26423 4.77237 2.99381 4.97109 2.81527C5.07104 2.72546 5.15961 2.65731 5.22461 2.61073C5.25717 2.58741 5.28398 2.56938 5.30356 2.55663C5.31336 2.55026 5.32136 2.54519 5.32739 2.54144C5.33039 2.53957 5.33736 2.53534 5.33936 2.53412C5.33936 2.53412 5.33934 2.53412 5.51016 2.83229L5.33936 2.53412ZM5.572 3.27104C5.53647 3.29892 5.49568 3.33265 5.45164 3.37222C5.29599 3.51207 5.10658 3.71821 4.96076 3.98714C4.81639 4.25338 4.7143 4.58145 4.72856 4.9757C4.74202 5.34744 4.85973 5.7994 5.17407 6.33391L5.3689 6.4133L6.39312 6.83066L13.894 9.88719C13.8621 9.70876 13.8374 9.50491 13.8299 9.28166C13.8169 8.89537 13.8557 8.45225 13.9958 7.98534C14.0633 7.76041 14.1542 7.52995 14.2742 7.29767C14.3603 7.1311 14.4613 6.96359 14.5792 6.7965L5.572 3.27104Z" fill="#2B2B2B"/>
<path d="M21.7395 3.22435C21.852 3.1729 21.9824 3.18311 22.0859 3.25149C22.1894 3.31988 22.2519 3.43712 22.2519 3.56293C22.2519 3.65087 22.2212 3.73619 22.1655 3.80322C22.1655 3.80322 22.1612 3.8085 22.1579 3.81272C22.1513 3.82116 22.1406 3.83515 22.1267 3.85437C22.0988 3.89286 22.0581 3.95205 22.0115 4.02962C21.918 4.18535 21.8027 4.41159 21.717 4.6905C21.5477 5.24181 21.4919 6.00131 21.9623 6.85647C22.0117 6.94618 22.0223 7.05277 21.9917 7.15079C21.9611 7.24881 21.8919 7.32948 21.8008 7.37349L14.6049 10.8484C14.5086 10.8949 14.3971 10.896 14.3 10.8513C14.2028 10.8066 14.1298 10.7207 14.1001 10.6162L14.4494 10.513L14.1438 10.6032C14.1001 10.6161 14.1001 10.6162 14.1001 10.6162C14.1001 10.6162 14.0979 10.6081 14.097 10.605C14.0953 10.5988 14.093 10.5901 14.0902 10.5792C14.0845 10.5573 14.0766 10.5261 14.0674 10.4867C14.0489 10.4078 14.0246 10.2953 14.0005 10.1568C13.9524 9.8807 13.9039 9.49662 13.9039 9.06653C13.9039 8.21943 14.0931 7.11754 14.9356 6.35537L14.9462 6.34623C14.9711 6.32535 14.9986 6.30795 15.0281 6.29448L21.7395 3.22435ZM15.3788 6.94723C14.7983 7.50096 14.6311 8.31924 14.6311 9.06653C14.6311 9.40606 14.6659 9.71595 14.7042 9.95391C14.7055 9.96189 14.7068 9.96978 14.7081 9.9776L15.7078 9.49481L21.1547 6.86449C20.7574 5.93622 20.8307 5.09495 21.0231 4.46857C21.0358 4.42714 21.0491 4.38665 21.0627 4.34715L15.3788 6.94723Z" fill="#2B2B2B"/>
</svg>
