<svg width="17" height="24" viewBox="0 0 17 24" fill="none" xmlns="http://www.w3.org/2000/svg">
<g clip-path="url(#clip0_1446_11534)">
<path d="M15.4159 2.61583C15.6045 2.20171 15.4216 1.71316 15.0075 1.52461L14.8498 1.45278C14.4356 1.26423 13.9471 1.44709 13.7585 1.86121L7.7243 15.1144C7.53575 15.5285 7.71862 16.017 8.13274 16.2056L8.2905 16.2774C8.70461 16.466 9.19314 16.2831 9.38169 15.869L15.4159 2.61583ZM10.1148 16.2028C9.74193 17.0218 8.77571 17.3834 7.95669 17.0106L7.79894 16.9387C6.97992 16.5658 6.61826 15.5996 6.99116 14.7806L13.0254 1.5274C13.3983 0.708385 14.3645 0.346733 15.1836 0.719637L15.3413 0.791465C16.1603 1.16437 16.522 2.13061 16.1491 2.94963L10.1148 16.2028Z" fill="#2B2B2B"/>
<path d="M5.5811 15.1235C8.29762 14.2905 10.3495 16.2146 10.6462 17.9954C10.9295 19.6946 10.3623 21.6861 8.24188 22.5586L8.24182 22.5586C7.28145 22.9536 6.27468 23.3097 5.10269 23.3841C3.92537 23.4588 2.60955 23.2481 1.02093 22.5553C0.865001 22.4872 0.768613 22.3286 0.7801 22.1589C0.791583 21.9892 0.908345 21.8451 1.07187 21.7986C1.07183 21.7987 1.07166 21.7987 1.07158 21.7987C1.07141 21.7988 1.07128 21.7988 1.07117 21.7988C1.07099 21.7989 1.07089 21.7989 1.07087 21.7989C1.07091 21.7989 1.07141 21.7988 1.07231 21.7985C1.07415 21.798 1.07773 21.7969 1.08294 21.7952C1.09339 21.7919 1.11035 21.7864 1.13288 21.7785C1.17804 21.7626 1.24515 21.7372 1.327 21.7011C1.49168 21.6283 1.71069 21.514 1.92959 21.349C2.36472 21.0208 2.78151 20.509 2.80885 19.7172C2.84054 18.7994 2.84553 17.8421 3.18838 17.033C3.55149 16.1761 4.26621 15.5267 5.5811 15.1235ZM9.85161 18.1278C9.62486 16.7664 8.0107 15.2211 5.81726 15.8937C4.67717 16.2433 4.18075 16.7558 3.93011 17.3473C3.65921 17.9866 3.64782 18.7641 3.61395 19.745C3.57573 20.8518 2.9778 21.5674 2.41459 21.9921C2.33924 22.049 2.26416 22.1009 2.19069 22.1482C3.2945 22.5273 4.22333 22.6328 5.05164 22.5802C6.08907 22.5143 6.99714 22.1994 7.93535 21.8136C9.61155 21.1239 10.0922 19.5709 9.85161 18.1279V18.1278Z" fill="#2B2B2B"/>
<path d="M10.6879 13.9545L10.366 14.693L7.95767 13.6432L8.27956 12.9048L10.6879 13.9545Z" fill="#2B2B2B"/>
</g>
<defs>
<clipPath id="clip0_1446_11534">
<rect width="17" height="24" fill="white"/>
</clipPath>
</defs>
</svg>
