<svg width="21" height="22" viewBox="0 0 21 22" fill="none" xmlns="http://www.w3.org/2000/svg">
<path d="M19.9952 7.12805C20.2035 7.1302 20.3707 7.30888 20.3687 7.52714L20.2925 15.6618C20.2905 18.7757 17.8801 21.2993 14.9073 21.2993H5.63177C2.65768 21.2993 0.246796 18.7736 0.246796 15.6579V5.94101C0.246796 2.82533 2.65766 0.29932 5.63177 0.299316H11.3579C11.5662 0.299316 11.7351 0.476266 11.7351 0.694545C11.7351 0.912824 11.5662 1.08977 11.3579 1.08977H5.63177C3.07442 1.08978 1.00132 3.26183 1.00132 5.94101V15.6579C1.00132 18.337 3.0744 20.5089 5.63177 20.5089H14.9073C17.4647 20.5089 19.538 18.337 19.538 15.6579V15.6559L19.538 15.654L19.6142 7.5194C19.6163 7.30113 19.7868 7.12591 19.9952 7.12805Z" fill="#2B2B2B"/>
<path d="M18.4791 1.89894C18.6099 1.7291 18.8475 1.70256 19.0096 1.83966C19.1717 1.97677 19.197 2.22558 19.0662 2.39543L9.8919 14.3016C9.76497 14.4664 9.53668 14.497 9.37415 14.3712L3.93244 10.1589C3.76488 10.0292 3.72941 9.78174 3.85322 9.60619C3.97704 9.43064 4.21328 9.39348 4.38085 9.52319L9.53181 13.5105L18.4791 1.89894Z" fill="#2B2B2B"/>
</svg>
