<svg width="12" height="16" viewBox="0 0 12 16" fill="none" xmlns="http://www.w3.org/2000/svg">
<g clip-path="url(#clip0_1476_6351)">
<path d="M10.7775 4.2002C11.1414 4.2002 11.4274 4.50187 11.398 4.85408V4.85418L10.616 14.1776V14.1776C10.5485 14.9813 9.85761 15.6002 9.02757 15.6002H2.95138C2.12012 15.6002 1.42837 14.9793 1.3627 14.1742L0.602092 4.85292L0.60098 4.83646C0.582218 4.49163 0.865129 4.2002 1.22263 4.2002H10.7775ZM1.22263 4.65995C1.13813 4.65996 1.07119 4.72768 1.07337 4.80855L1.0738 4.81642V4.8165L1.83442 14.1379V14.1379C1.88058 14.7039 2.36692 15.1404 2.95138 15.1404H9.02757C9.61115 15.1404 10.0969 14.7053 10.1444 14.1402L10.9264 4.81685C10.9334 4.73216 10.8647 4.65996 10.7775 4.65995H1.22263Z" fill="#2B2B2B"/>
<path d="M3.27473 5.7493L3.20651 5.75128C3.04472 5.75596 2.91738 5.89092 2.92206 6.0527L3.15485 14.0851C3.15953 14.2468 3.29449 14.3742 3.45627 14.3695L3.5245 14.3675C3.68628 14.3628 3.81363 14.2279 3.80894 14.0661L3.57616 6.03374C3.57147 5.87196 3.43652 5.74461 3.27473 5.7493Z" fill="#2B2B2B"/>
<path d="M8.4799 14.3216L8.54813 14.3235C8.70991 14.3282 8.84487 14.2009 8.84955 14.0391L9.08234 6.00673C9.08703 5.84495 8.95967 5.71 8.79789 5.70531L8.72967 5.70334C8.56788 5.69865 8.43293 5.826 8.42824 5.98778L8.19546 14.0201C8.19077 14.1819 8.31812 14.3169 8.4799 14.3216Z" fill="#2B2B2B"/>
<path d="M8.57228 1.115C8.57228 0.687977 8.13319 0.340596 7.58981 0.335194L7.57695 0.335133H4.42305C3.87376 0.335133 3.42772 0.684614 3.42772 1.115V1.66487H8.57228V1.115ZM9 2H3V1.115C3 0.499525 3.63753 0 4.42305 0H7.57695L7.59533 9.69715e-05C8.37239 0.00781558 9 0.504332 9 1.115V2Z" fill="#2B2B2B"/>
<path d="M11.4886 2.77167C11.4886 2.46957 11.1929 2.22426 10.829 2.22426H1.17098C0.806989 2.22426 0.511419 2.46967 0.511419 2.77167V3.09513C0.511419 3.13929 0.554869 3.17535 0.608068 3.17535H11.3919C11.4452 3.17534 11.4886 3.13928 11.4886 3.09513V2.77167ZM12 3.09513C12 3.37357 11.7278 3.5998 11.3919 3.5998H0.608068C0.272588 3.5998 0 3.37385 0 3.09513V2.77167C0 2.2353 0.524477 1.7998 1.17098 1.7998H10.829C11.4753 1.7998 12 2.2351 12 2.77167V3.09513Z" fill="#2B2B2B"/>
</g>
<defs>
<clipPath id="clip0_1476_6351">
<rect width="12" height="15.6" fill="white"/>
</clipPath>
</defs>
</svg>
