<?xml version="1.0" encoding="UTF-8"?>
<svg id="Calque_1" data-name="Calque 1" xmlns="http://www.w3.org/2000/svg" viewBox="0 0 1080 1080">
  <defs>
    <style>
      .cls-1 {
        stroke-width: 8.39px;
      }

      .cls-1, .cls-2, .cls-3, .cls-4, .cls-5, .cls-6 {
        stroke: #2b2b2b;
        stroke-miterlimit: 10;
      }

      .cls-1, .cls-2, .cls-3, .cls-4, .cls-6 {
        fill: #2b2b2b;
      }

      .cls-2 {
        stroke-width: 7px;
      }

      .cls-3 {
        stroke-width: 7.63px;
      }

      .cls-4 {
        stroke-width: 7.82px;
      }

      .cls-5 {
        fill: #fff;
      }

      .cls-5, .cls-6 {
        stroke-width: 29px;
      }
    </style>
  </defs>
  <path class="cls-5" d="M900.55,511.36c16.74,87.59,3.25,187.8-60.41,250.54-101.3,99.83-180.28-141.31-246.16-48.4-33.51,47.26,131.39,185.29-43.8,222.35-199.19,0-377.32-259.01-377.32-491.92,0-203.33,203.73-320.1,362.81-296.81,149.84,21.94,329.65,179.89,364.88,364.25Z"/>
  <circle class="cls-6" cx="711.53" cy="533.33" r="56.44"/>
  <ellipse class="cls-2" cx="535.79" cy="237.33" rx="42.03" ry="67.79" transform="translate(201.77 718.81) rotate(-79.14)"/>
  <ellipse class="cls-4" cx="276.69" cy="446.88" rx="52.48" ry="67.79" transform="translate(-50.97 35.91) rotate(-6.8)"/>
  <ellipse class="cls-1" cx="324.64" cy="648.31" rx="52.48" ry="78.03" transform="translate(-265.06 226.47) rotate(-27.82)"/>
  <ellipse class="cls-3" cx="361.25" cy="290.04" rx="66.64" ry="50.81" transform="translate(-74.64 133.11) rotate(-18.96)"/>
</svg>