<?xml version="1.0" encoding="UTF-8"?>
<svg id="Calque_1" data-name="Calque 1" xmlns="http://www.w3.org/2000/svg" viewBox="0 0 1080 1080">
  <defs>
    <style>
      .cls-1 {
        stroke-linecap: round;
      }

      .cls-1, .cls-2 {
        fill: #fff;
        stroke: #2b2b2b;
        stroke-miterlimit: 10;
        stroke-width: 29px;
      }
    </style>
  </defs>
  <path class="cls-2" d="M559.53,145.93h.57c27.45,0,49.74,22.29,49.74,49.74v386.02h-100.04V195.67c0-27.45,22.29-49.74,49.74-49.74Z" transform="translate(131.59 -148.42) rotate(17.09)"/>
  <path class="cls-2" d="M721.09,693.02c-.4,168.65-104.61,242.82-233.66,242.82s-230.29-108.76-233.66-242.82c-6.96-276.75,2.5-151.08,236.22-151.09,241.96,0,231.58-53.32,231.09,151.09Z"/>
  <rect class="cls-2" x="253.77" y="401.65" width="108.23" height="237.78" rx="53.81" ry="53.81"/>
  <rect class="cls-2" x="362" y="401.65" width="108.23" height="237.78" rx="53.81" ry="53.81"/>
  <path class="cls-1" d="M608.34,650.49s-172.45,24.29-172.45,125.96"/>
  <path class="cls-2" d="M552.99,136.9h.64c30.63,0,55.5,24.87,55.5,55.5v364.76c0,3.18-2.58,5.76-5.76,5.76h-100.11c-3.18,0-5.76-2.58-5.76-5.76V192.4c0-30.63,24.87-55.5,55.5-55.5Z" transform="translate(-79.6 182.55) rotate(-17.5)"/>
  <path class="cls-1" d="M721.09,627.91c0-6.86,0-28.24,0-31.86,0-6.02-.99-11.81-2.81-17.22-7.18-21.45-27.44-36.9-51.3-36.9h-176.98c-29.88,0-54.11,24.23-54.11,54.12s24.23,54.12,54.11,54.12h120.48"/>
</svg>