<?xml version="1.0" encoding="UTF-8"?>
<svg id="Calque_1" data-name="Calque 1" xmlns="http://www.w3.org/2000/svg" viewBox="0 0 1080 1080">
  <defs>
    <style>
      .cls-1 {
        fill: #fff;
        stroke: #2b2b2b;
        stroke-linecap: round;
        stroke-miterlimit: 10;
        stroke-width: 29px;
      }
    </style>
  </defs>
  <path class="cls-1" d="M888.53,444.93l-2.93,298.44c0,106.3-86.18,192.47-192.48,192.47H336.63c-106.3,0-192.47-86.17-192.47-192.47V386.88c0-106.3,86.17-192.48,192.47-192.48h220.08"/>
  <g>
    <path class="cls-1" d="M500.95,758.97l-131.75,15.8c-27.6,3.31-52.07-17.82-52.82-45.61l-3.57-132.65c-.32-11.76,3.77-23.22,11.46-32.13L658.27,177.61c34.85-40.35,95.81-44.82,136.16-9.97l60.66,52.38c40.35,34.85,44.82,95.81,9.97,136.16l-333.99,386.78c-7.69,8.91-18.43,14.62-30.12,16.02Z"/>
    <path class="cls-1" d="M618.73,223.39s45.45,143.23,206.79,178.57"/>
  </g>
</svg>