<?xml version="1.0" encoding="UTF-8"?>
<svg id="Calque_1" data-name="Calque 1" xmlns="http://www.w3.org/2000/svg" viewBox="0 0 1080 1080">
  <defs>
    <style>
      .cls-1 {
        fill: #fff;
        stroke: #2b2b2b;
        stroke-linecap: round;
        stroke-linejoin: round;
        stroke-width: 29px;
      }
    </style>
  </defs>
  <g>
    <polygon class="cls-1" points="485.84 539.5 864.22 664.23 596.56 784.21 211.57 636.54 485.84 539.5"/>
    <path class="cls-1" d="M211.57,636.54s-85.7,50.1-23.73,147.67l379.72,151.63s-36.92-79.11,29.01-151.63l-385-147.67Z"/>
    <path class="cls-1" d="M864.22,664.23s-51.88,60.65-9.69,135.8l-286.97,135.8s-29.01-100.2,29.01-151.63l267.65-119.98Z"/>
  </g>
  <g>
    <polygon class="cls-1" points="434.02 352.9 812.4 477.63 544.75 597.61 159.75 449.94 434.02 352.9"/>
    <path class="cls-1" d="M159.75,449.94s-85.7,50.1-23.73,147.67l379.72,151.63s-36.92-79.11,29.01-151.63L159.75,449.94Z"/>
    <path class="cls-1" d="M812.4,477.63s-51.88,60.65-9.69,135.8l-286.97,135.8s-29.01-100.2,29.01-151.63l267.65-119.98Z"/>
  </g>
  <g>
    <polygon class="cls-1" points="588.1 144.16 966.48 268.9 698.83 388.88 313.83 241.21 588.1 144.16"/>
    <path class="cls-1" d="M313.83,241.21s-85.7,50.1-23.73,147.67l379.72,151.63s-36.92-79.11,29.01-151.63L313.83,241.21Z"/>
    <path class="cls-1" d="M966.48,268.9s-51.88,60.65-9.69,135.8l-286.97,135.8s-29.01-100.2,29.01-151.63l267.65-119.98Z"/>
  </g>
</svg>