<?xml version="1.0" encoding="UTF-8"?>
<svg id="Calque_1" data-name="Calque 1" xmlns="http://www.w3.org/2000/svg" viewBox="0 0 1080 1080">
  <defs>
    <style>
      .cls-1 {
        fill: #2b2b2b;
      }

      .cls-2 {
        fill: #fff;
        stroke: #2b2b2b;
        stroke-miterlimit: 10;
        stroke-width: 29px;
      }
    </style>
  </defs>
  <g>
    <circle class="cls-2" cx="540" cy="310.53" r="166.36"/>
    <path class="cls-2" d="M423.77,536.96h232.47c99.23,0,179.79,80.56,179.79,179.79v219.08H243.97v-219.08c0-99.23,80.56-179.79,179.79-179.79Z"/>
  </g>
  <path class="cls-1" d="M890.39,114.21c15.39,14.14,23.09,33.07,23.09,56.79,0,26.5-8.2,46.13-24.61,58.87-16.41,12.75-38.62,19.12-66.63,19.12l-1.14,35.97h-29.91l-1.51-59.82h10.98c24.99,0,44.54-3.79,58.68-11.36,14.13-7.57,21.2-21.83,21.2-42.78,0-15.14-4.54-27.13-13.63-35.97-9.09-8.83-21.33-13.25-36.72-13.25s-27.96,4.23-36.91,12.68c-8.96,8.46-13.44,20.01-13.44,34.64h-32.56c0-15.14,3.41-28.45,10.22-39.94,6.81-11.48,16.47-20.38,28.96-26.69,12.49-6.31,26.94-9.47,43.35-9.47,24.99,0,45.18,7.07,60.57,21.2Zm-101.08,241.54c-4.54-4.54-6.81-10.09-6.81-16.66s2.27-12.12,6.81-16.66c4.54-4.54,10.09-6.82,16.66-6.82s11.67,2.27,16.09,6.82c4.41,4.54,6.63,10.1,6.63,16.66s-2.21,12.12-6.63,16.66c-4.42,4.54-9.78,6.82-16.09,6.82s-12.12-2.27-16.66-6.82Z"/>
</svg>