<?xml version="1.0" encoding="UTF-8"?>
<svg id="Calque_1" data-name="Calque 1" xmlns="http://www.w3.org/2000/svg" viewBox="0 0 1080 1080">
  <defs>
    <style>
      .cls-1 {
        fill: #2b2b2b;
      }

      .cls-2, .cls-3 {
        fill: none;
        stroke-width: 27px;
      }

      .cls-2, .cls-3, .cls-4 {
        stroke: #2b2b2b;
      }

      .cls-2, .cls-4 {
        stroke-miterlimit: 10;
      }

      .cls-3 {
        stroke-linecap: round;
        stroke-linejoin: round;
      }

      .cls-4 {
        fill: #fff;
        stroke-width: 29px;
      }
    </style>
  </defs>
  <path class="cls-3" d="M714.74,975.28H368.04c-40.39,0-74-31.05-77.19-71.31l-43.4-547.41c-1.02-12.81,9.1-23.76,21.95-23.76H814.59c12.87,0,22.99,10.98,21.95,23.81l-44.62,547.53c-3.28,40.19-36.85,71.14-77.18,71.14Z"/>
  <g>
    <rect class="cls-1" x="373.15" y="413.53" width="36.91" height="486.32" rx="16.53" ry="16.53" transform="translate(-18.81 11.59) rotate(-1.66)"/>
    <rect class="cls-1" x="670.6" y="410.97" width="36.91" height="486.32" rx="16.53" ry="16.53" transform="translate(1358.91 1327.9) rotate(-178.34)"/>
    <rect class="cls-1" x="521.87" y="408.32" width="36.91" height="486.32" rx="16.53" ry="16.53"/>
  </g>
  <path class="cls-2" d="M445.2,104.72h199.09c42.13,0,76.33,34.2,76.33,76.33v57.8H368.87v-57.8c0-42.13,34.2-76.33,76.33-76.33Z"/>
  <path class="cls-4" d="M266.17,179.88H813.83c28.64,0,51.9,23.25,51.9,51.9v22.1c0,11.02-8.95,19.98-19.98,19.98H234.25c-11.02,0-19.98-8.95-19.98-19.98v-22.1c0-28.64,23.25-51.9,51.9-51.9Z"/>
</svg>