<?xml version="1.0" encoding="UTF-8"?>
<svg id="Calque_1" data-name="Calque 1" xmlns="http://www.w3.org/2000/svg" viewBox="0 0 1080 1080">
  <defs>
    <style>
      .cls-1 {
        fill: none;
        stroke: #fff;
        stroke-linecap: round;
        stroke-linejoin: round;
        stroke-width: 24.21px;
      }

      .cls-2, .cls-3 {
        fill: #fff;
      }

      .cls-4 {
        fill: #2b2b2b;
      }

      .cls-3 {
        stroke: #2b2b2b;
        stroke-miterlimit: 10;
        stroke-width: 29px;
      }
    </style>
  </defs>
  <g>
    <circle class="cls-3" cx="540" cy="310.53" r="166.36"/>
    <path class="cls-3" d="M423.77,536.96h232.47c99.23,0,179.79,80.56,179.79,179.79v219.08H243.97v-219.08c0-99.23,80.56-179.79,179.79-179.79Z"/>
  </g>
  <g>
    <path class="cls-2" d="M730.07,80.2l11.96,17.66c1.7,2.52,4.87,3.59,7.76,2.64l20.23-6.69c3.7-1.22,7.67,.91,8.69,4.67l5.53,20.42c.8,2.96,3.49,5.02,6.55,5.02h21.62c3.96,0,7.08,3.37,6.77,7.32l-1.71,21.84c-.24,3.08,1.62,5.93,4.54,6.94l19.89,6.91c3.71,1.29,5.55,5.45,4.02,9.06l-8.22,19.41c-1.18,2.79-.37,6.02,1.98,7.92l16.54,13.4c3.02,2.45,3.37,6.93,.77,9.82l-14.23,15.79c-2.04,2.27-2.32,5.62-.68,8.2l11.54,18.09c2.11,3.3,.99,7.7-2.44,9.59l-18.76,10.38c-2.7,1.49-4.05,4.62-3.3,7.61l5.21,20.6c.97,3.82-1.51,7.65-5.38,8.35l-21.29,3.82c-3.02,.54-5.31,3.05-5.57,6.11l-1.78,21.02c-.33,3.92-3.92,6.74-7.81,6.14l-21.15-3.29c-3.02-.47-5.99,1.14-7.24,3.93l-8.75,19.51c-1.61,3.59-5.91,5.06-9.38,3.22l-19.02-10.11c-2.71-1.44-6.06-.88-8.16,1.37l-14.45,15.52c-2.7,2.9-7.3,2.88-9.97-.04l-14.43-15.74c-2.11-2.3-5.52-2.87-8.26-1.37l-18.8,10.25c-3.48,1.9-7.84,.43-9.45-3.19l-8.71-19.5c-1.26-2.81-4.25-4.43-7.29-3.93l-21.02,3.43c-3.88,.63-7.48-2.15-7.85-6.06l-2.02-21.33c-.29-3.04-2.57-5.51-5.58-6.05l-21.17-3.74c-3.89-.69-6.38-4.54-5.4-8.37l5.27-20.65c.77-3.02-.61-6.17-3.35-7.65l-18.77-10.16c-3.5-1.89-4.62-6.37-2.45-9.69l11.73-17.89c1.71-2.61,1.42-6.04-.69-8.33l-14.37-15.55c-2.68-2.9-2.33-7.48,.77-9.93l16.77-13.26c2.41-1.91,3.24-5.2,2.02-8.03l-8.5-19.62c-1.57-3.62,.26-7.8,3.98-9.11l20.24-7.09c2.9-1.02,4.76-3.86,4.52-6.93l-1.64-21.21c-.3-3.93,2.8-7.3,6.75-7.31l21.39-.07c3.09-.01,5.78-2.1,6.55-5.09l5.38-20.83c.99-3.82,5.02-6,8.76-4.73l20.18,6.85c2.91,.99,6.13-.11,7.83-2.67l11.67-17.53c2.17-3.26,6.64-4.01,9.76-1.64l17.01,12.93c2.44,1.85,5.81,1.85,8.24-.02l16.85-12.91c3.1-2.38,7.56-1.65,9.75,1.58Z"/>
    <path class="cls-4" d="M724.85,106.66l9.93,14.66c1.41,2.09,4.04,2.98,6.44,2.19l16.79-5.56c3.07-1.02,6.37,.75,7.21,3.88l4.59,16.95c.67,2.46,2.89,4.16,5.44,4.16h17.95c3.29,0,5.88,2.8,5.62,6.08l-1.42,18.13c-.2,2.55,1.35,4.92,3.77,5.76l16.51,5.74c3.08,1.07,4.61,4.52,3.34,7.52l-6.82,16.11c-.98,2.31-.31,4.99,1.64,6.58l13.73,11.13c2.51,2.03,2.8,5.75,.64,8.15l-11.81,13.11c-1.7,1.88-1.93,4.67-.56,6.8l9.58,15.02c1.75,2.74,.82,6.39-2.02,7.96l-15.57,8.61c-2.24,1.24-3.36,3.83-2.74,6.31l4.33,17.1c.8,3.17-1.25,6.35-4.47,6.93l-17.67,3.17c-2.51,.45-4.4,2.53-4.62,5.07l-1.48,17.45c-.28,3.26-3.25,5.59-6.48,5.09l-17.56-2.73c-2.51-.39-4.97,.95-6.01,3.26l-7.26,16.19c-1.33,2.98-4.91,4.2-7.79,2.67l-15.79-8.39c-2.25-1.2-5.03-.73-6.77,1.14l-12,12.88c-2.24,2.41-6.06,2.39-8.28-.03l-11.98-13.06c-1.75-1.91-4.58-2.38-6.85-1.14l-15.6,8.51c-2.89,1.57-6.5,.35-7.85-2.65l-7.23-16.18c-1.04-2.34-3.53-3.68-6.05-3.26l-17.45,2.85c-3.22,.53-6.21-1.78-6.52-5.03l-1.68-17.7c-.24-2.52-2.13-4.58-4.63-5.02l-17.57-3.1c-3.23-.57-5.29-3.77-4.48-6.94l4.38-17.14c.64-2.5-.51-5.12-2.78-6.35l-15.58-8.44c-2.9-1.57-3.84-5.29-2.03-8.05l9.73-14.85c1.42-2.16,1.18-5.01-.57-6.91l-11.93-12.91c-2.23-2.41-1.93-6.21,.64-8.24l13.92-11.01c2-1.58,2.69-4.32,1.67-6.66l-7.06-16.28c-1.3-3,.22-6.48,3.31-7.56l16.8-5.89c2.41-.85,3.95-3.21,3.75-5.75l-1.36-17.61c-.25-3.27,2.32-6.06,5.6-6.07l17.75-.06c2.56,0,4.8-1.75,5.44-4.23l4.46-17.29c.82-3.17,4.16-4.98,7.27-3.93l16.75,5.69c2.42,.82,5.09-.09,6.5-2.21l9.68-14.55c1.8-2.71,5.51-3.33,8.1-1.36l14.12,10.73c2.02,1.54,4.82,1.53,6.84-.01l13.99-10.72c2.57-1.97,6.28-1.37,8.09,1.31Z"/>
    <polyline class="cls-1" points="641.99 248.93 684.71 280.5 756.75 191.26"/>
  </g>
</svg>