<?xml version="1.0" encoding="UTF-8"?>
<svg id="Calque_1" data-name="Calque 1" xmlns="http://www.w3.org/2000/svg" viewBox="0 0 1080 1080">
  <defs>
    <style>
      .cls-1 {
        fill: #2b2b2b;
      }

      .cls-2 {
        fill: none;
        stroke: #2b2b2b;
        stroke-linecap: round;
        stroke-linejoin: round;
        stroke-width: 29px;
      }
    </style>
  </defs>
  <g>
    <line class="cls-2" x1="540" y1="736.36" x2="540" y2="169.72"/>
    <path class="cls-1" d="M679.19,538.15c-6.74-4.3-15.72-2.29-20.02,4.47l-119.17,187.11-119.17-187.11c-4.3-6.77-13.28-8.78-20.02-4.47-6.74,4.3-8.69,13.34-4.45,20.05l131.41,206.31c2.66,4.16,7.28,6.71,12.23,6.71s9.57-2.55,12.23-6.71l131.41-206.31c1.53-2.44,2.27-5.13,2.27-7.79,0-4.79-2.38-9.49-6.71-12.26Z"/>
  </g>
  <polyline class="cls-2" points="917.59 703.29 917.59 910.28 162.41 910.28 162.41 703.29"/>
</svg>