<svg width="26" height="33" viewBox="0 0 26 33" fill="none" xmlns="http://www.w3.org/2000/svg">
<g clip-path="url(#clip0_1052_13452)">
<path d="M11.7183 14.625C15.1564 14.625 17.9436 11.7708 17.9436 8.25C17.9436 4.72918 15.1564 1.875 11.7183 1.875C8.2801 1.875 5.49292 4.72918 5.49292 8.25C5.49292 11.7708 8.2801 14.625 11.7183 14.625Z" fill="#FF9A3C"/>
<path d="M17.5897 8.43752C17.5897 5.2204 15.043 2.6124 11.9014 2.61239C8.75977 2.61239 6.21299 5.2204 6.21299 8.43752C6.213 11.6546 8.75978 14.2626 11.9014 14.2626C15.043 14.2626 17.5897 11.6546 17.5897 8.43752ZM18.676 8.43752C18.676 12.269 15.6429 15.375 11.9014 15.375C8.15984 15.375 5.12672 12.269 5.12671 8.43752C5.12671 4.60604 8.15984 1.5 11.9014 1.5C15.6429 1.50001 18.676 4.60605 18.676 8.43752Z" fill="#FF9A3C"/>
<path d="M7.51615 17.25H16.2871C20.031 17.25 23.0704 20.2796 23.0704 24.0112V32.25H0.732422V24.0112C0.732422 20.2796 3.7719 17.25 7.51578 17.25H7.51615Z" fill="#FF9A3C"/>
<path d="M22.3423 23.9924C22.3423 20.4746 19.5472 17.6183 16.1048 17.6183H7.33182C3.88943 17.6183 1.09436 20.4746 1.09436 23.9924V31.8817H22.3423V23.9924ZM23.4366 33H0V23.9924C0 19.857 3.28503 16.5 7.33182 16.5H16.1048C20.1516 16.5 23.4366 19.857 23.4366 23.9924V33Z" fill="#FF9A3C"/>
<path d="M25.1351 0.826149C25.7116 1.37691 26 2.11426 26 3.03817C26 4.07037 25.6929 4.83498 25.0782 5.33121C24.4635 5.82784 23.6316 6.07595 22.5824 6.07595L22.5397 7.47702H21.4194L21.3628 5.14697H21.7741C22.7102 5.14697 23.4424 4.99935 23.9721 4.70449C24.5014 4.40963 24.7662 3.85419 24.7662 3.03817C24.7662 2.44845 24.5961 1.98143 24.2556 1.63711C23.9152 1.29317 23.4567 1.12101 22.8802 1.12101C22.3038 1.12101 21.8329 1.28577 21.4977 1.61491C21.1621 1.94443 20.9943 2.39431 20.9943 2.96417H19.7747C19.7747 2.37445 19.9024 1.85601 20.1575 1.40847C20.4125 0.961309 20.7744 0.614646 21.2422 0.368865C21.7101 0.123085 22.2513 0 22.866 0C23.802 0 24.5583 0.275383 25.1348 0.825759L25.1351 0.826149ZM21.349 10.2344C21.1789 10.0575 21.0939 9.84134 21.0939 9.58543C21.0939 9.32952 21.1789 9.11335 21.349 8.93651C21.519 8.75967 21.7269 8.67086 21.973 8.67086C22.2191 8.67086 22.4101 8.75928 22.5757 8.93651C22.7409 9.11335 22.824 9.32991 22.824 9.58543C22.824 9.84095 22.7413 10.0575 22.5757 10.2344C22.4101 10.4112 22.2094 10.5 21.973 10.5C21.7367 10.5 21.519 10.4116 21.349 10.2344Z" fill="#FF9A3C"/>
</g>
<defs>
<clipPath id="clip0_1052_13452">
<rect width="26" height="33" fill="white"/>
</clipPath>
</defs>
</svg>
