<svg width="30" height="31" viewBox="0 0 30 31" fill="none" xmlns="http://www.w3.org/2000/svg">
<path d="M7 12C7.55228 12 8 12.4477 8 13V30C8 30.5523 7.55228 31 7 31H1C0.447715 31 4.02663e-09 30.5523 0 30V13C0 12.4477 0.447715 12 1 12H7ZM18 0C18.5523 0 19 0.447715 19 1V30C19 30.5523 18.5523 31 18 31H12C11.4477 31 11 30.5523 11 30V1C11 0.447716 11.4477 0 12 0H18ZM29 7C29.5523 7 30 7.44772 30 8V30C30 30.5523 29.5523 31 29 31H23C22.4477 31 22 30.5523 22 30V8C22 7.44772 22.4477 7 23 7H29Z" fill="#B1D1A0"/>
</svg>
