<svg width="23" height="30" viewBox="0 0 23 30" fill="none" xmlns="http://www.w3.org/2000/svg">
<g clip-path="url(#clip0_1052_13578)">
<path d="M11.4806 13.0943C14.6499 13.0943 17.2191 10.4953 17.2191 7.28922C17.2191 4.08316 14.6499 1.48413 11.4806 1.48413C8.31138 1.48413 5.74219 4.08316 5.74219 7.28922C5.74219 10.4953 8.31138 13.0943 11.4806 13.0943Z" fill="#FE88B4"/>
<path d="M16.7189 7.2891C16.7189 4.36249 14.3736 1.98998 11.4806 1.98997C8.58755 1.98997 6.24228 4.36248 6.24228 7.2891C6.24228 10.2157 8.58756 12.5882 11.4806 12.5882C14.3736 12.5882 16.7189 10.2157 16.7189 7.2891ZM17.7192 7.2891C17.7192 10.7746 14.9261 13.6001 11.4806 13.6001C8.03509 13.6001 5.24195 10.7746 5.24194 7.2891C5.24194 3.8036 8.03508 0.978027 11.4806 0.978027C14.9261 0.978034 17.7192 3.8036 17.7192 7.2891Z" fill="#FE88B4"/>
<path d="M7.47135 15.1899H15.4902C18.9131 15.1899 21.6919 18.0011 21.6919 21.4637V29.1084H1.26929V21.4637C1.26929 18.0011 4.04814 15.1899 7.47101 15.1899H7.47135Z" fill="#FE88B4"/>
<path d="M21.192 21.4638C21.192 18.2806 18.637 15.696 15.4904 15.696H7.47117C4.32454 15.696 1.76962 18.2806 1.76962 21.4638V28.6026H21.192V21.4638ZM22.1923 29.6145H0.769287V21.4638C0.769287 17.7217 3.77208 14.6841 7.47117 14.6841H15.4904C19.1895 14.6841 22.1923 17.7217 22.1923 21.4638V29.6145Z" fill="#FE88B4"/>
</g>
<defs>
<clipPath id="clip0_1052_13578">
<rect width="23" height="30" fill="white"/>
</clipPath>
</defs>
</svg>
