<svg width="42" height="42" viewBox="0 0 42 42" fill="none" xmlns="http://www.w3.org/2000/svg">
<path d="M21.4523 20.9359C23.5627 20.9359 25.2735 19.2251 25.2735 17.1147C25.2735 15.0043 23.5627 13.2935 21.4523 13.2935C19.3419 13.2935 17.6311 15.0043 17.6311 17.1147C17.6311 19.2251 19.3419 20.9359 21.4523 20.9359Z" fill="#FE6744"/>
<path d="M24.7096 17.1146C24.7096 15.3156 23.2512 13.8573 21.4522 13.8573C19.6533 13.8573 18.1949 15.3156 18.1949 17.1146C18.1949 18.9136 19.6533 20.3719 21.4522 20.3719C23.2512 20.3719 24.7096 18.9136 24.7096 17.1146ZM25.8374 17.1146C25.8374 19.5364 23.8741 21.4997 21.4522 21.4997C19.0304 21.4997 17.0671 19.5364 17.0671 17.1146C17.0671 14.6928 19.0304 12.7295 21.4522 12.7295C23.8741 12.7295 25.8374 14.6928 25.8374 17.1146Z" fill="#FE6744"/>
<path d="M33.4356 11.1449C34.8778 11.1449 36.047 9.97574 36.047 8.53351C36.047 7.09128 34.8778 5.92212 33.4356 5.92212C31.9934 5.92212 30.8242 7.09128 30.8242 8.53351C30.8242 9.97574 31.9934 11.1449 33.4356 11.1449Z" fill="#FE6744"/>
<path d="M35.483 8.53345C35.483 7.40265 34.5663 6.48594 33.4355 6.48593C32.3047 6.48593 31.388 7.40264 31.388 8.53345C31.388 9.66424 32.3047 10.5809 33.4355 10.5809C34.5663 10.5809 35.483 9.66424 35.483 8.53345ZM36.6108 8.53345C36.6108 10.2871 35.1892 11.7087 33.4355 11.7087C31.6819 11.7087 30.2603 10.2871 30.2603 8.53345C30.2603 6.77979 31.6819 5.35815 33.4355 5.35815C35.1892 5.35816 36.6108 6.77979 36.6108 8.53345Z" fill="#FE6744"/>
<path d="M8.04805 9.4877C9.03259 9.4877 9.83071 8.68957 9.83071 7.70503C9.83071 6.72049 9.03259 5.92236 8.04805 5.92236C7.06351 5.92236 6.26538 6.72049 6.26538 7.70503C6.26538 8.68957 7.06351 9.4877 8.04805 9.4877Z" fill="#FE6744"/>
<path d="M9.26674 7.70495C9.26673 7.03184 8.72108 6.48618 8.04797 6.48618C7.37486 6.48618 6.8292 7.03184 6.82919 7.70495C6.82919 8.37806 7.37486 8.92372 8.04797 8.92372C8.72108 8.92372 9.26674 8.37806 9.26674 7.70495ZM10.3945 7.70495C10.3945 9.00092 9.34393 10.0515 8.04797 10.0515C6.752 10.0515 5.70142 9.00091 5.70142 7.70495C5.70142 6.40899 6.752 5.3584 8.04797 5.3584C9.34393 5.3584 10.3945 6.40898 10.3945 7.70495Z" fill="#FE6744"/>
<path d="M9.29261 35.0342C11.1367 35.0342 12.6316 33.5393 12.6316 31.6952C12.6316 29.8511 11.1367 28.3562 9.29261 28.3562C7.44853 28.3562 5.95361 29.8511 5.95361 31.6952C5.95361 33.5393 7.44853 35.0342 9.29261 35.0342Z" fill="#FE6744"/>
<path d="M12.0676 31.6951C12.0676 30.1625 10.8252 28.92 9.29255 28.92C7.7599 28.92 6.51743 30.1625 6.51743 31.6951C6.51743 33.2278 7.7599 34.4702 9.29255 34.4702C10.8252 34.4702 12.0676 33.2278 12.0676 31.6951ZM13.1954 31.6951C13.1954 33.8506 11.448 35.598 9.29255 35.598C7.13705 35.598 5.38965 33.8506 5.38965 31.6951C5.38965 29.5396 7.13704 27.7922 9.29255 27.7922C11.4481 27.7922 13.1954 29.5396 13.1954 31.6951Z" fill="#FE6744"/>
<path d="M24.1781 36.0777C26.0222 36.0777 27.5171 34.5827 27.5171 32.7387C27.5171 30.8946 26.0222 29.3997 24.1781 29.3997C22.334 29.3997 20.8391 30.8946 20.8391 32.7387C20.8391 34.5827 22.334 36.0777 24.1781 36.0777Z" fill="#FE6744"/>
<path d="M26.9531 32.7386C26.9531 31.2059 25.7107 29.9635 24.178 29.9635C22.6454 29.9635 21.4029 31.2059 21.4029 32.7386C21.4029 34.2712 22.6454 35.5137 24.178 35.5137C25.7107 35.5137 26.9531 34.2712 26.9531 32.7386ZM28.0809 32.7386C28.0809 34.8941 26.3335 36.6415 24.178 36.6415C22.0225 36.6415 20.2752 34.8941 20.2751 32.7386C20.2751 30.5831 22.0225 28.8357 24.178 28.8357C26.3335 28.8357 28.0809 30.5831 28.0809 32.7386Z" fill="#FE6744"/>
<path d="M32.2584 24.0959C33.4526 24.0959 34.4206 23.1279 34.4206 21.9337C34.4206 20.7395 33.4526 19.7715 32.2584 19.7715C31.0643 19.7715 30.0962 20.7395 30.0962 21.9337C30.0962 23.1279 31.0643 24.0959 32.2584 24.0959Z" fill="#FE6744"/>
<path d="M33.8567 21.9336C33.8567 21.0509 33.1411 20.3353 32.2583 20.3353C31.3756 20.3353 30.66 21.0509 30.66 21.9336C30.66 22.8163 31.3756 23.532 32.2583 23.532C33.1411 23.532 33.8567 22.8164 33.8567 21.9336ZM34.9845 21.9336C34.9845 23.4392 33.7639 24.6597 32.2583 24.6597C30.7527 24.6597 29.5322 23.4392 29.5322 21.9336C29.5322 20.428 30.7527 19.2075 32.2583 19.2075C33.7639 19.2075 34.9844 20.428 34.9845 21.9336Z" fill="#FE6744"/>
<path d="M8.82302 8.66853C8.99555 8.40927 9.34559 8.33897 9.60486 8.51149L18.6025 14.4988C18.8618 14.6714 18.9321 15.0214 18.7596 15.2807C18.5871 15.5399 18.237 15.6102 17.9778 15.4377L8.98005 9.45037C8.7208 9.27784 8.65049 8.9278 8.82302 8.66853Z" fill="#FE6744"/>
<path d="M31.1315 9.84199C31.3714 9.64337 31.7268 9.6768 31.9254 9.91666C32.1241 10.1565 32.0906 10.512 31.8508 10.7106L25.3474 16.096C25.1075 16.2946 24.752 16.2611 24.5534 16.0213C24.3548 15.7814 24.3882 15.4259 24.6281 15.2273L31.1315 9.84199Z" fill="#FE6744"/>
<path d="M18.5081 19.6328C18.7078 19.3938 19.0634 19.3619 19.3024 19.5616C19.5414 19.7613 19.5732 20.1169 19.3735 20.3559L11.7898 29.4322C11.5901 29.6711 11.2345 29.703 10.9956 29.5033C10.7566 29.3036 10.7247 28.948 10.9244 28.709L18.5081 19.6328Z" fill="#FE6744"/>
<path d="M22.1066 20.3067C22.4145 20.26 22.702 20.4718 22.7487 20.7797L24.0542 29.3846C24.1009 29.6925 23.8892 29.98 23.5813 30.0267C23.2734 30.0734 22.9859 29.8617 22.9392 29.5538L21.6337 20.9488C21.5869 20.6409 21.7987 20.3535 22.1066 20.3067Z" fill="#FE6744"/>
<path d="M24.3087 18.6924C24.4173 18.4005 24.7419 18.2519 25.0338 18.3605L30.5366 20.4072C30.8285 20.5158 30.9771 20.8404 30.8686 21.1323C30.76 21.4242 30.4353 21.5728 30.1435 21.4643L24.6407 19.4175C24.3488 19.309 24.2002 18.9843 24.3087 18.6924Z" fill="#FE6744"/>
</svg>
