<svg width="33" height="33" viewBox="0 0 33 33" fill="none" xmlns="http://www.w3.org/2000/svg">
<path d="M25.2331 5.42749H9.70662C7.3142 5.42749 5.37476 7.36693 5.37476 9.75935V25.2859C5.37476 27.6783 7.3142 29.6177 9.70662 29.6177H25.2331C27.6255 29.6177 29.565 27.6783 29.565 25.2859V9.75935C29.565 7.36693 27.6255 5.42749 25.2331 5.42749Z" fill="#5DC9F4"/>
<path d="M29.1219 9.75952C29.1218 7.6118 27.3808 5.87073 25.2331 5.87073H9.70657C7.55885 5.87073 5.81776 7.6118 5.81775 9.75952V25.286C5.81775 27.4338 7.55885 29.1748 9.70657 29.1748H25.2331C27.3808 29.1748 29.1218 27.4338 29.1219 25.286V9.75952ZM30.008 25.286C30.008 27.9231 27.8702 30.0609 25.2331 30.0609H9.70657C7.06946 30.0609 4.93164 27.9231 4.93164 25.286V9.75952C4.93165 7.12241 7.06946 4.98462 9.70657 4.98462H25.2331C27.8702 4.98462 30.008 7.12242 30.008 9.75952V25.286Z" fill="#5DC9F4"/>
<path d="M25.0598 10.7405C25.6039 10.7405 26.0449 10.2994 26.0449 9.75537C26.0449 9.21131 25.6039 8.77026 25.0598 8.77026C24.5158 8.77026 24.0747 9.21131 24.0747 9.75537C24.0747 10.2994 24.5158 10.7405 25.0598 10.7405Z" fill="white"/>
<path d="M9.24278 3.47314L9.60822 4.01275C9.66017 4.08975 9.75703 4.12245 9.84533 4.09342L10.4635 3.889C10.5765 3.85173 10.6978 3.91681 10.729 4.0317L10.898 4.65564C10.9224 4.74609 11.0046 4.80903 11.0981 4.80903H11.7587C11.8797 4.80903 11.9751 4.912 11.9656 5.0327L11.9133 5.70003C11.906 5.79414 11.9628 5.88123 12.0521 5.91209L12.6598 6.12323C12.7732 6.16264 12.8294 6.28976 12.7826 6.40006L12.5315 6.99314C12.4954 7.07839 12.5202 7.17709 12.592 7.23514L13.0974 7.64459C13.1896 7.71945 13.2003 7.85634 13.1209 7.94464L12.6861 8.42712C12.6238 8.49648 12.6152 8.59884 12.6653 8.67767L13.0179 9.23042C13.0824 9.33125 13.0482 9.4657 12.9434 9.52345L12.3701 9.84062C12.2876 9.88614 12.2464 9.98178 12.2693 10.0731L12.4285 10.7026C12.4581 10.8193 12.3824 10.9363 12.2641 10.9577L11.6136 11.0745C11.5213 11.091 11.4513 11.1676 11.4434 11.2611L11.389 11.9034C11.3789 12.0232 11.2692 12.1094 11.1504 12.091L10.5041 11.9905C10.4118 11.9761 10.3211 12.0253 10.2829 12.1106L10.0155 12.7067C9.96633 12.8164 9.83494 12.8613 9.72892 12.8051L9.14775 12.4962C9.06495 12.4522 8.96258 12.4693 8.89842 12.5381L8.45689 13.0123C8.37439 13.1009 8.23383 13.1003 8.15225 13.0111L7.71133 12.5301C7.64686 12.4598 7.54267 12.4424 7.45895 12.4883L6.8845 12.8014C6.77817 12.8595 6.64495 12.8146 6.59575 12.704L6.32961 12.1081C6.29111 12.0223 6.19975 11.9728 6.10686 11.9881L5.46458 12.0929C5.34603 12.1121 5.23603 12.0272 5.22472 11.9077L5.163 11.2559C5.15414 11.1631 5.08447 11.0876 4.9925 11.0711L4.34564 10.9568C4.22678 10.9357 4.1507 10.8181 4.18064 10.7011L4.34167 10.0701C4.3652 9.97781 4.32303 9.88156 4.23931 9.83634L3.66578 9.52589C3.55883 9.46814 3.52461 9.33126 3.59092 9.22981L3.94933 8.68317C4.00158 8.60342 3.99272 8.49862 3.92825 8.42864L3.48917 7.95351C3.40728 7.86489 3.41797 7.72495 3.5127 7.65009L4.02511 7.24492C4.09875 7.18656 4.12411 7.08603 4.08683 6.99956L3.82711 6.40006C3.77914 6.28945 3.83506 6.16173 3.94872 6.1217L4.56717 5.90506C4.65578 5.87389 4.71261 5.78712 4.70528 5.69331L4.65517 5.04523C4.646 4.92514 4.74072 4.82217 4.86142 4.82187L5.515 4.81973C5.60942 4.81942 5.69161 4.75556 5.71514 4.6642L5.87953 4.02773C5.90978 3.911 6.03292 3.84439 6.1472 3.8832L6.76381 4.0925C6.85272 4.12275 6.95111 4.08914 7.00306 4.01092L7.35964 3.47528C7.42595 3.37567 7.56253 3.35275 7.65786 3.42517L8.17761 3.82025C8.25217 3.87678 8.35514 3.87678 8.42939 3.81964L8.94425 3.42517C9.03897 3.35245 9.17525 3.37475 9.24217 3.47345L9.24278 3.47314Z" fill="white"/>
<path d="M9.0833 4.2817L9.38672 4.72965C9.4298 4.79351 9.51016 4.8207 9.58349 4.79656L10.0965 4.62667C10.1903 4.59551 10.2912 4.64959 10.3168 4.74523L10.4571 5.26315C10.4776 5.33831 10.5454 5.39026 10.6233 5.39026H11.1718C11.2723 5.39026 11.3514 5.47581 11.3435 5.57604L11.3001 6.13001C11.294 6.20792 11.3414 6.28034 11.4153 6.30601L11.9198 6.4814C12.0139 6.51409 12.0606 6.61951 12.0218 6.71117L11.8134 7.20342C11.7835 7.27401 11.804 7.3559 11.8636 7.40448L12.2831 7.74456C12.3598 7.80659 12.3686 7.92026 12.3026 7.99359L11.9418 8.39417C11.8898 8.45162 11.8828 8.53687 11.9247 8.60195L12.2174 9.0609C12.2709 9.14462 12.2424 9.25615 12.1557 9.30412L11.6799 9.5672C11.6115 9.60509 11.5772 9.68423 11.5962 9.76001L11.7285 10.2825C11.7529 10.3794 11.6903 10.4765 11.5919 10.4943L11.052 10.5911C10.9753 10.6049 10.9175 10.6684 10.9108 10.746L10.8656 11.2792C10.8571 11.3788 10.7663 11.45 10.6676 11.4348L10.1311 11.3513C10.0544 11.3394 9.97919 11.3804 9.94741 11.451L9.72558 11.9456C9.68494 12.0367 9.57555 12.074 9.48755 12.0272L9.00508 11.7709C8.93633 11.7342 8.85138 11.7486 8.79822 11.8057L8.43155 12.1993C8.36311 12.2729 8.24638 12.2723 8.17855 12.1983L7.81249 11.7993C7.75902 11.7409 7.67255 11.7266 7.60319 11.7645L7.12652 12.0245C7.03822 12.0725 6.92791 12.0352 6.88666 11.9435L6.66574 11.4491C6.63397 11.3776 6.55788 11.3367 6.48088 11.3495L5.94769 11.4366C5.8493 11.4528 5.75794 11.3822 5.74847 11.2829L5.69713 10.7421C5.6898 10.6651 5.63205 10.6021 5.55566 10.5887L5.0188 10.494C4.92011 10.4765 4.85716 10.3788 4.88191 10.2819L5.01574 9.75817C5.0353 9.68179 5.00016 9.60173 4.9308 9.56415L4.45474 9.30626C4.36613 9.25829 4.33741 9.14462 4.39272 9.06029L4.69002 8.60654C4.73341 8.54054 4.72608 8.45345 4.67261 8.3954L4.30808 8.00093C4.23994 7.92729 4.24911 7.81118 4.32763 7.74915L4.75297 7.41273C4.81408 7.36445 4.83516 7.28073 4.80399 7.20923L4.58827 6.71179C4.54855 6.62012 4.59499 6.51379 4.68941 6.48079L5.20274 6.30081C5.27638 6.27484 5.32344 6.20273 5.31733 6.12512L5.27577 5.58704C5.26813 5.48712 5.34666 5.40187 5.44688 5.40156L5.98924 5.39973C6.06747 5.39973 6.13591 5.34626 6.15547 5.27048L6.29174 4.74217C6.3168 4.64531 6.41886 4.59001 6.51388 4.62209L7.02569 4.79595C7.09963 4.82101 7.18122 4.7932 7.2243 4.72842L7.52008 4.28384C7.57508 4.20104 7.68844 4.18209 7.76758 4.24229L8.19902 4.57015C8.26074 4.6172 8.3463 4.6169 8.40802 4.56984L8.83549 4.24229C8.91402 4.18209 9.02738 4.20042 9.08269 4.28231L9.0833 4.2817Z" fill="#5DC9F4"/>
<path d="M9.77017 6.63438C9.89848 6.47543 10.1314 6.4506 10.2903 6.57891C10.4492 6.70722 10.4741 6.94009 10.3458 7.09904L8.14455 9.82582C8.02009 9.97998 7.79626 10.0087 7.63692 9.89096L6.33159 8.92632C6.16731 8.80491 6.13255 8.5733 6.25395 8.40902C6.37536 8.24474 6.60696 8.20997 6.77125 8.33138L7.79155 9.08539L9.77017 6.63438Z" fill="white"/>
<path d="M17.4699 23.2828C20.651 23.2828 23.2299 20.7039 23.2299 17.5227C23.2299 14.3415 20.651 11.7627 17.4699 11.7627C14.2887 11.7627 11.7098 14.3415 11.7098 17.5227C11.7098 20.7039 14.2887 23.2828 17.4699 23.2828Z" fill="white"/>
<path d="M22.7868 17.5227C22.7868 14.5862 20.4063 12.2057 17.4698 12.2057C14.5333 12.2057 12.1528 14.5862 12.1528 17.5227C12.1528 20.4591 14.5333 22.8396 17.4698 22.8396C20.4063 22.8396 22.7868 20.4591 22.7868 17.5227ZM23.6729 17.5227C23.6729 20.9485 20.8957 23.7257 17.4698 23.7257C14.0439 23.7257 11.2667 20.9485 11.2667 17.5227C11.2667 14.0968 14.0439 11.3196 17.4698 11.3196C20.8957 11.3196 23.6729 14.0968 23.6729 17.5227Z" fill="#5DC9F4"/>
<path d="M20.4393 17.5227C20.4393 15.8828 19.1098 14.5533 17.4699 14.5533C15.8299 14.5534 14.5005 15.8828 14.5005 17.5227C14.5005 19.1627 15.8299 20.4921 17.4699 20.4921C19.1098 20.4921 20.4393 19.1627 20.4393 17.5227ZM21.3254 17.5227C21.3254 19.6521 19.5992 21.3782 17.4699 21.3782C15.3405 21.3782 13.6144 19.6521 13.6144 17.5227C13.6144 15.3934 15.3405 13.6672 17.4699 13.6672C19.5992 13.6672 21.3254 15.3934 21.3254 17.5227Z" fill="#5DC9F4"/>
</svg>
