<svg width="23" height="32" viewBox="0 0 23 32" fill="none" xmlns="http://www.w3.org/2000/svg">
<g clip-path="url(#clip0_1128_13720)">
<path d="M8.59558 5.35542V2.68944C8.59558 1.2372 9.77272 0.0600586 11.225 0.0600586C11.9511 0.0600586 12.6079 0.354442 13.0841 0.830257C13.5596 1.30607 13.8539 1.96332 13.8539 2.68944V5.35542" fill="#FFE07C"/>
<path d="M11.2249 4.96694C5.15697 4.93545 2.76057 10.2887 2.55553 13.2136C2.29145 16.9796 2.39928 18.6164 1.92583 20.8278C1.58383 22.4257 1.01277 23.8059 0.455881 24.8819C-0.13328 26.0197 0.699494 27.3767 1.98054 27.3767H20.4692C21.7503 27.3767 22.5831 26.0197 21.9939 24.8819C21.4366 23.8059 20.8659 22.4253 20.5239 20.8278C20.0505 18.6168 20.1583 16.9796 19.8942 13.2136C19.6892 10.2887 17.2932 4.93545 11.2249 4.96694Z" fill="#FFE07C"/>
<path d="M14.1145 27.3767C14.1672 27.5991 14.1951 27.8309 14.1951 28.069C14.1951 29.7208 12.8558 31.06 11.2041 31.06C9.5523 31.06 8.21301 29.7208 8.21301 28.069C8.21301 27.8309 8.24096 27.5991 8.29369 27.3767" fill="#FFE07C"/>
</g>
<defs>
<clipPath id="clip0_1128_13720">
<rect width="23" height="32" fill="white"/>
</clipPath>
</defs>
</svg>
