<svg width="21" height="32" viewBox="0 0 21 32" fill="none" xmlns="http://www.w3.org/2000/svg">
<g clip-path="url(#clip0_1128_13815)">
<path d="M19.4611 0.838708L19.2471 0.738073C18.411 0.344739 17.4245 0.726201 17.0438 1.59009L8.86068 20.1594C8.47998 21.0233 8.84919 22.0425 9.68533 22.4358L9.89926 22.5365C10.7354 22.9298 11.7219 22.5484 12.1026 21.6845L20.2857 3.11511C20.6664 2.25122 20.2972 1.23204 19.4611 0.838708Z" fill="#6E52F8"/>
<path d="M20.2686 3.10694C20.645 2.25284 20.28 1.2452 19.4533 0.856321L19.2394 0.755681C18.4127 0.366801 17.4374 0.743947 17.061 1.59806L8.87788 20.1674C8.5015 21.0215 8.86654 22.0291 9.69321 22.418L9.90715 22.5187C10.7338 22.9075 11.7091 22.5304 12.0855 21.6763L20.2686 3.10694ZM12.1197 21.6924C11.7347 22.5661 10.7371 22.9518 9.89154 22.5541L9.6776 22.4534C8.832 22.0557 8.45859 21.025 8.84359 20.1513L17.0268 1.58193C17.4118 0.708256 18.4094 0.322472 19.255 0.720259L19.4689 0.820899C20.3145 1.21869 20.6879 2.2494 20.3029 3.12307L12.1197 21.6924Z" fill="white"/>
<path d="M0.63208 30.2439C0.63208 30.2439 3.2154 29.4858 3.30164 26.8987C3.38787 24.3116 3.34475 22.1708 6.57409 21.1451C9.80343 20.1193 12.2147 22.4831 12.5589 24.6239C12.9034 26.7647 12.2143 29.1796 9.71719 30.2439C7.21974 31.3079 4.67953 32.0724 0.63208 30.2439Z" fill="#6E52F8"/>
<path d="M6.41579 20.5225C10.0453 19.3672 12.7868 22.0359 13.1832 24.5059C13.5617 26.8627 12.8039 29.625 9.97082 30.8352L9.97075 30.8352C8.6876 31.383 7.34247 31.877 5.77659 31.9802C4.20359 32.0839 2.44554 31.7916 0.323007 30.8306C0.114671 30.7362 -0.0141112 30.5162 0.0012355 30.2808C0.0165784 30.0455 0.172583 29.8456 0.391073 29.7811C0.391018 29.7811 0.390784 29.7812 0.390674 29.7812C0.390457 29.7813 0.390272 29.7813 0.39013 29.7814C0.389889 29.7815 0.389756 29.7815 0.389732 29.7815C0.389788 29.7815 0.390446 29.7813 0.391653 29.7809C0.394111 29.7802 0.398896 29.7787 0.40586 29.7764C0.419824 29.7718 0.442478 29.7642 0.472585 29.7532C0.532914 29.7312 0.622579 29.696 0.731944 29.6458C0.951973 29.5448 1.24458 29.3864 1.53706 29.1574C2.11843 28.7023 2.6753 27.9924 2.71183 26.8941C2.75417 25.6211 2.76083 24.2933 3.21891 23.171C3.70406 21.9825 4.65898 21.0817 6.41579 20.5225ZM12.1216 24.6896C11.8186 22.8012 9.66194 20.6579 6.73133 21.5907C5.20806 22.0756 4.54481 22.7865 4.20992 23.6069C3.84798 24.4937 3.83275 25.5721 3.7875 26.9326C3.73644 28.4678 2.93755 29.4604 2.18506 30.0495C2.08438 30.1283 1.98407 30.2003 1.88591 30.2659C3.3607 30.7918 4.60169 30.9381 5.70838 30.8651C7.09448 30.7738 8.30774 30.337 9.56127 29.8019C11.8008 28.8452 12.443 26.6912 12.1216 24.6897V24.6896Z" fill="white"/>
<path d="M13.2737 18.5399L12.8095 19.5917L9.4812 18.0313L9.94543 16.9795L13.2737 18.5399Z" fill="white"/>
</g>
<defs>
<clipPath id="clip0_1128_13815">
<rect width="21" height="32" fill="white"/>
</clipPath>
</defs>
</svg>
