<svg width="33" height="21" viewBox="0 0 33 21" fill="none" xmlns="http://www.w3.org/2000/svg">
<path d="M23.1567 13.507C23.1567 17.1833 20.1763 20.1637 16.5 20.1637C12.8238 20.1637 9.84375 17.1833 9.84375 13.507C9.84375 10.0924 12.415 7.27825 15.7267 6.89575C15.7504 10.5516 18.7217 13.507 22.3825 13.507C22.6442 13.507 22.9025 13.492 23.1562 13.4616C23.1567 13.4766 23.1567 13.492 23.1567 13.507Z" fill="#60940A"/>
<path d="M16.4998 0.232178C24.6579 0.232184 31.3593 6.46547 32.1026 14.429C32.1336 14.7612 31.8894 15.0556 31.5571 15.0866C31.2249 15.1176 30.9305 14.8735 30.8995 14.5413C30.2136 7.19308 24.0283 1.44052 16.4998 1.44051C8.97127 1.44051 2.78593 7.19308 2.10007 14.5413C2.06905 14.8735 1.77457 15.1176 1.44235 15.0866C1.11013 15.0556 0.865937 14.7612 0.896941 14.429C1.64024 6.46547 8.34159 0.232178 16.4998 0.232178Z" fill="#60940A"/>
</svg>
